<svg width="15" height="15" viewBox="0 0 15 15" fill="none" xmlns="http://www.w3.org/2000/svg">
<path fill-rule="evenodd" clip-rule="evenodd" d="M0.853553 0.146447C0.658291 -0.0488155 0.341709 -0.0488155 0.146447 0.146447C-0.0488155 0.341709 -0.0488155 0.658291 0.146447 0.853553L6.79373 7.50084L0.147312 14.1473C-0.0479498 14.3425 -0.0479498 14.6591 0.147312 14.8544C0.342575 15.0496 0.659157 15.0496 0.85442 14.8544L7.50084 8.20794L14.1473 14.8544C14.3425 15.0496 14.6591 15.0496 14.8544 14.8544C15.0496 14.6591 15.0496 14.3425 14.8544 14.1473L8.20794 7.50084L14.8552 0.853553C15.0505 0.658291 15.0505 0.341709 14.8552 0.146447C14.66 -0.0488155 14.3434 -0.0488155 14.1481 0.146447L7.50084 6.79373L0.853553 0.146447Z" fill="#A9ABB5"/>
</svg>
