<svg width="204" height="42" viewBox="0 0 204 42" fill="none" xmlns="http://www.w3.org/2000/svg">
<path d="M22.754 4.84909C22.799 4.63296 22.6602 4.42086 22.4432 4.38046C18.2672 3.603 13.9466 4.2492 10.1762 6.22219C6.28761 8.25701 3.22487 11.5772 1.50983 15.617C-0.205208 19.6569 -0.466432 24.1664 0.770667 28.3772C2.00777 32.5881 4.66665 36.2397 8.29427 38.7099C11.9219 41.1801 16.2938 42.3161 20.6651 41.9243C25.0363 41.5324 29.1365 39.637 32.267 36.561C35.3975 33.485 37.3645 29.4187 37.833 25.055C38.2873 20.8239 37.3054 16.567 35.0519 12.9663C34.9348 12.7792 34.6866 12.7278 34.502 12.8489L32.5278 14.143C32.3432 14.2641 32.2921 14.5116 32.4084 14.6992C34.2616 17.6881 35.0673 21.2135 34.6911 24.7177C34.3006 28.3545 32.6612 31.7435 30.0522 34.3071C27.4432 36.8707 24.0261 38.4503 20.3829 38.7769C16.7398 39.1034 13.0962 38.1567 10.0729 36.098C7.04952 34.0392 4.83355 30.9959 3.80253 27.4865C2.7715 23.9771 2.98921 20.2188 4.41856 16.8519C5.84791 13.485 8.40046 10.7179 11.6413 9.02202C14.7639 7.388 18.3394 6.84594 21.7994 7.47503C22.0166 7.51452 22.2282 7.37629 22.2732 7.16016L22.754 4.84909Z" fill="#5C5FFA"/>
<g filter="url(#filter0_b_2888_16780)">
<path d="M15.3548 13.8251C15.3561 12.8032 16.7083 12.4409 17.2203 13.3252L20.7317 19.3902C20.9103 19.6987 21.2395 19.8887 21.5959 19.8892L28.6041 19.8977C29.6259 19.8989 29.9882 21.2511 29.1039 21.7631L23.0389 25.2745C22.7305 25.4531 22.5404 25.7823 22.5399 26.1387L22.5315 33.1469C22.5302 34.1687 21.178 34.531 20.666 33.6467L17.1546 27.5817C16.976 27.2733 16.6468 27.0832 16.2904 27.0828L9.28223 27.0743C8.26041 27.073 7.89809 25.7208 8.78239 25.2089L14.8474 21.6974C15.1558 21.5189 15.3459 21.1896 15.3463 20.8332L15.3548 13.8251Z" fill="#5C5FFA"/>
</g>
<path d="M49.4621 14.2112C49.3148 13.7001 49.6984 13.1904 50.2303 13.1904H53.1032C53.472 13.1904 53.7929 13.4427 53.88 13.801L57.1076 27.0761C57.1194 27.1245 57.1628 27.1586 57.2126 27.1586V27.1586C57.2616 27.1586 57.3044 27.1256 57.317 27.0782L60.8394 13.7851C60.9323 13.4345 61.2495 13.1904 61.6121 13.1904H64.3067C64.6695 13.1904 64.9868 13.4347 65.0796 13.7855L68.6023 27.106C68.6148 27.1534 68.6576 27.1863 68.7066 27.1863V27.1863C68.7564 27.1863 68.7998 27.1523 68.8115 27.1038L72.0366 13.8015C72.1236 13.4429 72.4446 13.1904 72.8136 13.1904H75.6859C76.2179 13.1904 76.6014 13.7002 76.4541 14.2113L71.1531 32.5983C71.0544 32.9406 70.7412 33.1763 70.385 33.1763H67.496C67.1405 33.1763 66.8277 32.9416 66.7284 32.6003L63.0783 20.0608C63.0644 20.013 63.0205 19.9801 62.9707 19.9801V19.9801C62.921 19.9801 62.8772 20.0129 62.8632 20.0606L59.186 32.6018C59.0861 32.9423 58.7737 33.1763 58.4188 33.1763H55.5287C55.1724 33.1763 54.8591 32.9405 54.7605 32.5982L49.4621 14.2112Z" fill="#5C5FFA"/>
<path d="M113.922 32.3768C113.922 32.8183 113.564 33.1763 113.123 33.1763H110.636C110.377 33.1763 110.134 33.0513 109.984 32.8407L101.208 20.5248C101.187 20.4949 101.153 20.4772 101.116 20.4772V20.4772C101.053 20.4772 101.003 20.5279 101.003 20.5905V32.3768C101.003 32.8183 100.645 33.1763 100.203 33.1763H97.5338C97.0923 33.1763 96.7344 32.8183 96.7344 32.3768V13.9899C96.7344 13.5483 97.0923 13.1904 97.5338 13.1904H100.077C100.336 13.1904 100.579 13.3162 100.729 13.5279L109.443 25.8337C109.467 25.8687 109.508 25.8895 109.55 25.8895V25.8895C109.623 25.8895 109.682 25.8304 109.682 25.7574V13.9899C109.682 13.5483 110.04 13.1904 110.482 13.1904H113.123C113.564 13.1904 113.922 13.5483 113.922 13.9899V32.3768Z" fill="#5C5FFA"/>
<path d="M115.922 13.9899C115.922 13.5483 116.28 13.1904 116.721 13.1904H132.31C132.752 13.1904 133.11 13.5483 133.11 13.9899V15.8145C133.11 16.256 132.752 16.614 132.31 16.614H127.607C127.165 16.614 126.807 16.9719 126.807 17.4134V32.3768C126.807 32.8183 126.449 33.1763 126.008 33.1763H123.378C122.936 33.1763 122.578 32.8183 122.578 32.3768V17.4134C122.578 16.9719 122.22 16.614 121.779 16.614H116.721C116.28 16.614 115.922 16.256 115.922 15.8145V13.9899Z" fill="#5C5FFA"/>
<path d="M135.504 13.9899C135.504 13.5483 135.862 13.1904 136.303 13.1904H148.245C148.685 13.1904 149.043 13.546 149.045 13.9859L149.054 15.8101C149.056 16.2532 148.697 16.6135 148.254 16.6135H140.486C140.045 16.6135 139.687 16.9714 139.687 17.4129V20.6724C139.687 21.1139 140.045 21.4718 140.487 21.4718H147.599C148.045 21.4718 148.405 21.8366 148.398 22.2824L148.373 24.1066C148.367 24.5437 148.011 24.8949 147.574 24.8949H140.487C140.045 24.8949 139.687 25.2528 139.687 25.6943V28.9538C139.687 29.3953 140.045 29.7532 140.487 29.7532H148.293C148.735 29.7532 149.093 30.1123 149.092 30.5546L149.088 32.3788C149.087 32.8195 148.729 33.1763 148.288 33.1763H136.303C135.862 33.1763 135.504 32.8183 135.504 32.3768V13.9899Z" fill="#5C5FFA"/>
<path d="M152.616 33.1763C152.066 33.1763 151.68 32.634 151.861 32.1146L158.246 13.7276C158.358 13.406 158.661 13.1904 159.001 13.1904H163.199C163.54 13.1904 163.843 13.4065 163.955 13.7286L170.312 32.1156C170.491 32.6348 170.106 33.1763 169.556 33.1763H166.806C166.461 33.1763 166.154 32.9539 166.047 32.6252L164.9 29.1175C164.792 28.7888 164.486 28.5665 164.14 28.5665H158.056C157.71 28.5665 157.403 28.7888 157.296 29.1175L156.149 32.6252C156.042 32.9539 155.735 33.1763 155.389 33.1763H152.616ZM163.666 25.3369C163.667 25.3369 163.668 25.3355 163.668 25.3342L161.188 17.7552C161.175 17.7158 161.138 17.6891 161.097 17.6891V17.6891C161.055 17.6891 161.018 17.7158 161.005 17.7552L158.867 24.2888C158.698 24.8057 159.083 25.3369 159.627 25.3369H163.666V25.3369Z" fill="#5C5FFA"/>
<path d="M76.28 33.1763C75.728 33.1763 75.3421 32.63 75.5265 32.1097L82.0448 13.7227C82.1579 13.4037 82.4597 13.1904 82.7983 13.1904H87.1151C87.454 13.1904 87.7561 13.4042 87.869 13.7238L94.3585 32.1108C94.5421 32.6309 94.1562 33.1763 93.6046 33.1763H90.766C90.422 33.1763 90.1166 32.9562 90.0077 32.6299L88.8338 29.1128C88.7249 28.7865 88.4195 28.5665 88.0755 28.5665H81.833C81.489 28.5665 81.1836 28.7865 81.0747 29.1128L79.9009 32.6299C79.792 32.9562 79.4866 33.1763 79.1426 33.1763H76.28ZM87.5757 25.3369C87.5771 25.3369 87.5781 25.3355 87.5776 25.3342L85.0463 17.7564C85.0329 17.7162 84.9952 17.6891 84.9528 17.6891V17.6891C84.9105 17.6891 84.8728 17.7162 84.8594 17.7564L82.6788 24.2842C82.5059 24.8019 82.8912 25.3369 83.4371 25.3369H87.5757V25.3369Z" fill="#5C5FFA"/>
<path d="M177.774 13.1904C178.097 13.1904 178.388 13.3844 178.512 13.6823L183.914 26.6404C183.94 26.7036 184.002 26.7448 184.07 26.7448V26.7448C184.139 26.7448 184.201 26.7036 184.227 26.6404L189.629 13.6823C189.753 13.3844 190.044 13.1904 190.367 13.1904H194.263C194.705 13.1904 195.063 13.5483 195.063 13.9899V32.3768C195.063 32.8183 194.705 33.1763 194.263 33.1763H191.759C191.317 33.1763 190.959 32.8183 190.959 32.3768V20.1927C190.959 20.1366 190.914 20.0912 190.858 20.0912V20.0912C190.816 20.0912 190.779 20.1161 190.764 20.1543L185.679 32.596C185.556 32.8965 185.264 33.0929 184.939 33.0929H183.203C182.877 33.0929 182.585 32.896 182.462 32.5948L177.377 20.0989C177.361 20.0606 177.324 20.0357 177.283 20.0357V20.0357C177.227 20.0357 177.181 20.0811 177.181 20.1371V32.3768C177.181 32.8183 176.824 33.1763 176.382 33.1763H173.878C173.436 33.1763 173.078 32.8183 173.078 32.3768V13.9899C173.078 13.5483 173.436 13.1904 173.878 13.1904H177.774Z" fill="#5C5FFA"/>
<path d="M198.258 30.9646C198.229 29.7541 199.322 28.7662 200.671 28.7794C201.948 28.7662 203.054 29.7541 203.054 30.9646C203.054 32.175 201.948 33.1762 200.671 33.1762C199.322 33.1762 198.229 32.1882 198.258 30.9646Z" fill="#5C5FFA"/>
<path d="M26.0655 13.4261C25.4347 13.8986 24.5731 13.2698 24.8307 12.5249L28.2945 2.51045C28.7292 1.2537 30.2471 0.764022 31.3342 1.52983L34.5547 3.79839C35.6648 4.58034 35.6887 6.21787 34.602 7.0319L26.0655 13.4261Z" fill="#5C5FFA"/>
<defs>
<filter id="filter0_b_2888_16780" x="3.44926" y="7.99272" width="30.9882" height="30.9867" filterUnits="userSpaceOnUse" color-interpolation-filters="sRGB">
<feFlood flood-opacity="0" result="BackgroundImageFix"/>
<feGaussianBlur in="BackgroundImageFix" stdDeviation="2.41599"/>
<feComposite in2="SourceAlpha" operator="in" result="effect1_backgroundBlur_2888_16780"/>
<feBlend mode="normal" in="SourceGraphic" in2="effect1_backgroundBlur_2888_16780" result="shape"/>
</filter>
</defs>
</svg>
