<svg width="200" height="125" viewBox="0 0 200 125" fill="none" xmlns="http://www.w3.org/2000/svg">
<g id="Group 39984">
<g id="Group 39850">
<ellipse id="Ellipse 5256" cx="99.8687" cy="75.7637" rx="96.6774" ry="25.0645" transform="rotate(15 99.8687 75.7637)" fill="#EEEFFD"/>
</g>
<g id="Group 39983" filter="url(#filter0_ii_2192_15913)">
<g id="Group 39942">
<rect id="Rectangle 3077" x="25" y="30.3281" width="117.183" height="72.6093" rx="6" transform="rotate(-15 25 30.3281)" fill="#CACBFF"/>
<g id="Mask group">
<mask id="mask0_2192_15913" style="mask-type:alpha" maskUnits="userSpaceOnUse" x="26" y="1" width="130" height="99">
<rect id="Rectangle 3078" x="25" y="30.3281" width="117.183" height="72.6093" rx="6" transform="rotate(-15 25 30.3281)" fill="#898BF8"/>
</mask>
<g mask="url(#mask0_2192_15913)">
<path id="Polygon 19" d="M89.2546 51.9361C91.1085 52.3974 93.0693 51.8721 94.4441 50.5456L150.158 -3.2092L14.1272 33.2402L89.2546 51.9361Z" fill="#A2A4F6"/>
</g>
</g>
</g>
<g id="Star 17" filter="url(#filter1_b_2192_15913)">
<path d="M88.8926 40.6177C88.8939 39.5457 90.3123 39.1657 90.8494 40.0933L94.4766 46.3582C94.6639 46.6817 95.0093 46.8811 95.3831 46.8816L102.622 46.8903C103.694 46.8916 104.074 48.3101 103.147 48.8472L96.8817 52.4743C96.5582 52.6617 96.3588 53.007 96.3583 53.3809L96.3495 60.62C96.3482 61.6919 94.9297 62.072 94.3927 61.1443L90.7655 54.8795C90.5782 54.5559 90.2328 54.3565 89.859 54.3561L82.6199 54.3473C81.548 54.346 81.1679 52.9275 82.0955 52.3904L88.3604 48.7633C88.6839 48.576 88.8833 48.2306 88.8838 47.8567L88.8926 40.6177Z" fill="#6E70F5"/>
</g>
</g>
<g id="Union" filter="url(#filter2_ii_2192_15913)">
<path fill-rule="evenodd" clip-rule="evenodd" d="M154.5 85.6094C169.136 85.6094 181 76.4312 181 65.1094C181 53.7875 169.136 44.6094 154.5 44.6094C139.864 44.6094 128 53.7875 128 65.1094C128 72.2361 132.701 78.5134 139.835 82.1868L136.747 92.9935C136.492 93.8882 137.489 94.6164 138.264 94.1003L151.232 85.455C152.303 85.5569 153.393 85.6094 154.5 85.6094Z" fill="#5C5FFA"/>
</g>
</g>
<defs>
<filter id="filter0_ii_2192_15913" x="20.3467" y="-6.65234" width="137.289" height="118.77" filterUnits="userSpaceOnUse" color-interpolation-filters="sRGB">
<feFlood flood-opacity="0" result="BackgroundImageFix"/>
<feBlend mode="normal" in="SourceGraphic" in2="BackgroundImageFix" result="shape"/>
<feColorMatrix in="SourceAlpha" type="matrix" values="0 0 0 0 0 0 0 0 0 0 0 0 0 0 0 0 0 0 127 0" result="hardAlpha"/>
<feOffset dx="-6" dy="13"/>
<feGaussianBlur stdDeviation="9.73418"/>
<feComposite in2="hardAlpha" operator="arithmetic" k2="-1" k3="1"/>
<feColorMatrix type="matrix" values="0 0 0 0 0.889241 0 0 0 0 0.891847 0 0 0 0 1 0 0 0 0.71 0"/>
<feBlend mode="normal" in2="shape" result="effect1_innerShadow_2192_15913"/>
<feColorMatrix in="SourceAlpha" type="matrix" values="0 0 0 0 0 0 0 0 0 0 0 0 0 0 0 0 0 0 127 0" result="hardAlpha"/>
<feOffset dx="2" dy="-8"/>
<feGaussianBlur stdDeviation="9.1934"/>
<feComposite in2="hardAlpha" operator="arithmetic" k2="-1" k3="1"/>
<feColorMatrix type="matrix" values="0 0 0 0 0.301961 0 0 0 0 0.313726 0 0 0 0 0.968627 0 0 0 0.56 0"/>
<feBlend mode="normal" in2="effect1_innerShadow_2192_15913" result="effect2_innerShadow_2192_15913"/>
</filter>
<filter id="filter1_b_2192_15913" x="72.9078" y="30.9039" width="39.4266" height="39.4266" filterUnits="userSpaceOnUse" color-interpolation-filters="sRGB">
<feFlood flood-opacity="0" result="BackgroundImageFix"/>
<feGaussianBlur in="BackgroundImageFix" stdDeviation="4.33127"/>
<feComposite in2="SourceAlpha" operator="in" result="effect1_backgroundBlur_2192_15913"/>
<feBlend mode="normal" in="SourceGraphic" in2="effect1_backgroundBlur_2192_15913" result="shape"/>
</filter>
<filter id="filter2_ii_2192_15913" x="126" y="35.6094" width="73.3868" height="64.6641" filterUnits="userSpaceOnUse" color-interpolation-filters="sRGB">
<feFlood flood-opacity="0" result="BackgroundImageFix"/>
<feBlend mode="normal" in="SourceGraphic" in2="BackgroundImageFix" result="shape"/>
<feColorMatrix in="SourceAlpha" type="matrix" values="0 0 0 0 0 0 0 0 0 0 0 0 0 0 0 0 0 0 127 0" result="hardAlpha"/>
<feOffset dx="-2" dy="6"/>
<feGaussianBlur stdDeviation="7.6"/>
<feComposite in2="hardAlpha" operator="arithmetic" k2="-1" k3="1"/>
<feColorMatrix type="matrix" values="0 0 0 0 0.794463 0 0 0 0 0.799084 0 0 0 0 0.990873 0 0 0 0.71 0"/>
<feBlend mode="normal" in2="shape" result="effect1_innerShadow_2192_15913"/>
<feColorMatrix in="SourceAlpha" type="matrix" values="0 0 0 0 0 0 0 0 0 0 0 0 0 0 0 0 0 0 127 0" result="hardAlpha"/>
<feOffset dx="19" dy="-9"/>
<feGaussianBlur stdDeviation="9.1934"/>
<feComposite in2="hardAlpha" operator="arithmetic" k2="-1" k3="1"/>
<feColorMatrix type="matrix" values="0 0 0 0 0.301961 0 0 0 0 0.313726 0 0 0 0 0.968627 0 0 0 0.56 0"/>
<feBlend mode="normal" in2="effect1_innerShadow_2192_15913" result="effect2_innerShadow_2192_15913"/>
</filter>
</defs>
</svg>
