<svg width="128" height="98" viewBox="0 0 128 98" fill="none" xmlns="http://www.w3.org/2000/svg">
<g id="Group 39995">
<ellipse id="Ellipse 5256" cx="63.8506" cy="64.5499" rx="61.4009" ry="17.5492" transform="rotate(15 63.8506 64.5499)" fill="#EEEFFD"/>
<circle id="Ellipse 5207" cx="31.1518" cy="31.1518" r="31.1518" transform="matrix(1 0 0 -1 34.4531 62.3047)" fill="white"/>
<circle id="Ellipse 5257" cx="31.1518" cy="31.1518" r="31.1518" transform="matrix(1 0 0 -1 34.4531 62.3047)" fill="url(#paint0_linear_2296_30167)" fill-opacity="0.35"/>
<path id="Union" fill-rule="evenodd" clip-rule="evenodd" d="M91.3954 43.4102C92.6896 44.0253 94.2485 43.4776 94.7538 42.1367C97.03 36.0966 97.381 29.4752 95.7211 23.1934C93.8394 16.0725 89.4955 9.84857 83.4605 5.62646C77.4254 1.40435 70.0895 -0.542847 62.755 0.130507C55.4205 0.803861 48.5619 4.0542 43.3964 9.30459C38.231 14.555 35.093 21.4658 34.5393 28.8103C33.9857 36.1548 36.0523 43.4579 40.3723 49.4233C44.6923 55.3887 50.9862 59.6305 58.1369 61.3957C64.445 62.9529 71.0598 62.494 77.0619 60.1196C78.3944 59.5924 78.9165 58.0248 78.2804 56.7408C77.6443 55.4568 76.091 54.9449 74.7499 55.4498C69.8555 57.2924 64.497 57.6208 59.3806 56.3577C53.4211 54.8865 48.1756 51.3513 44.5752 46.3797C40.9748 41.408 39.2525 35.3214 39.7139 29.2003C40.1753 23.0793 42.7906 17.3197 47.0956 12.9439C51.4006 8.5681 57.1167 5.85919 63.2295 5.298C69.3422 4.73682 75.456 6.35965 80.4858 9.87845C85.5155 13.3972 89.1358 18.5844 90.704 24.5191C92.0504 29.6142 91.8094 34.9774 90.0469 39.9012C89.564 41.2503 90.1011 42.795 91.3954 43.4102ZM85.4156 50.2811C86.5182 49.0798 88.3858 48.9998 89.587 50.1023L104.41 63.7072C105.612 64.8097 105.692 66.6773 104.589 67.8786C103.487 69.0799 101.619 69.1599 100.418 68.0574L85.5944 54.4525C84.3931 53.35 84.3131 51.4823 85.4156 50.2811ZM65.4512 16C67.108 16 68.4512 17.3431 68.4512 19V34C68.4512 35.6569 67.108 37 65.4512 37C63.7943 37 62.4512 35.6569 62.4512 34V19C62.4512 17.3431 63.7943 16 65.4512 16ZM68.4512 43C68.4512 44.6569 67.108 46 65.4512 46C63.7943 46 62.4512 44.6569 62.4512 43C62.4512 41.3431 63.7943 40 65.4512 40C67.108 40 68.4512 41.3431 68.4512 43Z" fill="url(#paint1_linear_2296_30167)"/>
</g>
<defs>
<linearGradient id="paint0_linear_2296_30167" x1="-0.453125" y1="16.3047" x2="46.5469" y2="62.3047" gradientUnits="userSpaceOnUse">
<stop stop-color="#3B3EF1"/>
<stop offset="1" stop-color="#7376F0" stop-opacity="0"/>
</linearGradient>
<linearGradient id="paint1_linear_2296_30167" x1="59.9512" y1="62.5" x2="94.2238" y2="-21.9044" gradientUnits="userSpaceOnUse">
<stop stop-color="#3B3EF1"/>
<stop offset="0.783273" stop-color="#A3A5FF"/>
</linearGradient>
</defs>
</svg>
