<svg width="61" height="38" viewBox="0 0 61 38" fill="none" xmlns="http://www.w3.org/2000/svg">
<g id="Group 39875">
<g id="Union">
<mask id="path-1-inside-1_2010_10310" fill="white">
<path fill-rule="evenodd" clip-rule="evenodd" d="M47.3638 14.2861C50.7565 14.2861 53.5068 11.5358 53.5068 8.14305C53.5068 4.75034 50.7565 2 47.3638 2C43.9711 2 41.2207 4.75034 41.2207 8.14305C41.2207 11.5358 43.9711 14.2861 47.3638 14.2861ZM60.7689 28.31C60.8921 29.26 60.104 30.0397 59.1461 30.0397H47.4382H35.7302C34.7723 30.0397 33.9842 29.26 34.1075 28.31C34.2594 27.1392 34.5652 25.991 35.019 24.8955C35.6945 23.2646 36.6847 21.7827 37.9329 20.5345C39.1812 19.2863 40.6631 18.2961 42.294 17.6205C43.9249 16.945 45.6729 16.5973 47.4382 16.5973C49.2035 16.5973 50.9515 16.945 52.5824 17.6205C54.2133 18.2961 55.6952 19.2863 56.9434 20.5345C58.1917 21.7827 59.1818 23.2646 59.8574 24.8955C60.3111 25.991 60.6169 27.1392 60.7689 28.31Z"/>
</mask>
<path fill-rule="evenodd" clip-rule="evenodd" d="M47.3638 14.2861C50.7565 14.2861 53.5068 11.5358 53.5068 8.14305C53.5068 4.75034 50.7565 2 47.3638 2C43.9711 2 41.2207 4.75034 41.2207 8.14305C41.2207 11.5358 43.9711 14.2861 47.3638 14.2861ZM60.7689 28.31C60.8921 29.26 60.104 30.0397 59.1461 30.0397H47.4382H35.7302C34.7723 30.0397 33.9842 29.26 34.1075 28.31C34.2594 27.1392 34.5652 25.991 35.019 24.8955C35.6945 23.2646 36.6847 21.7827 37.9329 20.5345C39.1812 19.2863 40.6631 18.2961 42.294 17.6205C43.9249 16.945 45.6729 16.5973 47.4382 16.5973C49.2035 16.5973 50.9515 16.945 52.5824 17.6205C54.2133 18.2961 55.6952 19.2863 56.9434 20.5345C58.1917 21.7827 59.1818 23.2646 59.8574 24.8955C60.3111 25.991 60.6169 27.1392 60.7689 28.31Z" fill="#B1B6FF"/>
<path d="M60.7689 28.31L60.9122 28.2914L60.7689 28.31ZM34.1075 28.31L33.9641 28.2914L34.1075 28.31ZM35.019 24.8955L35.1525 24.9509L35.019 24.8955ZM37.9329 20.5345L37.8307 20.4323L37.9329 20.5345ZM56.9434 20.5345L56.8412 20.6367L56.9434 20.5345ZM59.8574 24.8955L59.9909 24.8402L59.8574 24.8955ZM53.3623 8.14305C53.3623 11.4559 50.6767 14.1416 47.3638 14.1416V14.4307C50.8363 14.4307 53.6514 11.6156 53.6514 8.14305H53.3623ZM47.3638 2.14454C50.6767 2.14454 53.3623 4.83017 53.3623 8.14305H53.6514C53.6514 4.67051 50.8363 1.85546 47.3638 1.85546V2.14454ZM41.3653 8.14305C41.3653 4.83017 44.0509 2.14454 47.3638 2.14454V1.85546C43.8912 1.85546 41.0762 4.67051 41.0762 8.14305H41.3653ZM47.3638 14.1416C44.0509 14.1416 41.3653 11.4559 41.3653 8.14305H41.0762C41.0762 11.6156 43.8912 14.4307 47.3638 14.4307V14.1416ZM59.1461 30.1843C60.178 30.1843 61.0483 29.3405 60.9122 28.2914L60.6255 28.3286C60.7359 29.1795 60.0301 29.8952 59.1461 29.8952V30.1843ZM47.4382 30.1843H59.1461V29.8952H47.4382V30.1843ZM35.7302 30.1843H47.4382V29.8952H35.7302V30.1843ZM33.9641 28.2914C33.828 29.3405 34.6983 30.1843 35.7302 30.1843V29.8952C34.8463 29.8952 34.1404 29.1795 34.2508 28.3286L33.9641 28.2914ZM34.8854 24.8402C34.4268 25.9474 34.1177 27.108 33.9641 28.2914L34.2508 28.3286C34.4011 27.1704 34.7036 26.0345 35.1525 24.9509L34.8854 24.8402ZM37.8307 20.4323C36.569 21.694 35.5682 23.1918 34.8854 24.8402L35.1525 24.9509C35.8208 23.3375 36.8003 21.8715 38.0351 20.6367L37.8307 20.4323ZM42.2387 17.487C40.5902 18.1698 39.0924 19.1706 37.8307 20.4323L38.0351 20.6367C39.27 19.4019 40.7359 18.4224 42.3493 17.7541L42.2387 17.487ZM47.4382 16.4528C45.6539 16.4528 43.8871 16.8042 42.2387 17.487L42.3493 17.7541C43.9627 17.0858 45.6919 16.7418 47.4382 16.7418V16.4528ZM52.6377 17.487C50.9892 16.8042 49.2224 16.4528 47.4382 16.4528V16.7418C49.1845 16.7418 50.9137 17.0858 52.5271 17.7541L52.6377 17.487ZM57.0456 20.4323C55.784 19.1706 54.2861 18.1698 52.6377 17.487L52.5271 17.7541C54.1404 18.4224 55.6064 19.4019 56.8412 20.6367L57.0456 20.4323ZM59.9909 24.8402C59.3081 23.1918 58.3073 21.694 57.0456 20.4323L56.8412 20.6367C58.076 21.8715 59.0555 23.3375 59.7238 24.9509L59.9909 24.8402ZM60.9122 28.2914C60.7587 27.108 60.4495 25.9474 59.9909 24.8402L59.7238 24.9509C60.1727 26.0345 60.4752 27.1704 60.6255 28.3286L60.9122 28.2914Z" fill="white" mask="url(#path-1-inside-1_2010_10310)"/>
</g>
<g id="Union_2">
<mask id="path-3-inside-2_2010_10310" fill="white">
<path fill-rule="evenodd" clip-rule="evenodd" d="M13.4917 14.2861C16.8844 14.2861 19.6347 11.5358 19.6347 8.14305C19.6347 4.75034 16.8844 2 13.4917 2C10.0989 2 7.3486 4.75034 7.3486 8.14305C7.3486 11.5358 10.0989 14.2861 13.4917 14.2861ZM26.8919 28.31C27.0152 29.26 26.2271 30.0397 25.2692 30.0397H13.5612H1.85328C0.895333 30.0397 0.107252 29.26 0.230517 28.31C0.382437 27.1392 0.688274 25.991 1.14201 24.8955C1.81756 23.2646 2.80772 21.7827 4.05597 20.5345C5.30421 19.2863 6.7861 18.2961 8.41701 17.6205C10.0479 16.945 11.7959 16.5973 13.5612 16.5973C15.3265 16.5973 17.0745 16.945 18.7054 17.6205C20.3363 18.2961 21.8182 19.2863 23.0665 20.5345C24.3147 21.7827 25.3049 23.2646 25.9804 24.8955C26.4342 25.991 26.74 27.1392 26.8919 28.31Z"/>
</mask>
<path fill-rule="evenodd" clip-rule="evenodd" d="M13.4917 14.2861C16.8844 14.2861 19.6347 11.5358 19.6347 8.14305C19.6347 4.75034 16.8844 2 13.4917 2C10.0989 2 7.3486 4.75034 7.3486 8.14305C7.3486 11.5358 10.0989 14.2861 13.4917 14.2861ZM26.8919 28.31C27.0152 29.26 26.2271 30.0397 25.2692 30.0397H13.5612H1.85328C0.895333 30.0397 0.107252 29.26 0.230517 28.31C0.382437 27.1392 0.688274 25.991 1.14201 24.8955C1.81756 23.2646 2.80772 21.7827 4.05597 20.5345C5.30421 19.2863 6.7861 18.2961 8.41701 17.6205C10.0479 16.945 11.7959 16.5973 13.5612 16.5973C15.3265 16.5973 17.0745 16.945 18.7054 17.6205C20.3363 18.2961 21.8182 19.2863 23.0665 20.5345C24.3147 21.7827 25.3049 23.2646 25.9804 24.8955C26.4342 25.991 26.74 27.1392 26.8919 28.31Z" fill="#B1B6FF"/>
<path d="M26.8919 28.31L27.0353 28.2914L26.8919 28.31ZM0.230517 28.31L0.0871762 28.2914L0.230517 28.31ZM1.14201 24.8955L1.27555 24.9509L1.14201 24.8955ZM4.05597 20.5345L3.95376 20.4323L4.05597 20.5345ZM23.0665 20.5345L22.9643 20.6367L23.0665 20.5345ZM25.9804 24.8955L26.114 24.8402L25.9804 24.8955ZM19.4902 8.14305C19.4902 11.4559 16.8045 14.1416 13.4917 14.1416V14.4307C16.9642 14.4307 19.7792 11.6156 19.7792 8.14305H19.4902ZM13.4917 2.14454C16.8045 2.14454 19.4902 4.83017 19.4902 8.14305H19.7792C19.7792 4.67051 16.9642 1.85546 13.4917 1.85546V2.14454ZM7.49314 8.14305C7.49314 4.83017 10.1788 2.14454 13.4917 2.14454V1.85546C10.0191 1.85546 7.20405 4.67051 7.20405 8.14305H7.49314ZM13.4917 14.1416C10.1788 14.1416 7.49314 11.4559 7.49314 8.14305H7.20405C7.20405 11.6156 10.0191 14.4307 13.4917 14.4307V14.1416ZM25.2692 30.1843C26.3011 30.1843 27.1714 29.3405 27.0353 28.2914L26.7486 28.3286C26.859 29.1795 26.1531 29.8952 25.2692 29.8952V30.1843ZM13.5612 30.1843H25.2692V29.8952H13.5612V30.1843ZM1.85328 30.1843H13.5612V29.8952H1.85328V30.1843ZM0.0871762 28.2914C-0.0489487 29.3405 0.821356 30.1843 1.85328 30.1843V29.8952C0.96931 29.8952 0.263453 29.1795 0.373858 28.3286L0.0871762 28.2914ZM1.00847 24.8402C0.549855 25.9474 0.24073 27.108 0.0871762 28.2914L0.373858 28.3286C0.524145 27.1704 0.826693 26.0345 1.27555 24.9509L1.00847 24.8402ZM3.95376 20.4323C2.69209 21.694 1.69128 23.1918 1.00847 24.8402L1.27555 24.9509C1.94383 23.3375 2.92335 21.8715 4.15818 20.6367L3.95376 20.4323ZM8.3617 17.487C6.71325 18.1698 5.21543 19.1706 3.95376 20.4323L4.15818 20.6367C5.393 19.4019 6.85895 18.4224 8.47233 17.7541L8.3617 17.487ZM13.5612 16.4528C11.7769 16.4528 10.0101 16.8042 8.3617 17.487L8.47233 17.7541C10.0857 17.0858 11.8149 16.7418 13.5612 16.7418V16.4528ZM18.7607 17.487C17.1123 16.8042 15.3455 16.4528 13.5612 16.4528V16.7418C15.3075 16.7418 17.0367 17.0858 18.6501 17.7541L18.7607 17.487ZM23.1687 20.4323C21.907 19.1706 20.4092 18.1698 18.7607 17.487L18.6501 17.7541C20.2635 18.4224 21.7294 19.4019 22.9643 20.6367L23.1687 20.4323ZM26.114 24.8402C25.4311 23.1918 24.4303 21.694 23.1687 20.4323L22.9643 20.6367C24.1991 21.8715 25.1786 23.3375 25.8469 24.9509L26.114 24.8402ZM27.0353 28.2914C26.8817 27.108 26.5726 25.9474 26.114 24.8402L25.8469 24.9509C26.2957 26.0345 26.5983 27.1704 26.7486 28.3286L27.0353 28.2914Z" fill="white" mask="url(#path-3-inside-2_2010_10310)"/>
</g>
<g id="Union_3">
<mask id="path-5-outside-3_2010_10310" maskUnits="userSpaceOnUse" x="12.3604" y="0" width="36" height="38" fill="black">
<rect fill="white" x="12.3604" width="36" height="38"/>
<path fill-rule="evenodd" clip-rule="evenodd" d="M30.4544 16.8969C34.5681 16.8969 37.9028 13.5621 37.9028 9.44845C37.9028 5.33479 34.5681 2 30.4544 2C26.3407 2 23.0059 5.33479 23.0059 9.44845C23.0059 13.5621 26.3407 16.8969 30.4544 16.8969ZM46.7027 33.902C46.8522 35.0538 45.8967 35.9993 44.7352 35.9993H30.5393H16.3434C15.1819 35.9993 14.2263 35.0538 14.3758 33.902C14.56 32.4823 14.9308 31.0901 15.481 29.7619C16.3001 27.7844 17.5007 25.9876 19.0142 24.4741C20.5277 22.9606 22.3244 21.7601 24.3019 20.941C26.2794 20.1219 28.3989 19.7003 30.5393 19.7003C32.6797 19.7003 34.7991 20.1219 36.7766 20.941C38.7541 21.7601 40.5509 22.9606 42.0644 24.4741C43.5779 25.9876 44.7785 27.7844 45.5976 29.7619C46.1477 31.0901 46.5185 32.4823 46.7027 33.902Z"/>
</mask>
<path fill-rule="evenodd" clip-rule="evenodd" d="M30.4544 16.8969C34.5681 16.8969 37.9028 13.5621 37.9028 9.44845C37.9028 5.33479 34.5681 2 30.4544 2C26.3407 2 23.0059 5.33479 23.0059 9.44845C23.0059 13.5621 26.3407 16.8969 30.4544 16.8969ZM46.7027 33.902C46.8522 35.0538 45.8967 35.9993 44.7352 35.9993H30.5393H16.3434C15.1819 35.9993 14.2263 35.0538 14.3758 33.902C14.56 32.4823 14.9308 31.0901 15.481 29.7619C16.3001 27.7844 17.5007 25.9876 19.0142 24.4741C20.5277 22.9606 22.3244 21.7601 24.3019 20.941C26.2794 20.1219 28.3989 19.7003 30.5393 19.7003C32.6797 19.7003 34.7991 20.1219 36.7766 20.941C38.7541 21.7601 40.5509 22.9606 42.0644 24.4741C43.5779 25.9876 44.7785 27.7844 45.5976 29.7619C46.1477 31.0901 46.5185 32.4823 46.7027 33.902Z" fill="#898BF8"/>
<path d="M46.7027 33.902L45.1385 34.1049L46.7027 33.902ZM14.3758 33.902L12.8116 33.699L14.3758 33.902ZM15.481 29.7619L14.0237 29.1583L15.481 29.7619ZM19.0142 24.4741L20.1295 25.5895H20.1295L19.0142 24.4741ZM24.3019 20.941L24.9055 22.3982H24.9055L24.3019 20.941ZM45.5976 29.7619L44.1403 30.3655V30.3655L45.5976 29.7619ZM36.3255 9.44845C36.3255 12.691 33.6969 15.3196 30.4544 15.3196V18.4742C35.4392 18.4742 39.4802 14.4332 39.4802 9.44845H36.3255ZM30.4544 3.57732C33.6969 3.57732 36.3255 6.20592 36.3255 9.44845H39.4802C39.4802 4.46366 35.4392 0.422681 30.4544 0.422681V3.57732ZM24.5833 9.44845C24.5833 6.20592 27.2118 3.57732 30.4544 3.57732V0.422681C25.4696 0.422681 21.4286 4.46366 21.4286 9.44845H24.5833ZM30.4544 15.3196C27.2118 15.3196 24.5833 12.691 24.5833 9.44845H21.4286C21.4286 14.4332 25.4696 18.4742 30.4544 18.4742V15.3196ZM44.7352 37.5766C46.7039 37.5766 48.5568 35.9324 48.267 33.699L45.1385 34.1049C45.1473 34.1726 45.1317 34.2288 45.0731 34.2898C45.0058 34.3599 44.8875 34.4219 44.7352 34.4219V37.5766ZM30.5393 37.5766H44.7352V34.4219H30.5393V37.5766ZM16.3434 37.5766H30.5393V34.4219H16.3434V37.5766ZM12.8116 33.699C12.5218 35.9324 14.3746 37.5766 16.3434 37.5766V34.4219C16.191 34.4219 16.0728 34.3599 16.0054 34.2898C15.9468 34.2288 15.9312 34.1726 15.94 34.1049L12.8116 33.699ZM14.0237 29.1583C13.4203 30.615 13.0136 32.142 12.8116 33.699L15.94 34.1049C16.1064 32.8227 16.4413 31.5652 16.9382 30.3655L14.0237 29.1583ZM17.8988 23.3588C16.2389 25.0188 14.9221 26.9894 14.0237 29.1583L16.9382 30.3655C17.6781 28.5794 18.7625 26.9565 20.1295 25.5895L17.8988 23.3588ZM23.6983 19.4837C21.5295 20.3821 19.5588 21.6988 17.8988 23.3588L20.1295 25.5895C21.4965 24.2224 23.1194 23.1381 24.9055 22.3982L23.6983 19.4837ZM30.5393 18.123C28.1917 18.123 25.8672 18.5853 23.6983 19.4837L24.9055 22.3982C26.6917 21.6584 28.606 21.2776 30.5393 21.2776V18.123ZM37.3802 19.4837C35.2114 18.5853 32.8868 18.123 30.5393 18.123V21.2776C32.4725 21.2776 34.3869 21.6584 36.173 22.3982L37.3802 19.4837ZM43.1797 23.3588C41.5198 21.6988 39.5491 20.3821 37.3802 19.4837L36.173 22.3982C37.9591 23.1381 39.582 24.2224 40.9491 25.5895L43.1797 23.3588ZM47.0548 29.1583C46.1564 26.9894 44.8397 25.0188 43.1797 23.3588L40.9491 25.5895C42.3161 26.9565 43.4005 28.5794 44.1403 30.3655L47.0548 29.1583ZM48.267 33.699C48.0649 32.142 47.6582 30.615 47.0548 29.1583L44.1403 30.3655C44.6372 31.5652 44.9722 32.8227 45.1385 34.1049L48.267 33.699Z" fill="white" mask="url(#path-5-outside-3_2010_10310)"/>
</g>
</g>
</svg>
