<svg width="38" height="32" viewBox="0 0 38 32" fill="none" xmlns="http://www.w3.org/2000/svg">
<path fill-rule="evenodd" clip-rule="evenodd" d="M6.15807 13.304L0.985478 16.2904C0.441212 16.6046 0.254735 17.3006 0.568965 17.8449L2.36181 20.9501C2.49707 21.1844 2.77802 21.286 3.04362 21.2346C4.4915 20.9542 6.02058 21.5998 6.79937 22.9487C7.57816 24.2976 7.37276 25.9447 6.40598 27.0584C6.22863 27.2627 6.17615 27.5568 6.31142 27.7911L7.96552 30.6561C8.27975 31.2003 8.9757 31.3868 9.51996 31.0726L14.6925 28.0862L14.1229 27.0995C13.9658 26.8274 14.059 26.4794 14.3312 26.3223C14.6033 26.1652 14.9513 26.2584 15.1084 26.5306L15.678 27.5172L36.1278 15.7105C36.6721 15.3963 36.8586 14.7003 36.5444 14.1561L34.8907 11.2919C34.7554 11.0574 34.4742 10.9559 34.2084 11.0075C32.7599 11.2891 31.2296 10.6435 30.4504 9.29383C29.6711 7.9442 29.8772 6.29611 30.8453 5.18239C31.0229 4.97809 31.0755 4.68378 30.9402 4.44935L29.1478 1.34485C28.8336 0.800588 28.1376 0.614109 27.5934 0.928341L7.14354 12.735L7.85502 13.9674C8.01214 14.2395 7.9189 14.5875 7.64676 14.7446C7.37463 14.9017 7.02666 14.8085 6.86954 14.5363L6.15807 13.304ZM8.15025 16.7546C7.99314 16.4825 8.08638 16.1345 8.35851 15.9774C8.63064 15.8202 8.97862 15.9135 9.13573 16.1856L10.8426 19.142C10.9997 19.4142 10.9065 19.7622 10.6344 19.9193C10.3622 20.0764 10.0143 19.9831 9.85715 19.711L8.15025 16.7546ZM11.3429 21.1465C11.0708 21.3036 10.9775 21.6515 11.1346 21.9237L12.8415 24.8801C12.9986 25.1522 13.3466 25.2455 13.6187 25.0884C13.8909 24.9312 13.9841 24.5833 13.827 24.3111L12.1201 21.3547C11.963 21.0826 11.615 20.9893 11.3429 21.1465Z" fill="#898BF8"/>
<g filter="url(#filter0_b_1530_12551)">
<path d="M18.3355 10.1194C18.1539 9.43832 18.9902 8.95548 19.4892 9.4533L21.8312 11.7895C22.0052 11.9632 22.2585 12.0311 22.4961 11.9677L25.6924 11.1154C26.3734 10.9338 26.8563 11.7701 26.3585 12.2691L24.0222 14.6111C23.8486 14.7851 23.7807 15.0384 23.844 15.276L24.6963 18.4723C24.8779 19.1533 24.0416 19.6362 23.5426 19.1384L21.2007 16.8021C21.0266 16.6285 20.7733 16.5606 20.5358 16.6239L17.3395 17.4762C16.6584 17.6579 16.1756 16.8215 16.6734 16.3225L19.0096 13.9806C19.1833 13.8065 19.2512 13.5532 19.1878 13.3157L18.3355 10.1194Z" fill="white"/>
</g>
<defs>
<filter id="filter0_b_1530_12551" x="12.2993" y="5.08052" width="18.4327" height="18.4327" filterUnits="userSpaceOnUse" color-interpolation-filters="sRGB">
<feFlood flood-opacity="0" result="BackgroundImageFix"/>
<feGaussianBlur in="BackgroundImageFix" stdDeviation="2.08474"/>
<feComposite in2="SourceAlpha" operator="in" result="effect1_backgroundBlur_1530_12551"/>
<feBlend mode="normal" in="SourceGraphic" in2="effect1_backgroundBlur_1530_12551" result="shape"/>
</filter>
</defs>
</svg>
