<svg width="177" height="135" viewBox="0 0 177 135" fill="none" xmlns="http://www.w3.org/2000/svg">
<g id="Group 39995">
<ellipse id="Ellipse 5256" cx="88.4998" cy="89.4671" rx="85.1044" ry="24.3239" transform="rotate(15 88.4998 89.4671)" fill="#EEEFFD"/>
<circle id="Ellipse 5207" cx="43.1778" cy="43.1778" r="43.1778" transform="matrix(1 0 0 -1 47.7471 86.3555)" fill="white"/>
<circle id="Ellipse 5257" cx="43.1778" cy="43.1778" r="43.1778" transform="matrix(1 0 0 -1 47.7471 86.3555)" fill="url(#paint0_linear_2192_15411)" fill-opacity="0.35"/>
<path id="Union" fill-rule="evenodd" clip-rule="evenodd" d="M126.686 60.1684C128.48 61.021 130.641 60.262 131.341 58.4034C134.496 50.0316 134.982 40.854 132.682 32.1471C130.074 22.2772 124.053 13.6506 115.688 7.79853C107.323 1.94649 97.1552 -0.752411 86.9892 0.180889C76.8233 1.11419 67.3168 5.61931 60.1573 12.8966C52.9978 20.1739 48.6483 29.7525 47.881 39.9323C47.1136 50.1122 49.978 60.2346 55.9657 68.5029C61.9534 76.7712 70.6771 82.6505 80.5883 85.0972C89.3315 87.2556 98.5 86.6196 106.819 83.3285C108.666 82.5978 109.39 80.4251 108.508 78.6453C107.626 76.8656 105.473 76.1562 103.615 76.856C96.8308 79.4098 89.4036 79.865 82.3121 78.1143C74.0519 76.0752 66.7814 71.1753 61.7912 64.2843C56.8009 57.3933 54.4136 48.9571 55.0531 40.473C55.6927 31.9889 59.3176 24.0058 65.2845 17.9408C71.2514 11.8758 79.1743 8.1211 87.6468 7.34327C96.1193 6.56544 104.593 8.81476 111.565 13.692C118.536 18.5692 123.554 25.7588 125.728 33.9846C127.594 41.0466 127.26 48.4802 124.817 55.3048C124.148 57.1748 124.892 59.3159 126.686 60.1684ZM118.397 69.6901C119.925 68.0251 122.513 67.9141 124.178 69.4423L144.724 88.2993C146.389 89.8274 146.5 92.416 144.972 94.0811C143.444 95.7461 140.855 95.857 139.19 94.3289L118.644 75.4719C116.979 73.9437 116.868 71.3551 118.397 69.6901ZM90.7004 22.174C92.9968 22.174 94.8585 24.0356 94.8585 26.3321V47.1228C94.8585 49.4193 92.9968 51.2809 90.7004 51.2809C88.4039 51.2809 86.5422 49.4193 86.5422 47.1228V26.3321C86.5422 24.0356 88.4039 22.174 90.7004 22.174ZM94.8604 59.5996C94.8604 61.8961 92.9987 63.7577 90.7023 63.7577C88.4058 63.7577 86.5441 61.8961 86.5441 59.5996C86.5441 57.3031 88.4058 55.4415 90.7023 55.4415C92.9987 55.4415 94.8604 57.3031 94.8604 59.5996Z" fill="url(#paint1_linear_2192_15411)"/>
</g>
<defs>
<linearGradient id="paint0_linear_2192_15411" x1="-0.628052" y1="22.599" x2="64.5161" y2="86.3571" gradientUnits="userSpaceOnUse">
<stop stop-color="#3B3EF1"/>
<stop offset="1" stop-color="#7376F0" stop-opacity="0"/>
</linearGradient>
<linearGradient id="paint1_linear_2192_15411" x1="83.1025" y1="86.6263" x2="130.605" y2="-30.3601" gradientUnits="userSpaceOnUse">
<stop stop-color="#3B3EF1"/>
<stop offset="0.783273" stop-color="#A3A5FF"/>
</linearGradient>
</defs>
</svg>
