<svg width="1224" height="161" viewBox="0 0 1224 161" fill="none" xmlns="http://www.w3.org/2000/svg">
<rect width="1224" height="161" rx="12" fill="#898BF8"/>
<path opacity="0.5" fill-rule="evenodd" clip-rule="evenodd" d="M201.742 10.4648C200.237 21.2782 196.457 31.7305 190.562 41.1011C180.999 56.2989 166.463 67.711 149.43 73.3929C132.397 79.0748 113.921 78.6748 97.1493 72.2613C80.378 65.8477 66.3493 53.8173 57.4536 38.2199C52.5315 29.5897 49.3494 20.1629 48 10.4648H63.8754C65.0986 17.4405 67.518 24.206 71.0787 30.4491C78.1765 42.8942 89.37 52.4933 102.752 57.6107C116.134 62.7281 130.876 63.0472 144.467 58.5136C158.057 53.98 169.656 44.8743 177.286 32.748C181.596 25.8974 184.489 18.3223 185.867 10.4648H201.742ZM1156.79 160.886H1140.06C1143.73 151.933 1145.74 142.312 1145.91 132.495C1146.22 115.128 1140.77 98.1711 1130.44 84.2609C1129.65 83.1908 1129.82 81.675 1130.87 80.8481L1139.4 74.1C1140.44 73.2731 1141.96 73.4484 1142.76 74.5144C1155.34 91.2768 1161.99 111.776 1161.61 132.775C1161.44 142.406 1159.8 151.88 1156.79 160.886ZM994.674 160.886H977.935C971.598 141.868 971.477 121.276 977.665 102.118C984.368 81.3652 998.059 63.5787 1016.41 51.789C1034.07 40.4347 1055.01 35.3189 1075.88 37.2123C1077.21 37.3327 1078.16 38.5342 1078 39.858L1076.74 50.6607C1076.59 51.9844 1075.39 52.9285 1074.06 52.8149C1056.8 51.338 1039.51 55.6085 1024.89 64.9988C1009.6 74.8246 998.193 89.6482 992.607 106.944C987.021 124.239 987.604 142.937 994.258 159.851C994.395 160.197 994.533 160.542 994.674 160.886ZM1087.82 160.886H1064.95L1060.35 154.359C1059.36 152.953 1057.7 152.18 1055.98 152.331L1020.68 155.44C1015.77 155.873 1013.45 149.528 1017.48 146.687L1046.45 126.275C1047.85 125.284 1048.62 123.62 1048.47 121.906L1045.36 86.6065C1044.93 81.6939 1051.28 79.3717 1054.12 83.4029L1074.53 112.369C1075.52 113.775 1077.18 114.548 1078.9 114.397L1114.2 111.288C1119.11 110.855 1121.43 117.2 1117.4 120.04L1088.43 140.453C1087.03 141.444 1086.26 143.108 1086.41 144.822L1087.82 160.886ZM1100.31 78.5562C1096.77 81.736 1091.25 78.4175 1092.4 73.8004L1103.76 28.1603C1105.7 20.3698 1114.56 16.6102 1121.51 20.6314L1133.46 27.5431C1140.55 31.649 1141.57 41.4829 1135.48 46.9615L1100.31 78.5562Z" fill="#D2D3F8" fill-opacity="0.32"/>
</svg>
