<svg width="43" height="56" viewBox="0 0 43 56" fill="none" xmlns="http://www.w3.org/2000/svg">
<path d="M9.75281 17.1461C14.8334 12.6428 13.4158 5.05818 11.7703 1.00281C11.5874 0.551969 11.9354 0.0548319 12.4172 0.12274C16.1442 0.648066 23.0293 2.57984 27.6854 7.23595C32.6487 12.1992 34.1281 23.1889 34.2802 28.6386C34.2898 28.9835 34.5717 29.2053 34.8427 28.9918C35.7877 28.2473 37.2637 26.1038 38.1976 24.6201C38.3871 24.3192 38.7859 24.2324 39.0329 24.4884C40.3027 25.8048 42.1573 29.432 42.1573 36.4944C42.1573 46.5618 31.7753 56 19.0337 56C6.29213 56 0 45.4607 0 36.4944C0 27.5281 2.83146 23.2809 9.75281 17.1461Z" fill="#9799F9"/>
<path d="M7.52758 46.8784C6.02154 42.7714 7.61349 38.1481 8.98501 35.186C9.20911 34.702 9.92828 34.7088 10.2391 35.1423C10.7649 35.8754 11.4112 36.4973 11.9715 36.952C12.3513 37.2602 12.8787 36.9722 12.9079 36.4839C13.4044 28.1806 19.395 23.6994 23.0741 22.1705C23.4696 22.0061 23.8861 22.3085 23.8957 22.7367C24.0961 31.7185 27.4188 33.3273 29.7064 37.5975C31.594 41.1211 31.1221 45.253 30.6502 46.8784C29.8281 49.7099 25.7109 53.9571 20.4255 53.9571C13.8187 53.9571 9.27156 51.6343 7.52758 46.8784Z" fill="#5C5FFA"/>
</svg>
