<svg width="182" height="142" viewBox="0 0 182 142" fill="none" xmlns="http://www.w3.org/2000/svg">
<path opacity="0.6" fill-rule="evenodd" clip-rule="evenodd" d="M118.888 53.5265C117.601 57.2484 121.907 60.3907 125.059 58.0297L164.941 28.1564C170.371 24.0886 170.252 15.9058 164.705 11.9983L150.265 1.82692C144.833 -1.99987 137.247 0.447064 135.075 6.72713L118.888 53.5265ZM108.755 17.4502C108.979 16.3702 108.286 15.3102 107.202 15.1093C87.264 11.4172 66.6415 14.511 48.642 23.9298C30.052 33.6576 15.41 49.5304 7.21102 68.8435C-0.988007 88.1566 -2.23683 109.715 3.67733 129.846C9.59149 149.976 22.3027 167.434 39.6452 179.243C56.9876 191.052 77.8882 196.483 98.7859 194.61C119.683 192.736 139.285 183.675 154.251 168.97C169.217 154.264 178.62 134.825 180.86 113.963C183.029 93.7645 178.351 73.4426 167.61 56.2445C167.026 55.3088 165.786 55.0524 164.863 55.6572L155.57 61.7494C154.647 62.3542 154.392 63.5912 154.973 64.5294C163.799 78.8024 167.635 95.6272 165.84 112.351C163.973 129.737 156.136 145.939 143.663 158.194C131.19 170.45 114.854 178.002 97.4371 179.563C80.0206 181.124 62.6016 176.598 48.148 166.756C33.6944 156.914 23.1006 142.365 18.1717 125.587C13.2427 108.81 14.2835 90.8428 21.1167 74.7469C27.9499 58.6509 40.1528 45.4223 55.6462 37.3149C70.5488 29.5166 87.6089 26.9207 104.123 29.9038C105.209 30.0999 106.267 29.4093 106.491 28.3293L108.755 17.4502ZM73.4077 57.3596C73.4126 53.2776 78.8144 51.8302 80.8597 55.3628L99.3358 87.275C100.049 88.5072 101.364 89.2665 102.788 89.2682L139.663 89.3129C143.745 89.3179 145.192 94.7196 141.66 96.7649L109.748 115.241C108.515 115.954 107.756 117.27 107.754 118.693L107.71 155.568C107.705 159.65 102.303 161.098 100.258 157.565L81.7815 125.653C81.0681 124.421 79.7529 123.661 78.3292 123.66L41.4543 123.615C37.3724 123.61 35.9249 118.208 39.4576 116.163L71.3698 97.6868C72.6019 96.9734 73.3613 95.6582 73.363 94.2344L73.4077 57.3596Z" fill="#898BF8"/>
</svg>
