<svg width="56" height="54" viewBox="0 0 56 54" fill="none" xmlns="http://www.w3.org/2000/svg">
<path d="M18.176 1.96765L15.241 16.6429C15.1326 17.185 14.5588 17.4958 14.0455 17.2905L4.09729 13.3112C3.3225 13.0013 2.58907 13.8385 2.99818 14.5658L9.34114 25.8421C9.56109 26.2331 9.45336 26.7269 9.09053 26.9908L1.22697 32.7097C0.67907 33.1082 0.764404 33.9495 1.38116 34.2299L8.73619 37.5731C9.24705 37.8053 9.4152 38.4485 9.08335 38.901L1.91492 48.6761C1.38256 49.4021 2.14889 50.3664 2.97633 50.0118L17.7486 43.6809C18.2006 43.4871 18.7239 43.6995 18.9131 44.1535L22.2478 52.1567C22.539 52.8555 23.5164 52.8892 23.8549 52.2121L27.79 44.342C28.0473 43.8274 28.7196 43.6917 29.1564 44.0661L39.2165 52.689C39.7901 53.1806 40.6762 52.7731 40.6762 52.0176V39.156C40.6762 38.5807 41.2168 38.1586 41.7749 38.2981L49.3452 40.1907C50.0904 40.377 50.7024 39.5899 50.3383 38.9136L45.6367 30.182C45.3633 29.6742 45.6413 29.0448 46.2008 28.9049L53.3897 27.1077C54.1861 26.9086 54.305 25.8261 53.5707 25.4589L45.9673 21.6573C45.5009 21.4241 45.3366 20.8399 45.6129 20.3977L52.6058 9.20913C53.0486 8.5006 52.3525 7.62983 51.5638 7.90585L37.1698 12.9438C36.6786 13.1157 36.146 12.8284 36.0198 12.3236L34.1818 4.97182C33.9827 4.17538 32.9002 4.05654 32.5331 4.79083L28.9441 11.9687C28.6483 12.5604 27.8313 12.6297 27.4401 12.0962L19.7562 1.61815C19.3015 0.998133 18.3268 1.21372 18.176 1.96765Z" fill="#898BF8"/>
<path d="M22.2229 12.6568L20.4908 21.3176C20.4268 21.6376 20.0882 21.821 19.7852 21.6998L13.9142 19.3514C13.4569 19.1685 13.0241 19.6626 13.2655 20.0918L17.0089 26.7467C17.1387 26.9775 17.0751 27.2689 16.861 27.4246L12.2202 30.7997C11.8969 31.0349 11.9472 31.5314 12.3112 31.6968L16.6519 33.6699C16.9534 33.8069 17.0526 34.1865 16.8568 34.4536L12.6262 40.2225C12.312 40.6509 12.7643 41.2201 13.2526 41.0108L21.9706 37.2745C22.2375 37.1601 22.5463 37.2855 22.6579 37.5534L24.6259 42.2766C24.7978 42.689 25.3746 42.7089 25.5744 42.3093L27.8967 37.6646C28.0486 37.361 28.4454 37.2809 28.7031 37.5018L34.6402 42.5907C34.9788 42.8809 35.5017 42.6404 35.5017 42.1945V34.604C35.5017 34.2645 35.8208 34.0154 36.1502 34.0978L40.6179 35.2147C41.0577 35.3246 41.4189 34.8601 41.2039 34.461L38.4292 29.308C38.2678 29.0083 38.4319 28.6368 38.7621 28.5543L43.0048 27.4936C43.4748 27.3761 43.5449 26.7372 43.1116 26.5206L38.6244 24.2769C38.3491 24.1393 38.2521 23.7946 38.4152 23.5336L42.5421 16.9305C42.8035 16.5124 42.3926 15.9985 41.9272 16.1614L33.4324 19.1346C33.1425 19.236 32.8282 19.0665 32.7537 18.7686L31.669 14.4298C31.5515 13.9598 30.9126 13.8896 30.6959 14.323L28.5779 18.5591C28.4033 18.9083 27.9211 18.9492 27.6903 18.6344L23.1555 12.4506C22.8872 12.0847 22.3119 12.2119 22.2229 12.6568Z" fill="#5C5FFA"/>
</svg>
