<svg width="75" height="41" viewBox="0 0 75 41" fill="none" xmlns="http://www.w3.org/2000/svg">
<path d="M6.9502 8.58984C6.84766 7.61914 5.94531 7.05859 4.7627 7.05859C3.4502 7.05859 2.5957 7.74219 2.58887 8.68555C2.5957 9.72461 3.75098 10.1143 4.50293 10.2988L5.4873 10.5723C6.54688 10.8457 8.29004 11.4541 8.29004 13.3066C8.29004 14.9199 6.99121 16.1709 4.69434 16.1777C2.56152 16.1709 1.24219 15.0703 1.12598 13.4297H2.38379C2.48633 14.5371 3.51855 15.0635 4.69434 15.0566C6.06152 15.0635 7.08691 14.3594 7.08691 13.2793C7.08691 12.3154 6.1709 11.9463 5.13184 11.6523L3.91504 11.3242C2.36328 10.873 1.39258 10.0801 1.39941 8.74023C1.39258 7.06543 2.88281 5.96484 4.80371 5.96484C6.72461 5.96484 8.10547 7.08594 8.15332 8.58984H6.9502ZM12.9385 16.1504C10.833 16.1572 9.54785 14.5508 9.54785 12.3223C9.54785 10.0664 10.8945 8.48047 12.9111 8.48047C14.4902 8.48047 15.6797 9.41699 15.8643 10.8184H14.6885C14.5176 10.1416 13.9297 9.51953 12.9385 9.51953C11.6123 9.51953 10.7305 10.6133 10.7236 12.2812C10.7305 13.9971 11.5918 15.0977 12.9385 15.0977C13.8135 15.0977 14.4834 14.626 14.6885 13.8125H15.8643C15.6797 15.1387 14.5859 16.1572 12.9385 16.1504ZM17.3135 16V8.57617H18.4482V9.71094H18.5303C18.7969 8.95898 19.5693 8.45996 20.4443 8.45312C20.6221 8.45996 20.9229 8.4668 21.0596 8.48047V9.66992C20.9707 9.64941 20.6562 9.58789 20.3486 9.58789C19.2822 9.58789 18.4893 10.3262 18.4893 11.3242V16H17.3135ZM24.9971 16.1504C22.9736 16.1572 21.6064 14.626 21.6064 12.3223C21.6064 10.0049 22.9736 8.48047 24.9971 8.48047C27.0137 8.48047 28.3672 10.0049 28.3604 12.3223C28.3672 14.626 27.0137 16.1572 24.9971 16.1504ZM22.7822 12.3223C22.7891 13.8057 23.4863 15.1113 24.9971 15.1113C26.4941 15.1113 27.1846 13.8057 27.1846 12.3223C27.1846 10.8457 26.4941 9.51953 24.9971 9.51953C23.4863 9.51953 22.7891 10.8457 22.7822 12.3223ZM31.0811 6.10156V16H29.9053V6.10156H31.0811ZM34.1299 6.10156V16H32.9541V6.10156H34.1299ZM42.7432 16H39.667V6.10156H42.8662C45.7578 6.10156 47.46 7.9541 47.46 11.0371C47.46 14.127 45.7578 16 42.7432 16ZM40.8975 14.9062H42.6611C45.0879 14.9062 46.2568 13.4365 46.2568 11.0371C46.2568 8.64453 45.0879 7.19531 42.7842 7.19531H40.8975V14.9062ZM52.1494 16.1504C50.126 16.1572 48.7588 14.626 48.7588 12.3223C48.7588 10.0049 50.126 8.48047 52.1494 8.48047C54.166 8.48047 55.5195 10.0049 55.5127 12.3223C55.5195 14.626 54.166 16.1572 52.1494 16.1504ZM49.9346 12.3223C49.9414 13.8057 50.6387 15.1113 52.1494 15.1113C53.6465 15.1113 54.3369 13.8057 54.3369 12.3223C54.3369 10.8457 53.6465 9.51953 52.1494 9.51953C50.6387 9.51953 49.9414 10.8457 49.9346 12.3223ZM58.4795 16L56.2236 8.57617H57.4678L59.0537 14.2363H59.1221L60.6943 8.57617H61.9521L63.4971 14.209H63.5791L65.165 8.57617H66.3955L64.1396 16H62.9775L61.3643 10.3398H61.2549L59.6553 16H58.4795ZM68.8701 11.543V16H67.6943V8.57617H68.8291V9.73828H68.9248C69.2734 8.97949 69.9707 8.48047 71.0986 8.48047C72.6025 8.48047 73.6074 9.39648 73.6006 11.2832V16H72.4248V11.3652C72.4248 10.2168 71.7959 9.5332 70.7432 9.5332C69.6631 9.5332 68.8701 10.2578 68.8701 11.543Z" fill="#404079"/>
<path opacity="0.4" d="M28 34.667L36.3035 40.2027C36.4225 40.282 36.5775 40.282 36.6965 40.2027L45 34.667" stroke="#404079" stroke-linecap="round" stroke-linejoin="round"/>
<path opacity="0.6" d="M28 29L36.3035 34.5357C36.4225 34.615 36.5775 34.615 36.6965 34.5357L45 29" stroke="#404079" stroke-linecap="round" stroke-linejoin="round"/>
</svg>
