<svg width="182" height="189" viewBox="0 0 182 189" fill="none" xmlns="http://www.w3.org/2000/svg">
<g filter="url(#filter0_d_2400_14122)">
<rect x="7" y="6" width="164" height="171" rx="8.26158" fill="#F9F9FA"/>
<path d="M48.0509 31.3996V38.2735H51.1006V40.5003H48.0509V47.7372H45.3643V31.3996H48.0509ZM30.8178 35.9742V33.82H35.9732V31.3754H38.6598V33.82H43.791V35.9742H30.8178ZM31.9311 41.057C31.9311 38.5398 34.1216 36.8697 37.3044 36.8697C40.463 36.8697 42.6413 38.5398 42.6534 41.057C42.6413 43.5621 40.463 45.1958 37.3044 45.1958C34.1216 45.1958 31.9311 43.5621 31.9311 41.057ZM34.0369 52.82V46.4544H36.7235V50.6417H48.9222V52.82H34.0369ZM34.5452 41.057C34.5331 42.3761 35.6464 43.1264 37.3044 43.1143C38.9624 43.1264 40.0878 42.3761 40.0878 41.057C40.0878 39.7258 38.9624 38.9512 37.3044 38.9512C35.6464 38.9512 34.5331 39.7258 34.5452 41.057ZM78.0395 40.234V42.364H69.3745V44.034H75.5465V49.4073H63.1057V51.0047H76.1516V53.0621H60.4675V47.5194H72.9083V46.043H60.4433V44.034H66.7121V42.364H58.0955V40.234H78.0395ZM59.0637 37.4264C63.0936 37.1359 65.7318 35.7563 66.3369 34.1347H59.9108V32.0531H76.2484V34.1347H69.7618C70.3548 35.7442 73.0172 37.1359 77.0955 37.4264L76.2484 39.4595C72.3274 39.1449 69.3624 37.8258 68.0433 35.8773C66.7242 37.8258 63.7955 39.1449 59.9108 39.4595L59.0637 37.4264ZM105.341 44.5181V46.7207H96.6764V53.2799H94.014V46.7207H85.3974V44.5181H105.341ZM86.4866 41.057C90.8554 40.5245 93.7236 38.2856 93.9898 36.0952H87.2369V33.9652H94.014V31.3996H96.6764V33.9652H103.478V36.0952H96.7248C96.979 38.2614 99.835 40.5245 104.204 41.057L103.211 43.1869C99.593 42.727 96.7854 41.1417 95.3694 39.0359C93.9414 41.1659 91.0975 42.727 87.4548 43.1869L86.4866 41.057ZM114.684 36.555C114.672 39.157 116.499 41.6863 119.961 42.7512L118.654 44.857C116.173 44.1188 114.369 42.5334 113.377 40.5245C112.409 42.6907 110.606 44.3971 108.052 45.22L106.745 43.1143C110.194 42.0372 111.997 39.3627 111.997 36.555V36.2162H107.423V34.0863H111.997V31.5206H114.708V34.0863H119.259V36.2162H114.684V36.555ZM110.787 52.82V46.2366H113.474V50.6417H125.697V52.82H110.787ZM118.533 40.0646V37.9105H122.454V31.3996H125.14V47.6404H122.454V40.0646H118.533ZM136.056 36.6277C136.032 40.5366 137.992 44.4818 141.381 46.1156L139.735 48.2697C137.363 47.0716 135.657 44.7602 134.725 41.9767C133.769 44.9538 131.978 47.4226 129.473 48.6812L127.827 46.527C131.348 44.857 133.357 40.6697 133.369 36.6277V33.1423H136.056V36.6277ZM142.688 53.2557V31.3754H145.375V39.9436H148.739V42.243H145.375V53.2557H142.688Z" fill="#404079"/>
<path d="M68.124 104.384C63.6342 104.384 60.415 101.913 60.3303 98.341H64.6225C64.6931 99.8659 66.1756 100.868 68.1522 100.882C70.1853 100.868 71.6396 99.7388 71.6255 98.0869C71.6396 96.4209 70.1571 95.249 67.7569 95.2349H65.8649V92.1005H67.7569C69.7759 92.1005 71.1878 90.9992 71.1737 89.3897C71.1878 87.8225 69.9877 86.7494 68.1804 86.7635C66.3732 86.7494 64.8907 87.766 64.8201 89.3332H60.7539C60.8245 85.8176 63.9871 83.375 68.1804 83.375C72.4444 83.375 75.2823 85.9023 75.2681 89.1355C75.2823 91.4228 73.6868 93.0465 71.3996 93.4559V93.6253C74.4069 93.9924 76.0588 95.8138 76.0306 98.3693C76.0588 101.871 72.7409 104.384 68.124 104.384ZM79.0238 104.102L78.9955 101.024L86.3374 94.2748C88.2434 92.4535 89.2741 91.3239 89.2741 89.7003C89.2741 87.8789 87.9046 86.7494 86.0267 86.7635C84.1066 86.7494 82.85 87.9636 82.8641 89.9262H78.8261C78.812 85.9305 81.777 83.375 86.0832 83.375C90.4601 83.375 93.3686 85.874 93.3686 89.4179C93.3686 91.7475 92.2391 93.6536 88.0316 97.4657L84.9255 100.487V100.6H93.651V104.102H79.0238ZM117.992 81.003V106.699H114.519V93.6253H112.175V105.57H108.815V81.6807H112.175V90.7451H114.519V81.003H117.992ZM95.5147 98.934C100.753 95.8561 103.012 92.0864 103.492 87.0459H96.8136V84.1657H107.007C106.993 91.3381 104.847 97.2115 97.6043 101.419L95.5147 98.934Z" fill="#404079"/>
<rect x="44.7383" y="124.102" width="89.5232" height="35.0654" rx="4.13079" fill="#898BF8"/>
<path d="M60.3041 135.6C60.3041 137.89 61.7866 140.058 64.6003 140.945L63.3901 142.7C61.4235 142.034 60.0116 140.703 59.2149 139.009C58.4283 140.945 56.9559 142.468 54.8582 143.204L53.648 141.45C56.5828 140.431 58.0552 138.001 58.0653 135.399V133.664H60.3041V135.6ZM56.1289 147.44C56.1289 145.282 58.4989 144.001 62.3009 144.011C66.0727 144.001 68.4023 145.282 68.4124 147.44C68.4023 149.649 66.0727 150.909 62.3009 150.909C58.4989 150.909 56.1289 149.649 56.1289 147.44ZM58.3678 147.44C58.3678 148.57 59.7999 149.134 62.3009 149.134C64.7919 149.134 66.1937 148.57 66.1937 147.44C66.1937 146.371 64.7919 145.766 62.3009 145.766C59.7999 145.766 58.3678 146.371 58.3678 147.44ZM65.992 143.608V132.696H68.2309V137.133H70.7723V138.989H68.2309V143.608H65.992ZM77.6502 133.503C80.4236 133.493 82.4305 135.046 82.4305 137.335C82.4305 139.584 80.4236 141.157 77.6502 141.147C74.9071 141.157 72.9103 139.584 72.9103 137.335C72.9103 135.046 74.9071 133.493 77.6502 133.503ZM71.7203 142.398C75.0079 142.398 79.6168 142.337 83.5398 141.752L83.7012 143.406C82.1279 143.709 80.4942 143.9 78.9007 144.021V150.365H76.6417V144.152C74.9575 144.223 73.3742 144.243 72.0026 144.253L71.7203 142.398ZM75.0886 137.335C75.0785 138.555 76.1576 139.322 77.6502 139.312C79.2033 139.322 80.2925 138.555 80.2925 137.335C80.2925 136.074 79.2033 135.298 77.6502 135.318C76.1576 135.298 75.0785 136.074 75.0886 137.335ZM84.7298 150.909V132.716H86.9485V150.909H84.7298ZM100.24 149.336C97.3259 149.336 95.1778 147.591 95.0971 145.181H97.6587C97.7394 146.361 98.8588 147.208 100.24 147.218C101.874 147.208 103.054 146.028 103.044 144.415C103.054 142.74 101.844 141.56 100.16 141.55C99.0202 141.54 98.1932 141.944 97.7394 142.801H95.2988L96.1863 134.531H104.819V136.73H98.3445L97.9008 140.602H98.0419C98.6067 139.967 99.6656 139.503 100.866 139.493C103.579 139.503 105.596 141.52 105.585 144.334C105.596 147.248 103.397 149.336 100.24 149.336ZM111.394 141.651C109.317 141.661 108.177 140.118 108.187 137.879C108.177 135.661 109.367 134.128 111.394 134.128C113.502 134.128 114.611 135.661 114.622 137.879C114.611 140.139 113.462 141.661 111.394 141.651ZM110.043 137.879C110.053 139.191 110.507 140.038 111.394 140.038C112.312 140.038 112.746 139.191 112.746 137.879C112.746 136.609 112.342 135.731 111.394 135.741C110.507 135.741 110.053 136.619 110.043 137.879ZM110.063 149.134L120.108 134.531H122.145L112.1 149.134H110.063ZM117.728 145.766C117.718 143.537 118.908 141.994 120.935 141.994C123.032 141.994 124.152 143.537 124.162 145.766C124.152 148.005 123.002 149.528 120.935 149.518C118.857 149.528 117.718 147.985 117.728 145.766ZM119.583 145.766C119.593 147.057 120.047 147.914 120.935 147.904C121.852 147.914 122.286 147.057 122.286 145.766C122.286 144.475 121.883 143.598 120.935 143.608C120.047 143.618 119.593 144.485 119.583 145.766Z" fill="white"/>
</g>
<defs>
<filter id="filter0_d_2400_14122" x="0.700545" y="0.733243" width="180.73" height="187.73" filterUnits="userSpaceOnUse" color-interpolation-filters="sRGB">
<feFlood flood-opacity="0" result="BackgroundImageFix"/>
<feColorMatrix in="SourceAlpha" type="matrix" values="0 0 0 0 0 0 0 0 0 0 0 0 0 0 0 0 0 0 127 0" result="hardAlpha"/>
<feOffset dx="2.0654" dy="3.09809"/>
<feGaussianBlur stdDeviation="4.18243"/>
<feComposite in2="hardAlpha" operator="out"/>
<feColorMatrix type="matrix" values="0 0 0 0 0.346385 0 0 0 0 0.348401 0 0 0 0 0.458302 0 0 0 0.46 0"/>
<feBlend mode="normal" in2="BackgroundImageFix" result="effect1_dropShadow_2400_14122"/>
<feBlend mode="normal" in="SourceGraphic" in2="effect1_dropShadow_2400_14122" result="shape"/>
</filter>
</defs>
</svg>
