<svg width="452" height="102" viewBox="0 0 452 102" fill="none" xmlns="http://www.w3.org/2000/svg">
<g filter="url(#filter0_d_2400_14121)">
<mask id="path-1-inside-1_2400_14121" fill="white">
<path fill-rule="evenodd" clip-rule="evenodd" d="M43.8603 6C32.0399 6 22.4575 15.5823 22.4575 27.4028V35.1676C22.4575 36.442 21.7776 37.6196 20.674 38.2568L8.78356 45.1217C6.40548 46.4947 6.40548 49.9272 8.78356 51.3002L20.674 58.1651C21.7776 58.8023 22.4575 59.9799 22.4575 61.2543V69.0192C22.4575 80.8396 32.0398 90.4219 43.8603 90.4219H419.597C431.418 90.4219 441 80.8396 441 69.0192V27.4027C441 15.5823 431.418 6 419.597 6H43.8603Z"/>
</mask>
<path fill-rule="evenodd" clip-rule="evenodd" d="M43.8603 6C32.0399 6 22.4575 15.5823 22.4575 27.4028V35.1676C22.4575 36.442 21.7776 37.6196 20.674 38.2568L8.78356 45.1217C6.40548 46.4947 6.40548 49.9272 8.78356 51.3002L20.674 58.1651C21.7776 58.8023 22.4575 59.9799 22.4575 61.2543V69.0192C22.4575 80.8396 32.0398 90.4219 43.8603 90.4219H419.597C431.418 90.4219 441 80.8396 441 69.0192V27.4027C441 15.5823 431.418 6 419.597 6H43.8603Z" fill="#F5F5FE"/>
<path d="M20.674 58.1651L20.0795 59.1948L20.674 58.1651ZM8.78356 51.3002L9.37808 50.2704L8.78356 51.3002ZM20.674 38.2568L20.0794 37.2271L20.674 38.2568ZM23.6466 27.4028C23.6466 16.239 32.6966 7.18904 43.8603 7.18904V4.81096C31.3832 4.81096 21.2685 14.9257 21.2685 27.4028H23.6466ZM23.6466 35.1676V27.4028H21.2685V35.1676H23.6466ZM9.37808 46.1515L21.2685 39.2866L20.0794 37.2271L8.18904 44.092L9.37808 46.1515ZM21.2685 57.1354L9.37808 50.2704L8.18904 52.3299L20.0795 59.1948L21.2685 57.1354ZM23.6466 69.0192V61.2543H21.2685V69.0192H23.6466ZM43.8603 89.2329C32.6965 89.2329 23.6466 80.1829 23.6466 69.0192H21.2685C21.2685 81.4963 31.3832 91.611 43.8603 91.611V89.2329ZM419.597 89.2329H43.8603V91.611H419.597V89.2329ZM439.811 69.0192C439.811 80.1829 430.761 89.2329 419.597 89.2329V91.611C432.074 91.611 442.189 81.4963 442.189 69.0192H439.811ZM439.811 27.4027V69.0192H442.189V27.4027H439.811ZM419.597 7.18904C430.761 7.18904 439.811 16.239 439.811 27.4027H442.189C442.189 14.9256 432.074 4.81096 419.597 4.81096V7.18904ZM43.8603 7.18904H419.597V4.81096H43.8603V7.18904ZM20.0795 59.1948C20.8152 59.6197 21.2685 60.4047 21.2685 61.2543H23.6466C23.6466 59.5551 22.7401 57.985 21.2685 57.1354L20.0795 59.1948ZM8.18904 44.092C5.01826 45.9226 5.01826 50.4993 8.18904 52.3299L9.37808 50.2704C7.79269 49.3551 7.79269 47.0668 9.37808 46.1515L8.18904 44.092ZM21.2685 35.1676C21.2685 36.0172 20.8152 36.8023 20.0794 37.2271L21.2685 39.2866C22.7401 38.4369 23.6466 36.8668 23.6466 35.1676H21.2685Z" fill="#EEEFFD" fill-opacity="0.28" mask="url(#path-1-inside-1_2400_14121)"/>
</g>
<path d="M65.2089 36.7053C65.2089 43.3936 60.8336 47.964 53.2534 49.9148L51.8879 47.1558C57.6008 45.6928 60.8336 42.8781 61.3909 39.4642H53.3649V36.7053H65.2089ZM56.0681 60.2817V50.4443H72.9841V60.2817H56.0681ZM59.6074 57.4949H69.5005V53.2311H59.6074V57.4949ZM69.4169 49.4132V35.2561H72.9841V49.4132H69.4169ZM97.8982 35.2561V54.4016H94.3311V52.395H89.482V49.9705H94.3311V35.2561H97.8982ZM76.3282 46.487C80.9683 46.4591 87.2386 46.3895 92.6032 45.7346L92.7983 48.2706C90.7918 48.605 88.7156 48.8419 86.6673 48.9951V53.8163H83.1002V57.2998H98.4556V60.1424H79.5609V52.5623H83.1002V49.2041C80.829 49.2877 78.6692 49.3017 76.7463 49.3017L76.3282 46.487ZM78.1954 40.6626C78.1954 37.9593 80.8011 36.1061 84.5772 36.12C88.2558 36.1061 90.8894 37.9593 90.9033 40.6626C90.8894 43.3797 88.2558 45.1354 84.5772 45.1215C80.8011 45.1354 78.1954 43.3797 78.1954 40.6626ZM81.5675 40.6626C81.5535 41.8888 82.7658 42.5715 84.5772 42.5576C86.2772 42.5715 87.5034 41.8888 87.5312 40.6626C87.5034 39.4085 86.2772 38.7118 84.5772 38.7118C82.7658 38.7118 81.5535 39.4085 81.5675 40.6626ZM113.309 39.1019V41.9166H101.047V39.1019H105.45V35.925H108.962V39.1019H113.309ZM101.633 49.0787C101.633 45.5534 104.001 43.0732 107.234 43.0592C110.481 43.0732 112.794 45.5534 112.808 49.0787C112.794 52.618 110.481 55.1261 107.234 55.1261C104.001 55.1261 101.633 52.618 101.633 49.0787ZM104.754 49.0787C104.754 51.0156 105.757 52.1164 107.234 52.1164C108.655 52.1164 109.672 51.0156 109.686 49.0787C109.672 47.1698 108.655 46.0132 107.234 46.0132C105.757 46.0132 104.754 47.1698 104.754 49.0787ZM114.257 59.5014V35.7299H117.573V45.5395H119.635V35.2283H123.007V60.5883H119.635V48.382H117.573V59.5014H114.257ZM146.946 35.2283V49.4689H143.407V35.2283H146.946ZM127.188 48.2148V36.6774H130.755V45.2469C134.601 45.2051 137.847 44.9264 141.261 44.2018L141.679 47.0722C137.736 47.9083 133.946 48.2148 129.389 48.2148H127.188ZM130.002 60.2817V50.5H146.946V60.2817H130.002ZM133.486 57.4949H143.463V53.2868H133.486V57.4949ZM171.637 35.2283V60.644H168.042V35.2283H171.637ZM151.154 46.0411C151.14 40.5093 153.969 37.0118 157.87 37.0118C161.688 37.0118 164.531 40.5093 164.531 46.0411C164.531 51.6147 161.688 55.0983 157.87 55.0983C153.969 55.0983 151.14 51.6147 151.154 46.0411ZM154.582 46.0411C154.568 49.8172 155.892 51.8795 157.87 51.8656C159.793 51.8795 161.089 49.8172 161.103 46.0411C161.089 42.2789 159.793 40.2167 157.87 40.2167C155.892 40.2167 154.568 42.2789 154.582 46.0411ZM195.325 36.6774V39.52H186.603V41.4986H194.573V44.2297H186.603V46.3198C191.075 46.3059 193.904 46.2362 197.109 45.7067L197.471 48.4656C193.862 49.0927 190.629 49.1484 185.209 49.1345H183.035V36.6774H195.325ZM185.878 60.3096V51.3361H202.878V60.3096H185.878ZM189.389 57.4671H199.394V54.095H189.389V57.4671ZM199.31 50.3049V35.2561H202.878V50.3049H199.31ZM233.003 35.2283V41.3314H236.431V44.2854H233.003V50.082H229.436V35.2283H233.003ZM212.882 40.2445V37.4577H218.651V35.0611H222.19V37.4577H227.931V40.2445H212.882ZM214.108 45.4559C214.108 42.7527 216.672 40.9691 220.407 40.9691C224.099 40.9691 226.649 42.7527 226.649 45.4559C226.649 48.1591 224.099 49.9427 220.407 49.9427C216.672 49.9427 214.108 48.1591 214.108 45.4559ZM216.394 60.3096V51.0574H219.933V52.9803H229.436V51.0574H233.003V60.3096H216.394ZM217.592 45.4559C217.578 46.6821 218.707 47.337 220.407 47.3509C222.12 47.337 223.277 46.6821 223.277 45.4559C223.277 44.2715 222.12 43.5608 220.407 43.5887C218.707 43.5608 217.578 44.2715 217.592 45.4559ZM219.933 57.5228H229.436V55.7114H219.933V57.5228ZM260.732 50.1099V52.8967H255.381V60.5883H251.786V52.8967H246.491V60.5883H242.952V52.8967H237.518V50.1099H260.732ZM240.193 38.879V35.9807H258.056V43.3658H243.872V45.428H258.642V48.2706H240.277V40.774H254.406V38.879H240.193ZM285.395 46.5985V49.2459H262.181V46.5985H285.395ZM264.828 52.9524V50.5H282.608V56.4917H268.396V57.9408H283.361V60.3653H264.856V54.2343H279.097V52.9524H264.828ZM265.023 38.0987V35.6742H282.58V41.6379H268.618V43.0035H283.026V45.4001H265.079V39.3806H279.013V38.0987H265.023ZM314.685 35.2561V53.7606H311.117V35.2561H314.685ZM293.365 47.4903C297.615 46.069 299.469 42.5437 299.469 39.1019V36.6495H303.175V39.1019C303.147 42.4601 304.945 45.7346 309.111 47.0722L307.299 49.859C304.429 48.9115 302.464 47.0165 301.336 44.6059C300.193 47.1976 298.173 49.2877 295.205 50.3049L293.365 47.4903ZM297.685 60.1424V51.977H301.28V57.2998H315.353V60.1424H297.685ZM332.576 37.8757V40.6626H327.448C327.49 43.2682 329.385 45.9157 333.468 46.9608L331.823 49.6918C328.925 48.9673 326.905 47.3648 325.748 45.3026C324.647 47.6435 322.613 49.4968 319.617 50.3607L317.945 47.6017C322 46.4313 323.881 43.533 323.909 40.6626H318.809V37.8757H323.909V35.1168H327.504V37.8757H332.576ZM322.097 55.7392C322.097 52.7016 325.442 50.9877 330.82 50.9738C336.227 50.9877 339.557 52.7016 339.571 55.7392C339.557 58.8187 336.227 60.6022 330.82 60.5883C325.442 60.6022 322.097 58.8187 322.097 55.7392ZM325.637 55.7392C325.637 57.1326 327.462 57.8851 330.82 57.8851C334.248 57.8851 336.018 57.1326 336.032 55.7392C336.018 54.3876 334.248 53.7049 330.82 53.7049C327.462 53.7049 325.637 54.3876 325.637 55.7392ZM331.823 44.8706V42.0281H335.948V35.2283H339.487V50.5557H335.948V44.8706H331.823ZM364.569 35.2561V50.8623H361.196V44.6198H359.218V50.5836H355.902V35.5906H359.218V41.7494H361.196V35.2561H364.569ZM342.636 40.4675V37.6528H347.123V35.3676H350.662V37.6528H355.093V40.4675H342.636ZM343.417 45.7067C343.403 43.0453 345.73 41.2757 348.907 41.2757C352.125 41.2757 354.438 43.0453 354.452 45.7067C354.438 48.3124 352.125 50.1238 348.907 50.1377C345.73 50.1238 343.403 48.3124 343.417 45.7067ZM344.197 57.6343C347.485 56.6867 348.962 54.4016 348.962 52.1721V51.6426H352.502V52.1721C352.474 54.0253 353.31 55.9343 355.302 57.2023C357.323 55.8646 358.215 53.8721 358.242 52.1721V51.6426H361.782V52.1721C361.754 54.527 363.175 56.7843 366.547 57.6343L364.903 60.2817C362.451 59.5293 360.834 58.0523 359.942 56.1851C359.134 58.0523 357.671 59.6965 355.372 60.5325C353.017 59.7104 351.526 58.1638 350.704 56.3105C349.798 58.0941 348.196 59.5293 345.869 60.2817L344.197 57.6343ZM346.594 45.7067C346.58 46.8911 347.513 47.5739 348.907 47.5739C350.286 47.5739 351.234 46.8911 351.248 45.7067C351.234 44.4666 350.286 43.8117 348.907 43.8117C347.527 43.8117 346.58 44.4666 346.594 45.7067ZM374.434 37.0118C377.862 37.0118 380.426 39.8265 380.927 44.3969H385.33V35.2283H388.842V60.644H385.33V47.2394H380.969C380.593 52.1164 377.973 55.0983 374.434 55.0983C370.588 55.0983 367.829 51.6147 367.857 46.0411C367.829 40.5093 370.588 37.0118 374.434 37.0118ZM371.257 46.0411C371.243 49.8172 372.539 51.8795 374.434 51.8656C376.343 51.8795 377.611 49.8172 377.611 46.0411C377.611 42.2789 376.343 40.2167 374.434 40.2167C372.539 40.2167 371.243 42.2789 371.257 46.0411ZM415.316 54.7081V57.6343H392.102V54.7081H397.286V48.4935C395.321 47.3091 394.137 45.5116 394.137 43.2822C394.137 39.1716 398.15 36.4684 403.668 36.4545C409.158 36.4684 413.212 39.1716 413.226 43.2822C413.212 45.4698 412.07 47.2394 410.161 48.4238V54.7081H415.316ZM397.648 43.2822C397.648 45.7624 400.031 47.2952 403.668 47.2952C407.249 47.2952 409.701 45.7624 409.715 43.2822C409.701 40.7322 407.249 39.2552 403.668 39.2691C400.031 39.2552 397.648 40.7322 397.648 43.2822ZM400.797 54.7081H406.566V49.7754C405.66 49.9566 404.685 50.0541 403.668 50.0541C402.65 50.0541 401.689 49.9566 400.797 49.7894V54.7081Z" fill="#898BF8"/>
<defs>
<filter id="filter0_d_2400_14121" x="0.9" y="0.9" width="450.2" height="100.622" filterUnits="userSpaceOnUse" color-interpolation-filters="sRGB">
<feFlood flood-opacity="0" result="BackgroundImageFix"/>
<feColorMatrix in="SourceAlpha" type="matrix" values="0 0 0 0 0 0 0 0 0 0 0 0 0 0 0 0 0 0 127 0" result="hardAlpha"/>
<feOffset dx="2" dy="3"/>
<feGaussianBlur stdDeviation="4.05"/>
<feComposite in2="hardAlpha" operator="out"/>
<feColorMatrix type="matrix" values="0 0 0 0 0.346385 0 0 0 0 0.348401 0 0 0 0 0.458302 0 0 0 0.46 0"/>
<feBlend mode="normal" in2="BackgroundImageFix" result="effect1_dropShadow_2400_14121"/>
<feBlend mode="normal" in="SourceGraphic" in2="effect1_dropShadow_2400_14121" result="shape"/>
</filter>
</defs>
</svg>
