<svg width="175" height="38" viewBox="0 0 175 38" fill="none" xmlns="http://www.w3.org/2000/svg">
<path d="M19.6083 5.08235C19.647 4.89609 19.5275 4.71329 19.3405 4.67847C15.7415 4.00844 12.0178 4.56535 8.76836 6.26573C5.41706 8.0194 2.77751 10.8808 1.29943 14.3625C-0.178638 17.8441 -0.403768 21.7306 0.662401 25.3596C1.72857 28.9886 4.02007 32.1357 7.14647 34.2646C10.2729 36.3935 14.0407 37.3725 17.808 37.0349C21.5753 36.6972 25.109 35.0637 27.8069 32.4127C30.5048 29.7617 32.2001 26.2572 32.6039 22.4964C32.9953 18.8499 32.1491 15.1812 30.207 12.078C30.1061 11.9167 29.8922 11.8725 29.7331 11.9768L28.0317 13.0922C27.8726 13.1965 27.8285 13.4098 27.9288 13.5715C29.5259 16.1474 30.2203 19.1857 29.896 22.2057C29.5595 25.34 28.1467 28.2607 25.8981 30.4701C23.6496 32.6795 20.7046 34.0409 17.5649 34.3223C14.4251 34.6038 11.2849 33.7879 8.67931 32.0136C6.07371 30.2393 4.16392 27.6165 3.27535 24.592C2.38678 21.5674 2.57441 18.3284 3.80627 15.4267C5.03812 12.525 7.23799 10.1403 10.031 8.67871C12.7222 7.27047 15.8037 6.8033 18.7856 7.34547C18.9728 7.3795 19.1551 7.26038 19.1939 7.07411L19.6083 5.08235Z" fill="#5C5FFA"/>
<g filter="url(#filter0_b_2677_33291)">
<path d="M13.2348 12.1773C13.2356 11.4733 14.1673 11.2236 14.52 11.8329L17.9178 17.7016C18.0408 17.9141 18.2677 18.0451 18.5132 18.0454L25.2946 18.0536C25.9986 18.0545 26.2482 18.9861 25.639 19.3388L19.7702 22.7366C19.5577 22.8597 19.4268 23.0865 19.4265 23.332L19.4183 30.1134C19.4174 30.8174 18.4858 31.067 18.133 30.4578L14.7352 24.5891C14.6122 24.3766 14.3854 24.2456 14.1398 24.2453L7.35846 24.2371C6.65445 24.2362 6.40482 23.3046 7.01408 22.9518L12.8828 19.5541C13.0953 19.431 13.2263 19.2042 13.2266 18.9586L13.2348 12.1773Z" fill="#5C5FFA"/>
</g>
<path d="M42.6266 13.1493C42.4996 12.7088 42.8302 12.2695 43.2886 12.2695H45.7646C46.0824 12.2695 46.359 12.4869 46.434 12.7957L49.2157 24.2366C49.2258 24.2783 49.2632 24.3077 49.3061 24.3077V24.3077C49.3483 24.3077 49.3853 24.2793 49.3961 24.2385L52.4318 12.782C52.5119 12.4799 52.7853 12.2695 53.0978 12.2695H55.4201C55.7327 12.2695 56.0062 12.4801 56.0862 12.7824L59.1221 24.2624C59.1329 24.3032 59.1698 24.3316 59.212 24.3316V24.3316C59.255 24.3316 59.2923 24.3022 59.3024 24.2605L62.082 12.7962C62.1569 12.4871 62.4336 12.2695 62.7515 12.2695H65.227C65.6855 12.2695 66.016 12.7089 65.889 13.1494L61.3205 28.9958C61.2355 29.2908 60.9655 29.4939 60.6585 29.4939H58.1687C57.8623 29.4939 57.5928 29.2916 57.5071 28.9975L54.3614 18.1907C54.3494 18.1494 54.3116 18.1211 54.2687 18.1211V18.1211C54.2258 18.1211 54.1881 18.1493 54.176 18.1905L51.0069 28.9988C50.9208 29.2923 50.6516 29.4939 50.3457 29.4939H47.8549C47.5479 29.4939 47.2779 29.2907 47.1929 28.9957L42.6266 13.1493Z" fill="#5C5FFA"/>
<path d="M98.1821 28.8049C98.1821 29.1855 97.8736 29.4939 97.4931 29.4939H95.3496C95.1268 29.4939 94.9178 29.3862 94.7885 29.2048L87.225 18.5905C87.2066 18.5648 87.177 18.5495 87.1454 18.5495V18.5495C87.0914 18.5495 87.0477 18.5932 87.0477 18.6472V28.8049C87.0477 29.1855 86.7392 29.4939 86.3587 29.4939H84.0581C83.6776 29.4939 83.3691 29.1855 83.3691 28.8049V12.9585C83.3691 12.578 83.6776 12.2695 84.0581 12.2695H86.2497C86.4732 12.2695 86.6829 12.378 86.812 12.5604L94.3215 23.1659C94.3428 23.1961 94.3775 23.214 94.4144 23.214V23.214C94.4773 23.214 94.5282 23.163 94.5282 23.1001V12.9585C94.5282 12.578 94.8367 12.2695 95.2172 12.2695H97.4931C97.8736 12.2695 98.1821 12.578 98.1821 12.9585V28.8049Z" fill="#5C5FFA"/>
<path d="M99.9023 12.9585C99.9023 12.578 100.211 12.2695 100.591 12.2695H114.026C114.407 12.2695 114.715 12.578 114.715 12.9585V14.5311C114.715 14.9116 114.407 15.22 114.026 15.22H109.973C109.592 15.22 109.284 15.5285 109.284 15.909V28.8049C109.284 29.1855 108.975 29.4939 108.595 29.4939H106.328C105.947 29.4939 105.639 29.1855 105.639 28.8049V15.909C105.639 15.5285 105.331 15.22 104.95 15.22H100.591C100.211 15.22 99.9023 14.9116 99.9023 14.5311V12.9585Z" fill="#5C5FFA"/>
<path d="M116.781 12.9585C116.781 12.578 117.09 12.2695 117.47 12.2695H127.762C128.141 12.2695 128.449 12.5759 128.451 12.9551L128.459 14.5273C128.461 14.9091 128.152 15.2196 127.77 15.2196H121.075C120.695 15.2196 120.386 15.5281 120.386 15.9086V18.7177C120.386 19.0982 120.695 19.4067 121.075 19.4067H127.205C127.589 19.4067 127.899 19.721 127.894 20.1053L127.872 21.6774C127.867 22.0541 127.56 22.3568 127.183 22.3568H121.075C120.695 22.3568 120.386 22.6652 120.386 23.0457V25.8549C120.386 26.2354 120.695 26.5438 121.075 26.5438H127.803C128.184 26.5438 128.493 26.8533 128.492 27.2345L128.488 28.8066C128.487 29.1865 128.179 29.4939 127.799 29.4939H117.47C117.09 29.4939 116.781 29.1855 116.781 28.8049V12.9585Z" fill="#5C5FFA"/>
<path d="M131.529 29.4939C131.055 29.4939 130.723 29.0266 130.878 28.5789L136.381 12.7325C136.478 12.4553 136.739 12.2695 137.032 12.2695H140.65C140.944 12.2695 141.205 12.4558 141.301 12.7334L146.78 28.5798C146.935 29.0273 146.602 29.4939 146.129 29.4939H143.759C143.461 29.4939 143.197 29.3023 143.104 29.019L142.116 25.996C142.023 25.7127 141.759 25.5211 141.461 25.5211H136.217C135.919 25.5211 135.655 25.7127 135.562 25.996L134.574 29.019C134.481 29.3023 134.217 29.4939 133.919 29.4939H131.529ZM141.052 22.7377C141.053 22.7377 141.054 22.7366 141.054 22.7354L138.916 16.2036C138.905 16.1696 138.874 16.1466 138.838 16.1466V16.1466C138.802 16.1466 138.77 16.1696 138.759 16.2036L136.917 21.8345C136.771 22.2799 137.103 22.7377 137.572 22.7377H141.052V22.7377Z" fill="#5C5FFA"/>
<path d="M65.7409 29.4939C65.2651 29.4939 64.9325 29.0232 65.0915 28.5747L70.7091 12.7283C70.8066 12.4533 71.0667 12.2695 71.3585 12.2695H75.0789C75.371 12.2695 75.6313 12.4537 75.7286 12.7292L81.3214 28.5756C81.4796 29.0239 81.1471 29.4939 80.6717 29.4939H78.2253C77.9288 29.4939 77.6656 29.3043 77.5718 29.0231L76.5601 25.9919C76.4663 25.7107 76.203 25.5211 75.9066 25.5211H70.5266C70.2301 25.5211 69.9669 25.7107 69.8731 25.9919L68.8614 29.0231C68.7676 29.3043 68.5043 29.4939 68.2079 29.4939H65.7409ZM75.4758 22.7377C75.477 22.7377 75.4779 22.7365 75.4775 22.7354L73.2959 16.2046C73.2843 16.17 73.2519 16.1466 73.2154 16.1466V16.1466C73.1788 16.1466 73.1464 16.17 73.1348 16.2046L71.2555 21.8304C71.1065 22.2767 71.4386 22.7377 71.909 22.7377H75.4758V22.7377Z" fill="#5C5FFA"/>
<path d="M153.211 12.2695C153.489 12.2695 153.74 12.4367 153.847 12.6934L158.502 23.8611C158.525 23.9156 158.578 23.9511 158.637 23.9511V23.9511C158.697 23.9511 158.75 23.9156 158.772 23.8611L163.428 12.6934C163.535 12.4367 163.786 12.2695 164.064 12.2695H167.422C167.802 12.2695 168.111 12.578 168.111 12.9585V28.8049C168.111 29.1855 167.802 29.4939 167.422 29.4939H165.263C164.883 29.4939 164.575 29.1855 164.575 28.8049V18.3043C164.575 18.256 164.535 18.2168 164.487 18.2168V18.2168C164.451 18.2168 164.419 18.2383 164.406 18.2712L160.024 28.9938C159.918 29.2528 159.666 29.4221 159.386 29.4221H157.89C157.609 29.4221 157.357 29.2524 157.251 28.9928L152.869 18.2234C152.855 18.1905 152.823 18.1689 152.788 18.1689V18.1689C152.74 18.1689 152.7 18.2081 152.7 18.2564V28.8049C152.7 29.1855 152.392 29.4939 152.011 29.4939H149.853C149.473 29.4939 149.164 29.1855 149.164 28.8049V12.9585C149.164 12.578 149.473 12.2695 149.853 12.2695H153.211Z" fill="#5C5FFA"/>
<path d="M170.868 27.5865C170.843 26.5433 171.784 25.6918 172.947 25.7032C174.047 25.6918 175.001 26.5433 175.001 27.5865C175.001 28.6296 174.047 29.4925 172.947 29.4925C171.784 29.4925 170.843 28.641 170.868 27.5865Z" fill="#5C5FFA"/>
<path d="M22.4635 12.4718C21.9199 12.879 21.1773 12.337 21.3993 11.6951L24.3845 3.06432C24.7592 1.98122 26.0673 1.5592 27.0043 2.2192L29.7798 4.17432C30.7365 4.84822 30.7571 6.25949 29.8205 6.96105L22.4635 12.4718Z" fill="#5C5FFA"/>
<defs>
<filter id="filter0_b_2677_33291" x="2.50557" y="7.32393" width="27.6432" height="27.6412" filterUnits="userSpaceOnUse" color-interpolation-filters="sRGB">
<feFlood flood-opacity="0" result="BackgroundImageFix"/>
<feGaussianBlur in="BackgroundImageFix" stdDeviation="2.08218"/>
<feComposite in2="SourceAlpha" operator="in" result="effect1_backgroundBlur_2677_33291"/>
<feBlend mode="normal" in="SourceGraphic" in2="effect1_backgroundBlur_2677_33291" result="shape"/>
</filter>
</defs>
</svg>
