<svg width="19" height="24" viewBox="0 0 19 24" fill="none" xmlns="http://www.w3.org/2000/svg">
<path d="M4.6456 7.34831C6.823 5.41834 6.21545 2.16779 5.51025 0.429776C5.43185 0.236558 5.581 0.0234995 5.78748 0.0526028C7.38475 0.277743 10.3355 1.10565 12.331 3.10112C14.4581 5.22825 15.0922 9.93808 15.1573 12.2737C15.1615 12.4215 15.2823 12.5166 15.3984 12.425C15.8034 12.106 16.436 11.1873 16.8362 10.5515C16.9174 10.4225 17.0884 10.3853 17.1942 10.495C17.7384 11.0592 18.5332 12.6137 18.5332 15.6404C18.5332 19.9551 14.0838 24 8.62312 24C3.16245 24 0.46582 19.4831 0.46582 15.6404C0.46582 11.7978 1.6793 9.97753 4.6456 7.34831Z" fill="#9799F9"/>
<path d="M3.69193 20.0902C3.04648 18.33 3.72875 16.3486 4.31654 15.0791C4.41258 14.8717 4.7208 14.8747 4.854 15.0604C5.07934 15.3746 5.35635 15.6411 5.59645 15.836C5.75924 15.9681 5.98525 15.8447 5.99776 15.6354C6.21054 12.0768 8.77797 10.1563 10.3547 9.50109C10.5242 9.43064 10.7027 9.56023 10.7068 9.74376C10.7927 13.5931 12.2167 14.2826 13.1971 16.1127C14.0061 17.6228 13.8039 19.3936 13.6016 20.0902C13.2493 21.3037 11.4848 23.1239 9.21959 23.1239C6.38813 23.1239 4.43935 22.1284 3.69193 20.0902Z" fill="#5C5FFA"/>
</svg>
