<svg width="128" height="98" viewBox="0 0 128 98" fill="none" xmlns="http://www.w3.org/2000/svg">
<ellipse cx="63.8506" cy="64.5499" rx="61.4009" ry="17.5492" transform="rotate(15 63.8506 64.5499)" fill="#EEEFFD"/>
<circle cx="31.1518" cy="31.1518" r="31.1518" transform="matrix(1 0 0 -1 34.4531 62.3047)" fill="white"/>
<circle cx="31.1518" cy="31.1518" r="31.1518" transform="matrix(1 0 0 -1 34.4531 62.3047)" fill="url(#paint0_linear_2192_24001)" fill-opacity="0.35"/>
<path fill-rule="evenodd" clip-rule="evenodd" d="M91.3952 43.4102C92.6894 44.0253 94.2483 43.4776 94.7536 42.1367C97.0298 36.0966 97.3808 29.4752 95.7209 23.1934C93.8392 16.0725 89.4953 9.84858 83.4603 5.62647C77.4252 1.40436 70.0894 -0.542836 62.7549 0.130518C55.4204 0.803872 48.5617 4.05422 43.3963 9.3046C38.2308 14.555 35.0928 21.4658 34.5392 28.8103C33.9855 36.1548 36.0521 43.4579 40.3721 49.4233C44.6921 55.3887 50.986 59.6305 58.1367 61.3957C64.4448 62.9529 71.0596 62.494 77.0617 60.1196C78.3942 59.5925 78.9164 58.0249 78.2802 56.7408C77.6441 55.4568 76.0908 54.945 74.7497 55.4498C69.8553 57.2924 64.4968 57.6208 59.3804 56.3577C53.4209 54.8865 48.1754 51.3513 44.575 46.3797C40.9747 41.408 39.2523 35.3214 39.7137 29.2003C40.1751 23.0793 42.7904 17.3197 47.0954 12.9439C51.4004 8.56811 57.1166 5.8592 63.2293 5.29801C69.342 4.73683 75.4559 6.35966 80.4856 9.87846C85.5154 13.3973 89.1356 18.5844 90.7038 24.5191C92.0502 29.6142 91.8092 34.9774 90.0468 39.9012C89.5638 41.2503 90.101 42.7951 91.3952 43.4102ZM85.4154 50.2811C86.518 49.0798 88.3856 48.9998 89.5869 50.1023L104.41 63.7072C105.611 64.8097 105.691 66.6773 104.589 67.8786C103.486 69.0799 101.619 69.1599 100.417 68.0574L85.5942 54.4525C84.393 53.35 84.3129 51.4824 85.4154 50.2811ZM65.451 16C67.1078 16 68.451 17.3432 68.451 19V34C68.451 35.6569 67.1078 37 65.451 37C63.7941 37 62.451 35.6569 62.451 34V19C62.451 17.3432 63.7941 16 65.451 16ZM68.451 43C68.451 44.6569 67.1078 46 65.451 46C63.7941 46 62.451 44.6569 62.451 43C62.451 41.3432 63.7941 40 65.451 40C67.1078 40 68.451 41.3432 68.451 43Z" fill="url(#paint1_linear_2192_24001)"/>
<defs>
<linearGradient id="paint0_linear_2192_24001" x1="-0.453125" y1="16.3047" x2="46.5469" y2="62.3047" gradientUnits="userSpaceOnUse">
<stop stop-color="#3B3EF1"/>
<stop offset="1" stop-color="#7376F0" stop-opacity="0"/>
</linearGradient>
<linearGradient id="paint1_linear_2192_24001" x1="59.9512" y1="62.5" x2="94.2238" y2="-21.9044" gradientUnits="userSpaceOnUse">
<stop stop-color="#3B3EF1"/>
<stop offset="0.783273" stop-color="#A3A5FF"/>
</linearGradient>
</defs>
</svg>
