<svg width="155" height="69" viewBox="0 0 155 69" fill="none" xmlns="http://www.w3.org/2000/svg">
<ellipse cx="86.0766" cy="51.2855" rx="61.4009" ry="17.5492" fill="#EEEFFD"/>
<path fill-rule="evenodd" clip-rule="evenodd" d="M98.222 12.3545C98.222 19.1776 92.6907 24.7089 85.8676 24.7089C79.0444 24.7089 73.5131 19.1776 73.5131 12.3545C73.5131 5.53128 79.0444 0 85.8676 0C92.6907 0 98.222 5.53128 98.222 12.3545ZM105.456 55.7994C109.85 55.7994 113.523 52.1651 112.267 47.9548C112.185 47.6825 112.1 47.4115 112.01 47.1419H116.019H129.34C132.343 47.1419 134.854 44.6576 133.995 41.7797C133.113 38.8218 131.506 36.0994 129.283 33.8772C125.765 30.3592 120.994 28.3828 116.019 28.3828C111.043 28.3828 106.272 30.3592 102.754 33.8772C102.714 33.917 102.675 33.9568 102.635 33.9969C97.8762 30.3587 92.0257 28.3563 85.9686 28.3563C79.8643 28.3563 73.9696 30.3901 69.1905 34.0825C69.1237 34.0136 69.0563 33.9452 68.9884 33.8772C65.4704 30.3592 60.6989 28.3828 55.7237 28.3828C50.7485 28.3828 45.977 30.3592 42.459 33.8772C40.2368 36.0994 38.6297 38.8218 37.7473 41.7797C36.8887 44.6576 39.3992 47.1419 42.4025 47.1419L55.7237 47.1419H59.9269C59.8373 47.4115 59.7518 47.6825 59.6706 47.9548C58.4145 52.1651 62.0872 55.7994 66.4808 55.7994L85.9686 55.7994H105.456ZM55.6538 25.8901C60.3179 25.8901 64.0988 22.1092 64.0988 17.4451C64.0988 12.781 60.3179 9 55.6538 9C50.9897 9 47.2087 12.781 47.2087 17.4451C47.2087 22.1092 50.9897 25.8901 55.6538 25.8901ZM115.947 25.8901C120.611 25.8901 124.392 22.1092 124.392 17.4451C124.392 12.781 120.611 9 115.947 9C111.283 9 107.502 12.781 107.502 17.4451C107.502 22.1092 111.283 25.8901 115.947 25.8901Z" fill="url(#paint0_linear_2192_15114)"/>
<g filter="url(#filter0_b_2192_15114)">
<path d="M15.0957 8.12032C15.0971 6.99981 16.5799 6.60249 17.1413 7.57221L21.1755 14.5401C21.3713 14.8784 21.7324 15.0868 22.1232 15.0873L30.1747 15.097C31.2952 15.0984 31.6925 16.5812 30.7228 17.1426L23.7549 21.1768C23.4166 21.3727 23.2082 21.7337 23.2077 22.1245L23.198 30.176C23.1966 31.2966 21.7138 31.6939 21.1524 30.7242L17.1182 23.7562C16.9224 23.418 16.5613 23.2095 16.1705 23.2091L8.11898 23.1993C6.99846 23.198 6.60115 21.7152 7.57086 21.1537L14.5388 17.1195C14.877 16.9237 15.0855 16.5627 15.0859 16.1718L15.0957 8.12032Z" fill="url(#paint1_linear_2192_15114)" fill-opacity="0.7"/>
</g>
<g filter="url(#filter1_b_2192_15114)">
<path d="M141.529 13.4364C141.529 12.8245 142.339 12.6075 142.646 13.1371L144.849 16.9422C144.956 17.1269 145.153 17.2407 145.366 17.2409L149.763 17.2463C150.375 17.247 150.592 18.0567 150.062 18.3633L146.257 20.5664C146.073 20.6733 145.959 20.8704 145.959 21.0839L145.953 25.4807C145.952 26.0926 145.143 26.3095 144.836 25.78L142.633 21.9749C142.526 21.7902 142.329 21.6764 142.116 21.6761L137.719 21.6708C137.107 21.6701 136.89 20.8603 137.419 20.5537L141.225 18.3507C141.409 18.2438 141.523 18.0466 141.523 17.8332L141.529 13.4364Z" fill="url(#paint2_linear_2192_15114)" fill-opacity="0.35"/>
</g>
<defs>
<filter id="filter0_b_2192_15114" x="0.393902" y="0.395367" width="37.5059" height="37.5061" filterUnits="userSpaceOnUse" color-interpolation-filters="sRGB">
<feFlood flood-opacity="0" result="BackgroundImageFix"/>
<feGaussianBlur in="BackgroundImageFix" stdDeviation="3.31404"/>
<feComposite in2="SourceAlpha" operator="in" result="effect1_backgroundBlur_2192_15114"/>
<feBlend mode="normal" in="SourceGraphic" in2="effect1_backgroundBlur_2192_15114" result="shape"/>
</filter>
<filter id="filter1_b_2192_15114" x="133.5" y="9.2184" width="20.4817" height="20.4812" filterUnits="userSpaceOnUse" color-interpolation-filters="sRGB">
<feFlood flood-opacity="0" result="BackgroundImageFix"/>
<feGaussianBlur in="BackgroundImageFix" stdDeviation="1.80974"/>
<feComposite in2="SourceAlpha" operator="in" result="effect1_backgroundBlur_2192_15114"/>
<feBlend mode="normal" in="SourceGraphic" in2="effect1_backgroundBlur_2192_15114" result="shape"/>
</filter>
<linearGradient id="paint0_linear_2192_15114" x1="71.0778" y1="52.2636" x2="106.584" y2="3.79989" gradientUnits="userSpaceOnUse">
<stop stop-color="#6669E9"/>
<stop offset="1" stop-color="#DBDBFD"/>
</linearGradient>
<linearGradient id="paint1_linear_2192_15114" x1="23.2516" y1="23.0929" x2="31.5614" y2="-5.5128" gradientUnits="userSpaceOnUse">
<stop stop-color="#3B3EF1"/>
<stop offset="1" stop-color="#7376F0" stop-opacity="0"/>
</linearGradient>
<linearGradient id="paint2_linear_2192_15114" x1="145.983" y1="21.6127" x2="150.52" y2="5.99154" gradientUnits="userSpaceOnUse">
<stop stop-color="#3B3EF1"/>
<stop offset="1" stop-color="#7376F0" stop-opacity="0"/>
</linearGradient>
</defs>
</svg>
