<svg width="123" height="69" viewBox="0 0 123 69" fill="none" xmlns="http://www.w3.org/2000/svg">
<ellipse cx="61.5" cy="51.2855" rx="61.4009" ry="17.5492" fill="#EEEFFD"/>
<path fill-rule="evenodd" clip-rule="evenodd" d="M73.6454 12.3545C73.6454 19.1776 68.1141 24.7089 61.2909 24.7089C54.4677 24.7089 48.9364 19.1776 48.9364 12.3545C48.9364 5.53128 54.4677 0 61.2909 0C68.1141 0 73.6454 5.53128 73.6454 12.3545ZM80.8798 55.7994C85.2734 55.7994 88.9461 52.1651 87.69 47.9548C87.6088 47.6825 87.5233 47.4115 87.4337 47.1419H91.4419H104.763C107.766 47.1419 110.277 44.6576 109.418 41.7797C108.536 38.8218 106.929 36.0994 104.707 33.8772C101.189 30.3592 96.4172 28.3828 91.442 28.3828C86.4667 28.3828 81.6953 30.3592 78.1772 33.8772C78.1375 33.917 78.098 33.9568 78.0587 33.9969C73.2996 30.3587 67.449 28.3563 61.392 28.3563C55.2876 28.3563 49.3929 30.3901 44.6139 34.0825C44.5471 34.0136 44.4797 33.9452 44.4117 33.8772C40.8937 30.3592 36.1223 28.3828 31.147 28.3828C26.1718 28.3828 21.4003 30.3592 17.8823 33.8772C15.6601 36.0994 14.053 38.8218 13.1706 41.7797C12.312 44.6576 14.8226 47.1419 17.8259 47.1419L31.147 47.1419H35.3502C35.2606 47.4115 35.1751 47.6825 35.0939 47.9548C33.8379 52.1651 37.5106 55.7994 41.9042 55.7994L61.392 55.7994H80.8798ZM31.0771 25.8901C35.7412 25.8901 39.5222 22.1092 39.5222 17.4451C39.5222 12.781 35.7412 9 31.0771 9C26.413 9 22.632 12.781 22.632 17.4451C22.632 22.1092 26.413 25.8901 31.0771 25.8901ZM91.3701 25.8901C96.0342 25.8901 99.8151 22.1092 99.8151 17.4451C99.8151 12.781 96.0342 9 91.3701 9C86.706 9 82.925 12.781 82.925 17.4451C82.925 22.1092 86.706 25.8901 91.3701 25.8901Z" fill="url(#paint0_linear_2192_14547)"/>
<defs>
<linearGradient id="paint0_linear_2192_14547" x1="46.5011" y1="52.2636" x2="82.0071" y2="3.79989" gradientUnits="userSpaceOnUse">
<stop stop-color="#6669E9"/>
<stop offset="1" stop-color="#DBDBFD"/>
</linearGradient>
</defs>
</svg>
