<svg width="27" height="27" viewBox="0 0 27 27" fill="none" xmlns="http://www.w3.org/2000/svg">
<g id="Group 39887">
<g id="Group 39889">
<circle id="Ellipse 5261" cx="13.5" cy="13.5" r="13" fill="white" stroke="#CB3830"/>
<path id="Union" fill-rule="evenodd" clip-rule="evenodd" d="M18.2929 8.29289C18.6834 7.90237 19.3166 7.90237 19.7071 8.29289C20.0976 8.68342 20.0976 9.31658 19.7071 9.70711L15.4142 14L19.7071 18.2929C20.0976 18.6834 20.0976 19.3166 19.7071 19.7071C19.3166 20.0976 18.6834 20.0976 18.2929 19.7071L14 15.4142L9.70709 19.7071C9.31657 20.0976 8.6834 20.0976 8.29288 19.7071C7.90236 19.3166 7.90236 18.6834 8.29288 18.2929L12.5858 14L8.29288 9.70711C7.90236 9.31658 7.90236 8.68342 8.29288 8.29289C8.6834 7.90237 9.31657 7.90237 9.70709 8.29289L14 12.5858L18.2929 8.29289Z" fill="#CB3830"/>
</g>
</g>
</svg>
