<svg width="61" height="39" viewBox="0 0 61 39" fill="none" xmlns="http://www.w3.org/2000/svg">
<mask id="path-1-inside-1_1862_8390" fill="white">
<path fill-rule="evenodd" clip-rule="evenodd" d="M47.3638 14.7861C50.7565 14.7861 53.5068 12.0358 53.5068 8.64305C53.5068 5.25034 50.7565 2.5 47.3638 2.5C43.9711 2.5 41.2207 5.25034 41.2207 8.64305C41.2207 12.0358 43.9711 14.7861 47.3638 14.7861ZM60.7689 28.81C60.8921 29.76 60.104 30.5397 59.1461 30.5397H47.4382H35.7302C34.7723 30.5397 33.9842 29.76 34.1075 28.81C34.2594 27.6392 34.5652 26.491 35.019 25.3955C35.6945 23.7646 36.6847 22.2827 37.9329 21.0345C39.1812 19.7863 40.6631 18.7961 42.294 18.1205C43.9249 17.445 45.6729 17.0973 47.4382 17.0973C49.2035 17.0973 50.9515 17.445 52.5824 18.1205C54.2133 18.7961 55.6952 19.7863 56.9434 21.0345C58.1917 22.2827 59.1818 23.7646 59.8574 25.3955C60.3111 26.491 60.6169 27.6392 60.7689 28.81Z"/>
</mask>
<path fill-rule="evenodd" clip-rule="evenodd" d="M47.3638 14.7861C50.7565 14.7861 53.5068 12.0358 53.5068 8.64305C53.5068 5.25034 50.7565 2.5 47.3638 2.5C43.9711 2.5 41.2207 5.25034 41.2207 8.64305C41.2207 12.0358 43.9711 14.7861 47.3638 14.7861ZM60.7689 28.81C60.8921 29.76 60.104 30.5397 59.1461 30.5397H47.4382H35.7302C34.7723 30.5397 33.9842 29.76 34.1075 28.81C34.2594 27.6392 34.5652 26.491 35.019 25.3955C35.6945 23.7646 36.6847 22.2827 37.9329 21.0345C39.1812 19.7863 40.6631 18.7961 42.294 18.1205C43.9249 17.445 45.6729 17.0973 47.4382 17.0973C49.2035 17.0973 50.9515 17.445 52.5824 18.1205C54.2133 18.7961 55.6952 19.7863 56.9434 21.0345C58.1917 22.2827 59.1818 23.7646 59.8574 25.3955C60.3111 26.491 60.6169 27.6392 60.7689 28.81Z" fill="#B1B6FF"/>
<path d="M60.7689 28.81L60.9122 28.7914L60.7689 28.81ZM34.1075 28.81L33.9641 28.7914L34.1075 28.81ZM35.019 25.3955L35.1525 25.4509L35.019 25.3955ZM37.9329 21.0345L37.8307 20.9323L37.9329 21.0345ZM56.9434 21.0345L56.8412 21.1367L56.9434 21.0345ZM59.8574 25.3955L59.9909 25.3402L59.8574 25.3955ZM53.3623 8.64305C53.3623 11.9559 50.6767 14.6416 47.3638 14.6416V14.9307C50.8363 14.9307 53.6514 12.1156 53.6514 8.64305H53.3623ZM47.3638 2.64454C50.6767 2.64454 53.3623 5.33017 53.3623 8.64305H53.6514C53.6514 5.17051 50.8363 2.35546 47.3638 2.35546V2.64454ZM41.3653 8.64305C41.3653 5.33017 44.0509 2.64454 47.3638 2.64454V2.35546C43.8912 2.35546 41.0762 5.17051 41.0762 8.64305H41.3653ZM47.3638 14.6416C44.0509 14.6416 41.3653 11.9559 41.3653 8.64305H41.0762C41.0762 12.1156 43.8912 14.9307 47.3638 14.9307V14.6416ZM59.1461 30.6843C60.178 30.6843 61.0483 29.8405 60.9122 28.7914L60.6255 28.8286C60.7359 29.6795 60.0301 30.3952 59.1461 30.3952V30.6843ZM47.4382 30.6843H59.1461V30.3952H47.4382V30.6843ZM35.7302 30.6843H47.4382V30.3952H35.7302V30.6843ZM33.9641 28.7914C33.828 29.8405 34.6983 30.6843 35.7302 30.6843V30.3952C34.8463 30.3952 34.1404 29.6795 34.2508 28.8286L33.9641 28.7914ZM34.8854 25.3402C34.4268 26.4474 34.1177 27.608 33.9641 28.7914L34.2508 28.8286C34.4011 27.6704 34.7036 26.5345 35.1525 25.4509L34.8854 25.3402ZM37.8307 20.9323C36.569 22.194 35.5682 23.6918 34.8854 25.3402L35.1525 25.4509C35.8208 23.8375 36.8003 22.3715 38.0351 21.1367L37.8307 20.9323ZM42.2387 17.987C40.5902 18.6698 39.0924 19.6706 37.8307 20.9323L38.0351 21.1367C39.27 19.9019 40.7359 18.9224 42.3493 18.2541L42.2387 17.987ZM47.4382 16.9528C45.6539 16.9528 43.8871 17.3042 42.2387 17.987L42.3493 18.2541C43.9627 17.5858 45.6919 17.2418 47.4382 17.2418V16.9528ZM52.6377 17.987C50.9892 17.3042 49.2224 16.9528 47.4382 16.9528V17.2418C49.1845 17.2418 50.9137 17.5858 52.5271 18.2541L52.6377 17.987ZM57.0456 20.9323C55.784 19.6706 54.2861 18.6698 52.6377 17.987L52.5271 18.2541C54.1404 18.9224 55.6064 19.9019 56.8412 21.1367L57.0456 20.9323ZM59.9909 25.3402C59.3081 23.6918 58.3073 22.194 57.0456 20.9323L56.8412 21.1367C58.076 22.3715 59.0555 23.8375 59.7238 25.4509L59.9909 25.3402ZM60.9122 28.7914C60.7587 27.608 60.4495 26.4474 59.9909 25.3402L59.7238 25.4509C60.1727 26.5345 60.4752 27.6704 60.6255 28.8286L60.9122 28.7914Z" fill="white" mask="url(#path-1-inside-1_1862_8390)"/>
<mask id="path-3-inside-2_1862_8390" fill="white">
<path fill-rule="evenodd" clip-rule="evenodd" d="M13.4917 14.7861C16.8844 14.7861 19.6347 12.0358 19.6347 8.64305C19.6347 5.25034 16.8844 2.5 13.4917 2.5C10.0989 2.5 7.3486 5.25034 7.3486 8.64305C7.3486 12.0358 10.0989 14.7861 13.4917 14.7861ZM26.8919 28.81C27.0152 29.76 26.2271 30.5397 25.2692 30.5397H13.5612H1.85328C0.895333 30.5397 0.107252 29.76 0.230517 28.81C0.382437 27.6392 0.688274 26.491 1.14201 25.3955C1.81756 23.7646 2.80772 22.2827 4.05597 21.0345C5.30421 19.7863 6.7861 18.7961 8.41701 18.1205C10.0479 17.445 11.7959 17.0973 13.5612 17.0973C15.3265 17.0973 17.0745 17.445 18.7054 18.1205C20.3363 18.7961 21.8182 19.7863 23.0665 21.0345C24.3147 22.2827 25.3049 23.7646 25.9804 25.3955C26.4342 26.491 26.74 27.6392 26.8919 28.81Z"/>
</mask>
<path fill-rule="evenodd" clip-rule="evenodd" d="M13.4917 14.7861C16.8844 14.7861 19.6347 12.0358 19.6347 8.64305C19.6347 5.25034 16.8844 2.5 13.4917 2.5C10.0989 2.5 7.3486 5.25034 7.3486 8.64305C7.3486 12.0358 10.0989 14.7861 13.4917 14.7861ZM26.8919 28.81C27.0152 29.76 26.2271 30.5397 25.2692 30.5397H13.5612H1.85328C0.895333 30.5397 0.107252 29.76 0.230517 28.81C0.382437 27.6392 0.688274 26.491 1.14201 25.3955C1.81756 23.7646 2.80772 22.2827 4.05597 21.0345C5.30421 19.7863 6.7861 18.7961 8.41701 18.1205C10.0479 17.445 11.7959 17.0973 13.5612 17.0973C15.3265 17.0973 17.0745 17.445 18.7054 18.1205C20.3363 18.7961 21.8182 19.7863 23.0665 21.0345C24.3147 22.2827 25.3049 23.7646 25.9804 25.3955C26.4342 26.491 26.74 27.6392 26.8919 28.81Z" fill="#B1B6FF"/>
<path d="M26.8919 28.81L27.0353 28.7914L26.8919 28.81ZM0.230517 28.81L0.0871762 28.7914L0.230517 28.81ZM1.14201 25.3955L1.27555 25.4509L1.14201 25.3955ZM4.05597 21.0345L3.95376 20.9323L4.05597 21.0345ZM23.0665 21.0345L22.9643 21.1367L23.0665 21.0345ZM25.9804 25.3955L26.114 25.3402L25.9804 25.3955ZM19.4902 8.64305C19.4902 11.9559 16.8045 14.6416 13.4917 14.6416V14.9307C16.9642 14.9307 19.7792 12.1156 19.7792 8.64305H19.4902ZM13.4917 2.64454C16.8045 2.64454 19.4902 5.33017 19.4902 8.64305H19.7792C19.7792 5.17051 16.9642 2.35546 13.4917 2.35546V2.64454ZM7.49314 8.64305C7.49314 5.33017 10.1788 2.64454 13.4917 2.64454V2.35546C10.0191 2.35546 7.20405 5.17051 7.20405 8.64305H7.49314ZM13.4917 14.6416C10.1788 14.6416 7.49314 11.9559 7.49314 8.64305H7.20405C7.20405 12.1156 10.0191 14.9307 13.4917 14.9307V14.6416ZM25.2692 30.6843C26.3011 30.6843 27.1714 29.8405 27.0353 28.7914L26.7486 28.8286C26.859 29.6795 26.1531 30.3952 25.2692 30.3952V30.6843ZM13.5612 30.6843H25.2692V30.3952H13.5612V30.6843ZM1.85328 30.6843H13.5612V30.3952H1.85328V30.6843ZM0.0871762 28.7914C-0.0489487 29.8405 0.821356 30.6843 1.85328 30.6843V30.3952C0.96931 30.3952 0.263453 29.6795 0.373858 28.8286L0.0871762 28.7914ZM1.00847 25.3402C0.549855 26.4474 0.24073 27.608 0.0871762 28.7914L0.373858 28.8286C0.524145 27.6704 0.826693 26.5345 1.27555 25.4509L1.00847 25.3402ZM3.95376 20.9323C2.69209 22.194 1.69128 23.6918 1.00847 25.3402L1.27555 25.4509C1.94383 23.8375 2.92335 22.3715 4.15818 21.1367L3.95376 20.9323ZM8.3617 17.987C6.71325 18.6698 5.21543 19.6706 3.95376 20.9323L4.15818 21.1367C5.393 19.9019 6.85895 18.9224 8.47233 18.2541L8.3617 17.987ZM13.5612 16.9528C11.7769 16.9528 10.0101 17.3042 8.3617 17.987L8.47233 18.2541C10.0857 17.5858 11.8149 17.2418 13.5612 17.2418V16.9528ZM18.7607 17.987C17.1123 17.3042 15.3455 16.9528 13.5612 16.9528V17.2418C15.3075 17.2418 17.0367 17.5858 18.6501 18.2541L18.7607 17.987ZM23.1687 20.9323C21.907 19.6706 20.4092 18.6698 18.7607 17.987L18.6501 18.2541C20.2635 18.9224 21.7294 19.9019 22.9643 21.1367L23.1687 20.9323ZM26.114 25.3402C25.4311 23.6918 24.4303 22.194 23.1687 20.9323L22.9643 21.1367C24.1991 22.3715 25.1786 23.8375 25.8469 25.4509L26.114 25.3402ZM27.0353 28.7914C26.8817 27.608 26.5726 26.4474 26.114 25.3402L25.8469 25.4509C26.2957 26.5345 26.5983 27.6704 26.7486 28.8286L27.0353 28.7914Z" fill="white" mask="url(#path-3-inside-2_1862_8390)"/>
<mask id="path-5-outside-3_1862_8390" maskUnits="userSpaceOnUse" x="12.3604" y="0.5" width="36" height="38" fill="black">
<rect fill="white" x="12.3604" y="0.5" width="36" height="38"/>
<path fill-rule="evenodd" clip-rule="evenodd" d="M30.4544 17.3969C34.5681 17.3969 37.9028 14.0621 37.9028 9.94845C37.9028 5.83479 34.5681 2.5 30.4544 2.5C26.3407 2.5 23.0059 5.83479 23.0059 9.94845C23.0059 14.0621 26.3407 17.3969 30.4544 17.3969ZM46.7027 34.402C46.8522 35.5538 45.8967 36.4993 44.7352 36.4993H30.5393H16.3434C15.1819 36.4993 14.2263 35.5538 14.3758 34.402C14.56 32.9823 14.9308 31.5901 15.481 30.2619C16.3001 28.2844 17.5007 26.4876 19.0142 24.9741C20.5277 23.4606 22.3244 22.2601 24.3019 21.441C26.2794 20.6219 28.3989 20.2003 30.5393 20.2003C32.6797 20.2003 34.7991 20.6219 36.7766 21.441C38.7541 22.2601 40.5509 23.4606 42.0644 24.9741C43.5779 26.4876 44.7785 28.2844 45.5976 30.2619C46.1477 31.5901 46.5185 32.9823 46.7027 34.402Z"/>
</mask>
<path fill-rule="evenodd" clip-rule="evenodd" d="M30.4544 17.3969C34.5681 17.3969 37.9028 14.0621 37.9028 9.94845C37.9028 5.83479 34.5681 2.5 30.4544 2.5C26.3407 2.5 23.0059 5.83479 23.0059 9.94845C23.0059 14.0621 26.3407 17.3969 30.4544 17.3969ZM46.7027 34.402C46.8522 35.5538 45.8967 36.4993 44.7352 36.4993H30.5393H16.3434C15.1819 36.4993 14.2263 35.5538 14.3758 34.402C14.56 32.9823 14.9308 31.5901 15.481 30.2619C16.3001 28.2844 17.5007 26.4876 19.0142 24.9741C20.5277 23.4606 22.3244 22.2601 24.3019 21.441C26.2794 20.6219 28.3989 20.2003 30.5393 20.2003C32.6797 20.2003 34.7991 20.6219 36.7766 21.441C38.7541 22.2601 40.5509 23.4606 42.0644 24.9741C43.5779 26.4876 44.7785 28.2844 45.5976 30.2619C46.1477 31.5901 46.5185 32.9823 46.7027 34.402Z" fill="#898BF8"/>
<path d="M46.7027 34.402L45.1385 34.6049L46.7027 34.402ZM14.3758 34.402L12.8116 34.199L14.3758 34.402ZM15.481 30.2619L14.0237 29.6583L15.481 30.2619ZM19.0142 24.9741L20.1295 26.0895H20.1295L19.0142 24.9741ZM24.3019 21.441L24.9055 22.8982H24.9055L24.3019 21.441ZM45.5976 30.2619L44.1403 30.8655V30.8655L45.5976 30.2619ZM36.3255 9.94845C36.3255 13.191 33.6969 15.8196 30.4544 15.8196V18.9742C35.4392 18.9742 39.4802 14.9332 39.4802 9.94845H36.3255ZM30.4544 4.07732C33.6969 4.07732 36.3255 6.70592 36.3255 9.94845H39.4802C39.4802 4.96366 35.4392 0.922681 30.4544 0.922681V4.07732ZM24.5833 9.94845C24.5833 6.70592 27.2118 4.07732 30.4544 4.07732V0.922681C25.4696 0.922681 21.4286 4.96366 21.4286 9.94845H24.5833ZM30.4544 15.8196C27.2118 15.8196 24.5833 13.191 24.5833 9.94845H21.4286C21.4286 14.9332 25.4696 18.9742 30.4544 18.9742V15.8196ZM44.7352 38.0766C46.7039 38.0766 48.5568 36.4324 48.267 34.199L45.1385 34.6049C45.1473 34.6726 45.1317 34.7288 45.0731 34.7898C45.0058 34.8599 44.8875 34.9219 44.7352 34.9219V38.0766ZM30.5393 38.0766H44.7352V34.9219H30.5393V38.0766ZM16.3434 38.0766H30.5393V34.9219H16.3434V38.0766ZM12.8116 34.199C12.5218 36.4324 14.3746 38.0766 16.3434 38.0766V34.9219C16.191 34.9219 16.0728 34.8599 16.0054 34.7898C15.9468 34.7288 15.9312 34.6726 15.94 34.6049L12.8116 34.199ZM14.0237 29.6583C13.4203 31.115 13.0136 32.642 12.8116 34.199L15.94 34.6049C16.1064 33.3227 16.4413 32.0652 16.9382 30.8655L14.0237 29.6583ZM17.8988 23.8588C16.2389 25.5188 14.9221 27.4894 14.0237 29.6583L16.9382 30.8655C17.6781 29.0794 18.7625 27.4565 20.1295 26.0895L17.8988 23.8588ZM23.6983 19.9837C21.5295 20.8821 19.5588 22.1988 17.8988 23.8588L20.1295 26.0895C21.4965 24.7224 23.1194 23.6381 24.9055 22.8982L23.6983 19.9837ZM30.5393 18.623C28.1917 18.623 25.8672 19.0853 23.6983 19.9837L24.9055 22.8982C26.6917 22.1584 28.606 21.7776 30.5393 21.7776V18.623ZM37.3802 19.9837C35.2114 19.0853 32.8868 18.623 30.5393 18.623V21.7776C32.4725 21.7776 34.3869 22.1584 36.173 22.8982L37.3802 19.9837ZM43.1797 23.8588C41.5198 22.1988 39.5491 20.8821 37.3802 19.9837L36.173 22.8982C37.9591 23.6381 39.582 24.7224 40.9491 26.0895L43.1797 23.8588ZM47.0548 29.6583C46.1564 27.4894 44.8397 25.5188 43.1797 23.8588L40.9491 26.0895C42.3161 27.4565 43.4005 29.0794 44.1403 30.8655L47.0548 29.6583ZM48.267 34.199C48.0649 32.642 47.6582 31.115 47.0548 29.6583L44.1403 30.8655C44.6372 32.0652 44.9722 33.3227 45.1385 34.6049L48.267 34.199Z" fill="white" mask="url(#path-5-outside-3_1862_8390)"/>
</svg>
