<svg width="283" height="227" viewBox="0 0 283 227" fill="none" xmlns="http://www.w3.org/2000/svg">
<g filter="url(#filter0_i_1515_12053)">
<ellipse cx="141.388" cy="149.647" rx="134.585" ry="44.0167" transform="rotate(15 141.388 149.647)" fill="#404079"/>
</g>
<g filter="url(#filter1_b_1515_12053)">
<mask id="path-2-inside-1_1515_12053" fill="white">
<path fill-rule="evenodd" clip-rule="evenodd" d="M78.5028 84.5425L44.7026 104.057C41.1475 106.11 39.9295 110.655 41.982 114.21L53.7103 134.524C54.5944 136.056 56.4312 136.719 58.1669 136.382C67.6289 134.542 77.625 138.759 82.7147 147.575C87.8045 156.391 86.4585 167.156 80.1345 174.431C78.9744 175.765 78.6306 177.688 79.5147 179.219L90.2948 197.891C92.3473 201.446 96.8931 202.664 100.448 200.611L134.261 181.089L130.554 174.669C129.528 172.892 130.137 170.619 131.915 169.593C133.692 168.566 135.965 169.175 136.991 170.953L140.698 177.373L274.246 100.269C277.801 98.2167 279.019 93.6709 276.966 90.1159L266.169 71.4137C265.285 69.884 263.451 69.2202 261.717 69.5553C252.263 71.3822 242.28 67.1648 237.195 58.3571C232.11 49.5493 233.449 38.7954 239.758 31.5211C240.915 30.1867 241.257 28.2665 240.374 26.7367L228.653 6.4356C226.601 2.88058 222.055 1.66254 218.5 3.71503L84.9397 80.8261L89.5949 88.8891C90.6211 90.6666 90.0121 92.9395 88.2346 93.9657C86.4571 94.992 84.1842 94.383 83.1579 92.6055L78.5028 84.5425ZM91.5154 107.091C90.4892 105.314 91.0982 103.041 92.8757 102.015C94.6532 100.988 96.9261 101.597 97.9524 103.375L109.101 122.686C110.128 124.463 109.519 126.736 107.741 127.762C105.964 128.789 103.691 128.18 102.665 126.402L91.5154 107.091ZM112.376 135.804C110.598 136.83 109.989 139.103 111.015 140.88L122.165 160.191C123.191 161.969 125.464 162.578 127.241 161.551C129.019 160.525 129.628 158.252 128.601 156.475L117.452 137.164C116.426 135.386 114.153 134.777 112.376 135.804Z"/>
</mask>
<path fill-rule="evenodd" clip-rule="evenodd" d="M78.5028 84.5425L44.7026 104.057C41.1475 106.11 39.9295 110.655 41.982 114.21L53.7103 134.524C54.5944 136.056 56.4312 136.719 58.1669 136.382C67.6289 134.542 77.625 138.759 82.7147 147.575C87.8045 156.391 86.4585 167.156 80.1345 174.431C78.9744 175.765 78.6306 177.688 79.5147 179.219L90.2948 197.891C92.3473 201.446 96.8931 202.664 100.448 200.611L134.261 181.089L130.554 174.669C129.528 172.892 130.137 170.619 131.915 169.593C133.692 168.566 135.965 169.175 136.991 170.953L140.698 177.373L274.246 100.269C277.801 98.2167 279.019 93.6709 276.966 90.1159L266.169 71.4137C265.285 69.884 263.451 69.2202 261.717 69.5553C252.263 71.3822 242.28 67.1648 237.195 58.3571C232.11 49.5493 233.449 38.7954 239.758 31.5211C240.915 30.1867 241.257 28.2665 240.374 26.7367L228.653 6.4356C226.601 2.88058 222.055 1.66254 218.5 3.71503L84.9397 80.8261L89.5949 88.8891C90.6211 90.6666 90.0121 92.9395 88.2346 93.9657C86.4571 94.992 84.1842 94.383 83.1579 92.6055L78.5028 84.5425ZM91.5154 107.091C90.4892 105.314 91.0982 103.041 92.8757 102.015C94.6532 100.988 96.9261 101.597 97.9524 103.375L109.101 122.686C110.128 124.463 109.519 126.736 107.741 127.762C105.964 128.789 103.691 128.18 102.665 126.402L91.5154 107.091ZM112.376 135.804C110.598 136.83 109.989 139.103 111.015 140.88L122.165 160.191C123.191 161.969 125.464 162.578 127.241 161.551C129.019 160.525 129.628 158.252 128.601 156.475L117.452 137.164C116.426 135.386 114.153 134.777 112.376 135.804Z" fill="url(#paint0_linear_1515_12053)" fill-opacity="0.9"/>
<path d="M78.5028 84.5425L78.9358 84.2925L78.6858 83.8595L78.2528 84.1095L78.5028 84.5425ZM41.982 114.21L41.549 114.46L41.982 114.21ZM53.7103 134.524L54.1433 134.274L53.7103 134.524ZM58.1669 136.382L58.2624 136.873L58.2624 136.873L58.1669 136.382ZM80.1345 174.431L79.7572 174.103L79.7572 174.103L80.1345 174.431ZM134.261 181.089L134.511 181.522L134.944 181.272L134.694 180.839L134.261 181.089ZM130.554 174.669L130.121 174.919L130.554 174.669ZM136.991 170.953L137.424 170.703L136.991 170.953ZM140.698 177.373L140.265 177.623L140.515 178.056L140.948 177.806L140.698 177.373ZM261.717 69.5553L261.812 70.0462L261.717 69.5553ZM239.758 31.5211L239.38 31.1935L239.38 31.1935L239.758 31.5211ZM84.9397 80.8261L84.6897 80.3931L84.2567 80.6431L84.5067 81.0761L84.9397 80.8261ZM89.5949 88.8891L89.1618 89.1391L89.5949 88.8891ZM91.5154 107.091L91.9484 106.841L91.5154 107.091ZM97.9524 103.375L97.5194 103.625L97.9524 103.375ZM109.101 122.686L109.534 122.436L109.101 122.686ZM102.665 126.402L102.232 126.652L102.665 126.402ZM78.2528 84.1095L44.4526 103.624L44.9526 104.49L78.7528 84.9755L78.2528 84.1095ZM44.4526 103.624C40.6584 105.815 39.3584 110.666 41.549 114.46L42.415 113.96C40.5006 110.645 41.6367 106.405 44.9526 104.49L44.4526 103.624ZM41.549 114.46L53.2773 134.774L54.1433 134.274L42.415 113.96L41.549 114.46ZM53.2773 134.774C54.2866 136.523 56.3558 137.243 58.2624 136.873L58.0715 135.891C56.5066 136.195 54.9023 135.589 54.1433 134.274L53.2773 134.774ZM58.2624 136.873C67.5213 135.073 77.3019 139.2 82.2817 147.825L83.1478 147.325C77.948 138.319 67.7365 134.012 58.0715 135.891L58.2624 136.873ZM82.2817 147.825C87.2615 156.45 85.9455 166.984 79.7572 174.103L80.5119 174.759C86.9716 167.328 88.3475 156.331 83.1478 147.325L82.2817 147.825ZM79.7572 174.103C78.4829 175.568 78.0724 177.721 79.0817 179.469L79.9477 178.969C79.1888 177.654 79.4659 175.962 80.5119 174.759L79.7572 174.103ZM79.0817 179.469L89.8618 198.141L90.7278 197.641L79.9477 178.969L79.0817 179.469ZM89.8618 198.141C92.0524 201.935 96.904 203.235 100.698 201.044L100.198 200.178C96.8823 202.093 92.6423 200.957 90.7278 197.641L89.8618 198.141ZM100.698 201.044L134.511 181.522L134.011 180.656L100.198 200.178L100.698 201.044ZM134.694 180.839L130.988 174.419L130.121 174.919L133.828 181.339L134.694 180.839ZM130.988 174.419C130.099 172.881 130.626 170.914 132.165 170.026L131.665 169.16C129.648 170.324 128.957 172.903 130.121 174.919L130.988 174.419ZM132.165 170.026C133.703 169.138 135.67 169.665 136.558 171.203L137.424 170.703C136.26 168.686 133.681 167.995 131.665 169.16L132.165 170.026ZM136.558 171.203L140.265 177.623L141.131 177.123L137.424 170.703L136.558 171.203ZM140.948 177.806L274.496 100.702L273.996 99.8362L140.448 176.94L140.948 177.806ZM274.496 100.702C278.29 98.5116 279.59 93.6601 277.399 89.8659L276.533 90.3659C278.448 93.6818 277.312 97.9218 273.996 99.8362L274.496 100.702ZM277.399 89.8659L266.602 71.1637L265.736 71.6637L276.533 90.3659L277.399 89.8659ZM266.602 71.1637C265.593 69.4174 263.527 68.6963 261.622 69.0644L261.812 70.0462C263.375 69.7441 264.977 70.3505 265.736 71.6637L266.602 71.1637ZM261.622 69.0644C252.371 70.8521 242.603 66.7245 237.628 58.1071L236.762 58.6071C241.957 67.6051 252.155 71.9123 261.812 70.0462L261.622 69.0644ZM237.628 58.1071C232.652 49.4896 233.962 38.967 240.136 31.8487L239.38 31.1935C232.935 38.6239 231.567 49.609 236.762 58.6071L237.628 58.1071ZM240.136 31.8488C241.407 30.383 241.815 28.233 240.807 26.4867L239.941 26.9867C240.699 28.2999 240.424 29.9905 239.38 31.1935L240.136 31.8488ZM240.807 26.4867L229.086 6.1856L228.22 6.6856L239.941 26.9867L240.807 26.4867ZM229.086 6.1856C226.896 2.39143 222.044 1.09145 218.25 3.28201L218.75 4.14804C222.066 2.23362 226.306 3.36972 228.22 6.6856L229.086 6.1856ZM218.25 3.28201L84.6897 80.3931L85.1897 81.2592L218.75 4.14804L218.25 3.28201ZM84.5067 81.0761L89.1618 89.1391L90.0279 88.6391L85.3727 80.5761L84.5067 81.0761ZM89.1618 89.1391C90.05 90.6774 89.5229 92.6445 87.9846 93.5327L88.4846 94.3987C90.5012 93.2344 91.1922 90.6557 90.0279 88.6391L89.1618 89.1391ZM87.9846 93.5327C86.4462 94.4209 84.4791 93.8938 83.5909 92.3555L82.7249 92.8555C83.8892 94.8721 86.4679 95.5631 88.4846 94.3987L87.9846 93.5327ZM83.5909 92.3555L78.9358 84.2925L78.0698 84.7925L82.7249 92.8555L83.5909 92.3555ZM92.6257 101.582C90.6091 102.746 89.9181 105.325 91.0824 107.341L91.9484 106.841C91.0603 105.303 91.5873 103.336 93.1257 102.448L92.6257 101.582ZM98.3854 103.125C97.2211 101.108 94.6424 100.417 92.6257 101.582L93.1257 102.448C94.6641 101.559 96.6312 102.086 97.5194 103.625L98.3854 103.125ZM109.534 122.436L98.3854 103.125L97.5194 103.625L108.668 122.936L109.534 122.436ZM107.991 128.195C110.008 127.031 110.699 124.452 109.534 122.436L108.668 122.936C109.557 124.474 109.03 126.441 107.491 127.329L107.991 128.195ZM102.232 126.652C103.396 128.669 105.975 129.36 107.991 128.195L107.491 127.329C105.953 128.218 103.986 127.69 103.098 126.152L102.232 126.652ZM91.0824 107.341L102.232 126.652L103.098 126.152L91.9484 106.841L91.0824 107.341ZM111.448 140.63C110.56 139.092 111.087 137.125 112.626 136.237L112.126 135.371C110.109 136.535 109.418 139.114 110.582 141.13L111.448 140.63ZM122.598 159.941L111.448 140.63L110.582 141.13L121.732 160.441L122.598 159.941ZM126.991 161.118C125.453 162.007 123.486 161.479 122.598 159.941L121.732 160.441C122.896 162.458 125.475 163.149 127.491 161.984L126.991 161.118ZM128.168 156.725C129.057 158.263 128.53 160.23 126.991 161.118L127.491 161.984C129.508 160.82 130.199 158.241 129.034 156.225L128.168 156.725ZM117.019 137.414L128.168 156.725L129.034 156.225L117.885 136.914L117.019 137.414ZM112.626 136.237C114.164 135.348 116.131 135.876 117.019 137.414L117.885 136.914C116.721 134.897 114.142 134.206 112.126 135.371L112.626 136.237Z" fill="url(#paint1_linear_1515_12053)" mask="url(#path-2-inside-1_1515_12053)"/>
</g>
<g filter="url(#filter2_b_1515_12053)">
<path d="M158.042 63.7405C156.856 59.2918 162.319 56.138 165.578 59.3896L180.875 74.6496C182.012 75.7837 183.667 76.227 185.218 75.8133L206.096 70.2463C210.544 69.06 213.698 74.5226 210.447 77.7822L195.187 93.0791C194.053 94.216 193.609 95.8706 194.023 97.4222L199.59 118.3C200.776 122.748 195.314 125.902 192.054 122.651L176.757 107.391C175.62 106.257 173.966 105.813 172.414 106.227L151.537 111.794C147.088 112.98 143.934 107.518 147.186 104.258L162.446 88.9611C163.58 87.8242 164.023 86.1696 163.609 84.618L158.042 63.7405Z" fill="white"/>
</g>
<defs>
<filter id="filter0_i_1515_12053" x="10.8828" y="94.6797" width="263.008" height="122.93" filterUnits="userSpaceOnUse" color-interpolation-filters="sRGB">
<feFlood flood-opacity="0" result="BackgroundImageFix"/>
<feBlend mode="normal" in="SourceGraphic" in2="BackgroundImageFix" result="shape"/>
<feColorMatrix in="SourceAlpha" type="matrix" values="0 0 0 0 0 0 0 0 0 0 0 0 0 0 0 0 0 0 127 0" result="hardAlpha"/>
<feMorphology radius="6" operator="erode" in="SourceAlpha" result="effect1_innerShadow_1515_12053"/>
<feOffset dx="2" dy="13"/>
<feGaussianBlur stdDeviation="7.5"/>
<feComposite in2="hardAlpha" operator="arithmetic" k2="-1" k3="1"/>
<feColorMatrix type="matrix" values="0 0 0 0 0.17574 0 0 0 0 0.17574 0 0 0 0 0.315195 0 0 0 0.79 0"/>
<feBlend mode="normal" in2="shape" result="effect1_innerShadow_1515_12053"/>
</filter>
<filter id="filter1_b_1515_12053" x="28.9844" y="-9.28125" width="260.977" height="222.891" filterUnits="userSpaceOnUse" color-interpolation-filters="sRGB">
<feFlood flood-opacity="0" result="BackgroundImageFix"/>
<feGaussianBlur in="BackgroundImageFix" stdDeviation="6"/>
<feComposite in2="SourceAlpha" operator="in" result="effect1_backgroundBlur_1515_12053"/>
<feBlend mode="normal" in="SourceGraphic" in2="effect1_backgroundBlur_1515_12053" result="shape"/>
</filter>
<filter id="filter2_b_1515_12053" x="118.617" y="30.8204" width="120.398" height="120.398" filterUnits="userSpaceOnUse" color-interpolation-filters="sRGB">
<feFlood flood-opacity="0" result="BackgroundImageFix"/>
<feGaussianBlur in="BackgroundImageFix" stdDeviation="13.6171"/>
<feComposite in2="SourceAlpha" operator="in" result="effect1_backgroundBlur_1515_12053"/>
<feBlend mode="normal" in="SourceGraphic" in2="effect1_backgroundBlur_1515_12053" result="shape"/>
</filter>
<linearGradient id="paint0_linear_1515_12053" x1="223.508" y1="1.22086e-05" x2="86.5078" y2="226.5" gradientUnits="userSpaceOnUse">
<stop offset="0.00520833" stop-color="#6366F1"/>
<stop offset="1" stop-color="#CACBFF"/>
</linearGradient>
<linearGradient id="paint1_linear_1515_12053" x1="203.627" y1="12.3017" x2="57.7486" y2="96.5249" gradientUnits="userSpaceOnUse">
<stop stop-color="#B1B4FC"/>
<stop offset="0.546875" stop-color="#DADCFE" stop-opacity="0.703125"/>
<stop offset="1" stop-color="#DBDDFF" stop-opacity="0"/>
</linearGradient>
</defs>
</svg>
