<svg width="200" height="126" viewBox="0 0 200 126" fill="none" xmlns="http://www.w3.org/2000/svg">
<ellipse cx="99.8707" cy="76.7646" rx="96.6774" ry="25.0645" transform="rotate(15 99.8707 76.7646)" fill="#EEEFFD"/>
<path fill-rule="evenodd" clip-rule="evenodd" d="M53.24 37.5115L31.1929 46.1798C28.8761 47.0907 27.7365 49.7072 28.6473 52.0239L33.8362 65.2213C34.228 66.2178 35.2675 66.781 36.3374 66.7366C42.1695 66.4947 47.7733 69.9221 50.0293 75.66C52.2853 81.3978 50.5162 87.724 46.0811 91.5189C45.2675 92.215 44.8899 93.3354 45.2817 94.3319L50.088 106.556C50.9989 108.873 53.6154 110.013 55.9321 109.102L77.9384 100.45L76.2635 96.1896C75.808 95.0312 76.3779 93.723 77.5362 93.2676C78.6946 92.8121 80.0028 93.382 80.4583 94.5403L82.1332 98.8003L169.192 64.5712C171.508 63.6603 172.648 61.0439 171.737 58.7271L166.935 46.5141C166.543 45.5161 165.501 44.9529 164.43 44.9991C158.589 45.2509 152.974 41.822 150.715 36.0767C148.456 30.3314 150.233 23.9961 154.681 20.2029C155.496 19.507 155.876 18.385 155.483 17.387L150.297 4.19471C149.386 1.87799 146.769 0.738322 144.452 1.6492L57.4348 35.8622L59.475 41.0513C59.9304 42.2096 59.3606 43.5179 58.2022 43.9733C57.0439 44.4287 55.7356 43.8589 55.2802 42.7005L53.24 37.5115ZM59.0176 52.1728C58.5622 51.0145 59.132 49.7062 60.2904 49.2508C61.4488 48.7954 62.757 49.3652 63.2124 50.5236L68.1603 63.108C68.6157 64.2663 68.0459 65.5746 66.8875 66.03C65.7292 66.4854 64.4209 65.9156 63.9655 64.7572L59.0176 52.1728ZM68.9343 71.2802C67.7759 71.7356 67.2061 73.0438 67.6615 74.2022L72.6094 86.7866C73.0648 87.945 74.3731 88.5148 75.5314 88.0594C76.6898 87.6039 77.2596 86.2957 76.8042 85.1373L71.8563 72.5529C71.4009 71.3946 70.0927 70.8247 68.9343 71.2802Z" fill="#898BF8"/>
<g filter="url(#filter0_b_1491_5508)">
<path d="M103.353 32.4162C103.126 30.3853 105.731 29.3608 106.948 31.0029L115.164 42.0927C115.588 42.6655 116.285 42.9691 116.994 42.8897L130.709 41.3527C132.74 41.1251 133.765 43.7307 132.123 44.9473L121.033 53.1632C120.46 53.5875 120.156 54.2845 120.236 54.9929L121.773 68.7087C122 70.7396 119.395 71.7641 118.178 70.122L109.962 59.0322C109.538 58.4594 108.841 58.1558 108.133 58.2352L94.4169 59.7722C92.386 59.9998 91.3615 57.3941 93.0036 56.1776L104.093 47.9617C104.666 47.5374 104.97 46.8403 104.89 46.132L103.353 32.4162Z" fill="white"/>
</g>
<path fill-rule="evenodd" clip-rule="evenodd" d="M176.528 54.3392C175.459 54.0614 174.818 52.9695 175.096 51.9005L181.668 26.6103C182.183 24.6271 179.738 23.2439 178.304 24.7077L139.427 64.3932C138.351 65.4913 138.865 67.3418 140.353 67.7285L153.945 71.2612C155.014 71.5391 155.655 72.6309 155.377 73.7L148.805 98.9901C148.29 100.973 150.735 102.357 152.169 100.893L191.046 61.2072C192.122 60.1092 191.608 58.2586 190.12 57.8719L176.528 54.3392Z" fill="#5C5FFA"/>
<defs>
<filter id="filter0_b_1491_5508" x="75.673" y="13.6718" width="73.7809" height="73.7812" filterUnits="userSpaceOnUse" color-interpolation-filters="sRGB">
<feFlood flood-opacity="0" result="BackgroundImageFix"/>
<feGaussianBlur in="BackgroundImageFix" stdDeviation="8.25773"/>
<feComposite in2="SourceAlpha" operator="in" result="effect1_backgroundBlur_1491_5508"/>
<feBlend mode="normal" in="SourceGraphic" in2="effect1_backgroundBlur_1491_5508" result="shape"/>
</filter>
</defs>
</svg>
