<svg width="200" height="126" viewBox="0 0 200 126" fill="none" xmlns="http://www.w3.org/2000/svg">
<ellipse cx="99.8702" cy="76.7637" rx="96.6774" ry="25.0645" transform="rotate(15 99.8702 76.7637)" fill="#EEEFFD"/>
<path fill-rule="evenodd" clip-rule="evenodd" d="M53.2395 37.5105L31.1924 46.1788C28.8756 47.0897 27.736 49.7062 28.6468 52.0229L33.8357 65.2204C34.2275 66.2169 35.2671 66.78 36.3369 66.7357C42.169 66.4938 47.7729 69.9212 50.0288 75.659C52.2848 81.3968 50.5157 87.723 46.0806 91.5179C45.267 92.2141 44.8894 93.3344 45.2812 94.3309L50.0875 106.555C50.9984 108.872 53.6149 110.012 55.9316 109.101L77.9379 100.449L76.263 96.1886C75.8075 95.0303 76.3774 93.722 77.5357 93.2666C78.6941 92.8111 80.0023 93.381 80.4578 94.5393L82.1327 98.7993L169.191 64.5702C171.508 63.6594 172.648 61.0429 171.737 58.7262L166.935 46.5131C166.543 45.5151 165.501 44.9519 164.429 44.9981C158.589 45.2499 152.973 41.8211 150.714 36.0757C148.455 30.3304 150.232 23.9951 154.68 20.2019C155.496 19.5061 155.875 18.3841 155.483 17.3861L150.296 4.19374C149.385 1.87701 146.769 0.737345 144.452 1.64822L57.4343 35.8612L59.4745 41.0503C59.93 42.2086 59.3601 43.5169 58.2018 43.9723C57.0434 44.4278 55.7351 43.8579 55.2797 42.6996L53.2395 37.5105ZM59.0171 52.1719C58.5617 51.0135 59.1315 49.7053 60.2899 49.2498C61.4483 48.7944 62.7565 49.3642 63.2119 50.5226L68.1598 63.107C68.6152 64.2653 68.0454 65.5736 66.887 66.029C65.7287 66.4845 64.4204 65.9146 63.965 64.7563L59.0171 52.1719ZM68.9338 71.2792C67.7754 71.7346 67.2056 73.0429 67.661 74.2012L72.6089 86.7856C73.0643 87.944 74.3726 88.5138 75.5309 88.0584C76.6893 87.603 77.2591 86.2947 76.8037 85.1363L71.8558 72.5519C71.4004 71.3936 70.0922 70.8237 68.9338 71.2792Z" fill="#898BF8"/>
<g filter="url(#filter0_b_1491_5508)">
<path d="M103.353 32.4152C103.125 30.3843 105.731 29.3598 106.947 31.0019L115.163 42.0917C115.588 42.6645 116.285 42.9681 116.993 42.8887L130.709 41.3517C132.74 41.1241 133.764 43.7298 132.122 44.9463L121.032 53.1622C120.46 53.5865 120.156 54.2836 120.235 54.9919L121.772 68.7077C122 70.7386 119.394 71.7631 118.178 70.121L109.962 59.0312C109.538 58.4584 108.841 58.1548 108.132 58.2342L94.4164 59.7712C92.3855 59.9988 91.361 57.3931 93.0031 56.1766L104.093 47.9607C104.666 47.5364 104.969 46.8393 104.89 46.131L103.353 32.4152Z" fill="white"/>
</g>
<path fill-rule="evenodd" clip-rule="evenodd" d="M176.528 54.3395C175.459 54.0616 174.817 52.9698 175.095 51.9007L181.668 26.6106C182.183 24.6273 179.737 23.2441 178.303 24.7079L139.426 64.3935C138.351 65.4915 138.864 67.3421 140.352 67.7288L153.944 71.2615C155.013 71.5393 155.655 72.6312 155.377 73.7002L148.804 98.9904C148.289 100.974 150.735 102.357 152.169 100.893L191.046 61.2074C192.121 60.1094 191.608 58.2588 190.12 57.8722L176.528 54.3395Z" fill="#5C5FFA"/>
<defs>
<filter id="filter0_b_1491_5508" x="75.672" y="13.672" width="73.7809" height="73.7809" filterUnits="userSpaceOnUse" color-interpolation-filters="sRGB">
<feFlood flood-opacity="0" result="BackgroundImageFix"/>
<feGaussianBlur in="BackgroundImageFix" stdDeviation="8.25773"/>
<feComposite in2="SourceAlpha" operator="in" result="effect1_backgroundBlur_1491_5508"/>
<feBlend mode="normal" in="SourceGraphic" in2="effect1_backgroundBlur_1491_5508" result="shape"/>
</filter>
</defs>
</svg>
