<svg width="33" height="18" viewBox="0 0 33 18" fill="none" xmlns="http://www.w3.org/2000/svg">
<path fill-rule="evenodd" clip-rule="evenodd" d="M7.11072 0.465576L1.13793 0.465576C0.509468 0.465576 0 0.975045 0 1.60351L0 5.18919C0 5.45972 0.192509 5.68819 0.448244 5.77644C1.84235 6.25753 2.84375 7.58122 2.84375 9.1388C2.84375 10.6964 1.84235 12.0201 0.448244 12.5012C0.192509 12.5894 0 12.8179 0 13.0884L0 16.3966C0 17.0251 0.509468 17.5345 1.13793 17.5345H7.11072V16.3953C7.11072 16.081 7.36546 15.8263 7.67969 15.8263C7.99392 15.8263 8.24865 16.081 8.24865 16.3953L8.24865 17.5345H31.8621C32.4905 17.5345 33 17.0251 33 16.3966V13.0893C33 12.8186 32.8073 12.5901 32.5513 12.5019C31.156 12.0215 30.1536 10.6972 30.1536 9.1388C30.1536 7.58038 31.156 6.25611 32.5513 5.77567C32.8073 5.68753 33 5.45897 33 5.18827V1.60351C33 0.975045 32.4905 0.465576 31.8621 0.465576L8.24865 0.465576V1.88853C8.24865 2.20276 7.99392 2.45749 7.67969 2.45749C7.36546 2.45749 7.11072 2.20276 7.11072 1.88853V0.465576ZM7.11072 4.44995C7.11072 4.13572 7.36546 3.88099 7.67969 3.88099C7.99392 3.88099 8.24865 4.13572 8.24865 4.44995V7.86374C8.24865 8.17798 7.99392 8.43271 7.67969 8.43271C7.36546 8.43271 7.11072 8.17798 7.11072 7.86374V4.44995ZM7.67969 9.84974C7.36546 9.84974 7.11072 10.1045 7.11072 10.4187V13.8325C7.11072 14.1467 7.36546 14.4015 7.67969 14.4015C7.99392 14.4015 8.24865 14.1467 8.24865 13.8325V10.4187C8.24865 10.1045 7.99392 9.84974 7.67969 9.84974Z" fill="#898BF8"/>
<g filter="url(#filter0_b_1491_5492)">
<path d="M19.2493 3.79888C19.4326 3.11825 20.3983 3.11825 20.5815 3.79889L21.4415 6.99309C21.5055 7.23049 21.6909 7.41593 21.9283 7.47985L25.1225 8.33988C25.8031 8.52314 25.8031 9.48883 25.1225 9.67209L21.9283 10.5321C21.6909 10.596 21.5055 10.7815 21.4415 11.0189L20.5815 14.2131C20.3983 14.8937 19.4326 14.8937 19.2493 14.2131L18.3893 11.0189C18.3254 10.7815 18.1399 10.596 17.9025 10.5321L14.7083 9.67209C14.0277 9.48883 14.0277 8.52314 14.7083 8.33988L17.9025 7.47985C18.1399 7.41593 18.3254 7.23049 18.3893 6.99309L19.2493 3.79888Z" fill="white"/>
</g>
<defs>
<filter id="filter0_b_1491_5492" x="10.0288" y="-0.881153" width="19.7735" height="19.7743" filterUnits="userSpaceOnUse" color-interpolation-filters="sRGB">
<feFlood flood-opacity="0" result="BackgroundImageFix"/>
<feGaussianBlur in="BackgroundImageFix" stdDeviation="2.08474"/>
<feComposite in2="SourceAlpha" operator="in" result="effect1_backgroundBlur_1491_5492"/>
<feBlend mode="normal" in="SourceGraphic" in2="effect1_backgroundBlur_1491_5492" result="shape"/>
</filter>
</defs>
</svg>
