<svg width="30" height="23" viewBox="0 0 30 23" fill="none" xmlns="http://www.w3.org/2000/svg">
<rect width="30" height="23" fill="#F1F1F1"/>
<g id="1.2.1 - &#237;&#139;&#176;&#236;&#188;&#147; &#236;&#134;&#140;&#235;&#170;&#168; &#237;&#155;&#132; (&#237;&#149;&#156;&#236;&#164;&#132;&#236;&#182;&#148;&#236;&#178;&#156;&#236;&#130;&#172; &#236;&#151;&#180;&#235;&#158;&#140; &#234;&#176;&#128;&#235;&#138;&#165;) - &#236;&#167;&#132;&#236;&#154;&#176;/&#235;&#175;&#188;&#236;&#160;&#149;">
<rect id="Rectangle 2908" x="-2367" y="-2270" width="4170" height="6009" rx="11" stroke="black" stroke-width="18"/>
<g id="1.2.1 - &#237;&#139;&#176;&#236;&#188;&#147; &#236;&#134;&#140;&#235;&#170;&#168; &#237;&#155;&#132; (&#237;&#149;&#156;&#236;&#164;&#132;&#236;&#182;&#148;&#236;&#178;&#156;&#236;&#130;&#172; &#236;&#151;&#180;&#235;&#158;&#140; &#234;&#176;&#128;&#235;&#138;&#165;)">
<rect width="1536" height="3062" transform="translate(-1264 -2022)" fill="white"/>
<g id="Group 39766">
<g id="Group 39784">
<g id="Group 39783">
<rect id="Rectangle 2928" x="-1108.5" y="-56.5" width="1224" height="928" rx="11.5" fill="#F9F9FA" stroke="#EEEFFD"/>
<g id="Group 39757">
<rect id="Rectangle 2929" x="-1072.5" y="-25.5" width="1148" height="187" rx="11.5" fill="white" stroke="#898BF8"/>
<path id="Vector" d="M23.1815 13.8277C23.515 13.8277 23.835 13.7754 24.1536 13.7278C24.0504 14.0842 23.9442 14.4468 23.7737 14.7725C23.6032 15.2458 23.337 15.656 23.0723 16.0693C22.8509 16.5164 22.4606 16.819 22.1735 17.2016C21.8728 17.5734 21.4631 17.8208 21.1385 18.1296C20.82 18.4522 20.4027 18.6136 20.0707 18.8409C19.7237 19.0453 19.4216 19.2711 19.0986 19.3787L18.2925 19.7198L17.5836 20.0224L18.309 23L19.2018 22.7788C19.4874 22.705 19.8359 22.619 20.2322 22.516C20.6375 22.4392 21.0697 22.2287 21.5513 22.0367C22.0269 21.8185 22.5773 21.671 23.0887 21.3207C23.6032 20.9858 24.1969 20.7061 24.7204 20.2575C25.2274 19.7951 25.839 19.3941 26.2907 18.8056C26.7842 18.2556 27.2718 17.6779 27.6502 17.0203C28.0883 16.3935 28.386 15.7051 28.7 15.0245C28.9842 14.3439 29.213 13.6479 29.3999 12.9719C29.7544 11.6168 29.9129 10.3293 29.9742 9.22766C30.0251 8.12452 29.9952 7.20728 29.9324 6.54355C29.9099 6.23013 29.8681 5.92592 29.8381 5.71543L29.8008 5.45732L29.7619 5.46653C29.4959 4.19004 28.8835 3.017 27.9957 2.08309C27.1078 1.14919 25.9808 0.492586 24.7448 0.189249C23.5089 -0.114088 22.2147 -0.0517712 21.0118 0.368994C19.8089 0.789761 18.7465 1.55178 17.9476 2.5669C17.1487 3.58203 16.6458 4.80877 16.4972 6.10522C16.3486 7.40168 16.5603 8.71487 17.1078 9.89289C17.6554 11.0709 18.5163 12.0656 19.5912 12.7619C20.666 13.4583 21.9108 13.8277 23.1815 13.8277ZM6.73042 13.8277C7.06393 13.8277 7.38398 13.7754 7.70253 13.7278C7.59933 14.0842 7.49315 14.4468 7.32266 14.7725C7.15217 15.2458 6.88596 15.656 6.62125 16.0693C6.39991 16.5164 6.00957 16.819 5.72242 17.2016C5.42182 17.5734 5.01204 17.8208 4.6875 18.1296C4.36895 18.4522 3.95169 18.6136 3.61968 18.8409C3.27271 19.0453 2.97061 19.2711 2.64758 19.3787L1.84147 19.7198L1.13258 20.0224L1.85793 23L2.75077 22.7788C3.03642 22.705 3.38488 22.619 3.7812 22.516C4.18649 22.4392 4.61871 22.2287 5.10027 22.0367C5.57436 21.817 6.12622 21.671 6.6377 21.3192C7.15217 20.9842 7.7459 20.7046 8.26934 20.256C8.77633 19.7935 9.38801 19.3925 9.83967 18.8056C10.3332 18.2556 10.8207 17.6779 11.1991 17.0203C11.6373 16.3935 11.9349 15.7051 12.249 15.0245C12.5331 14.3439 12.762 13.6479 12.9489 12.9719C13.3034 11.6168 13.4619 10.3293 13.5232 9.22766C13.5741 8.12452 13.5441 7.20728 13.4813 6.54355C13.4589 6.23013 13.417 5.92592 13.3871 5.71543L13.3497 5.45732L13.3108 5.46653C13.0448 4.19004 12.4325 3.017 11.5446 2.08309C10.6568 1.14919 9.52973 0.492586 8.29381 0.189249C7.05789 -0.114088 5.76363 -0.0517712 4.56075 0.368994C3.35787 0.789761 2.29552 1.55178 1.49659 2.5669C0.697662 3.58203 0.194805 4.80877 0.0461903 6.10522C-0.102423 7.40168 0.109276 8.71487 0.656801 9.89289C1.20433 11.0709 2.0653 12.0656 3.14013 12.7619C4.21496 13.4583 5.45972 13.8277 6.73042 13.8277Z" fill="#5C5FFA"/>
</g>
</g>
</g>
</g>
</g>
</g>
</svg>
