<svg width="30" height="23" viewBox="0 0 30 23" fill="none" xmlns="http://www.w3.org/2000/svg">
<rect width="30" height="23" fill="#F1F1F1"/>
<g id="1.2.1 - &#237;&#139;&#176;&#236;&#188;&#147; &#236;&#134;&#140;&#235;&#170;&#168; &#237;&#155;&#132; (&#237;&#149;&#156;&#236;&#164;&#132;&#236;&#182;&#148;&#236;&#178;&#156;&#236;&#130;&#172; &#236;&#151;&#180;&#235;&#158;&#140; &#234;&#176;&#128;&#235;&#138;&#165;) - &#236;&#167;&#132;&#236;&#154;&#176;/&#235;&#175;&#188;&#236;&#160;&#149;">
<rect id="Rectangle 2908" x="-1329" y="-2270" width="4170" height="6009" rx="11" stroke="black" stroke-width="18"/>
<g id="1.2.1 - &#237;&#139;&#176;&#236;&#188;&#147; &#236;&#134;&#140;&#235;&#170;&#168; &#237;&#155;&#132; (&#237;&#149;&#156;&#236;&#164;&#132;&#236;&#182;&#148;&#236;&#178;&#156;&#236;&#130;&#172; &#236;&#151;&#180;&#235;&#158;&#140; &#234;&#176;&#128;&#235;&#138;&#165;)">
<rect width="1536" height="3062" transform="translate(-226 -2022)" fill="white"/>
<g id="Group 39766">
<g id="Group 39784">
<g id="Group 39783">
<rect id="Rectangle 2928" x="-70.5" y="-56.5" width="1224" height="928" rx="11.5" fill="#F9F9FA" stroke="#EEEFFD"/>
<g id="Group 39757">
<rect id="Rectangle 2929" x="-34.5" y="-25.5" width="1148" height="187" rx="11.5" fill="white" stroke="#898BF8"/>
<path id="Vector" d="M6.81855 9.17234C6.48504 9.17234 6.16499 9.22458 5.84644 9.27221C5.94963 8.91576 6.05582 8.55317 6.22631 8.22745C6.3968 7.75424 6.66301 7.34402 6.92772 6.93073C7.14906 6.48363 7.5394 6.18096 7.82655 5.7984C8.12715 5.42659 8.53693 5.17922 8.86147 4.87041C9.18002 4.54776 9.59727 4.38644 9.92929 4.15905C10.2763 3.95471 10.5784 3.72886 10.9014 3.62131L11.7075 3.28023L12.4164 2.97755L11.691 0L10.7982 0.221242C10.5126 0.294989 10.1641 0.381028 9.76777 0.483967C9.36247 0.560788 8.93026 0.771276 8.44869 0.963326C7.97311 1.1815 7.42275 1.32899 6.91127 1.67929C6.3968 2.01423 5.80307 2.29385 5.27963 2.74248C4.77264 3.20494 4.16096 3.60595 3.7093 4.19439C3.21577 4.74442 2.72822 5.32211 2.34985 5.97969C1.91165 6.60655 1.61404 7.29486 1.29997 7.97548C1.01582 8.65611 0.786998 9.3521 0.600055 10.0281C0.24561 11.3832 0.0870817 12.6707 0.0257642 13.7723C-0.0250845 14.8755 0.00482651 15.7927 0.0676395 16.4564C0.0900728 16.7699 0.131948 17.0741 0.161859 17.2846L0.199248 17.5427L0.238132 17.5335C0.504132 18.81 1.11647 19.983 2.00432 20.9169C2.89217 21.8508 4.01924 22.5074 5.25516 22.8108C6.49108 23.1141 7.78534 23.0518 8.98822 22.631C10.1911 22.2102 11.2535 21.4482 12.0524 20.4331C12.8513 19.418 13.3542 18.1912 13.5028 16.8948C13.6514 15.5983 13.4397 14.2851 12.8922 13.1071C12.3446 11.9291 11.4837 10.9344 10.4088 10.2381C9.33401 9.54175 8.08925 9.17226 6.81855 9.17234ZM23.2696 9.17234C22.9361 9.17234 22.616 9.22458 22.2975 9.27221C22.4007 8.91576 22.5068 8.55317 22.6773 8.22745C22.8478 7.75424 23.114 7.34402 23.3788 6.93073C23.6001 6.48363 23.9904 6.18096 24.2776 5.7984C24.5782 5.42659 24.988 5.17922 25.3125 4.87041C25.631 4.54776 26.0483 4.38644 26.3803 4.15905C26.7273 3.95471 27.0294 3.72886 27.3524 3.62131L28.1585 3.28023L28.8674 2.97755L28.1421 0L27.2492 0.221242C26.9636 0.294989 26.6151 0.381028 26.2188 0.483967C25.8135 0.560788 25.3813 0.771276 24.8997 0.963326C24.4256 1.18303 23.8738 1.32899 23.3623 1.68083C22.8478 2.01576 22.2541 2.29539 21.7307 2.74402C21.2237 3.20648 20.612 3.60748 20.1603 4.19439C19.6668 4.74442 19.1793 5.32211 18.8009 5.97969C18.3627 6.60655 18.0651 7.29486 17.751 7.97548C17.4669 8.65611 17.238 9.3521 17.0511 10.0281C16.6966 11.3832 16.5381 12.6707 16.4768 13.7723C16.4259 14.8755 16.4559 15.7927 16.5187 16.4564C16.5411 16.7699 16.583 17.0741 16.6129 17.2846L16.6503 17.5427L16.6892 17.5335C16.9552 18.81 17.5675 19.983 18.4554 20.9169C19.3432 21.8508 20.4703 22.5074 21.7062 22.8108C22.9421 23.1141 24.2364 23.0518 25.4393 22.631C26.6421 22.2102 27.7045 21.4482 28.5034 20.4331C29.3023 19.418 29.8052 18.1912 29.9538 16.8948C30.1024 15.5983 29.8907 14.2851 29.3432 13.1071C28.7957 11.9291 27.9347 10.9344 26.8599 10.2381C25.785 9.54175 24.5403 9.17226 23.2696 9.17234Z" fill="#5C5FFA"/>
</g>
</g>
</g>
</g>
</g>
</g>
</svg>
