<svg width="247" height="254" viewBox="0 0 247 254" fill="none" xmlns="http://www.w3.org/2000/svg">
<ellipse cx="134.616" cy="79.3758" rx="29.2101" ry="28.5751" fill="#5C5FFA"/>
<path d="M173.949 182.881C187.996 182.881 199.829 171.072 194.454 158.094C191.199 150.236 186.428 143.096 180.413 137.081C174.399 131.067 167.259 126.296 159.4 123.041C151.542 119.786 143.12 118.11 134.614 118.11C126.108 118.11 117.686 119.786 109.827 123.041C101.969 126.296 94.8289 131.067 88.8145 137.081C82.8 143.096 78.0291 150.236 74.7741 158.094C69.3984 171.072 81.2314 182.881 95.2788 182.881H134.614H173.949Z" fill="#5C5FFA"/>
<g filter="url(#filter0_b_743_8907)">
<mask id="path-3-inside-1_743_8907" fill="white">
<path d="M233.615 167.419C237.843 168.702 240.256 173.182 238.691 177.314C228.548 204.096 209.021 226.407 183.604 239.987C155.827 254.829 123.292 258.028 93.1562 248.882C63.0205 239.735 37.7526 218.991 22.9111 191.215C9.33048 165.798 5.49789 136.397 11.9526 108.496C12.9484 104.191 17.4442 101.807 21.6721 103.091L127.644 135.255L233.615 167.419Z"/>
</mask>
<path d="M233.615 167.419C237.843 168.702 240.256 173.182 238.691 177.314C228.548 204.096 209.021 226.407 183.604 239.987C155.827 254.829 123.292 258.028 93.1562 248.882C63.0205 239.735 37.7526 218.991 22.9111 191.215C9.33048 165.798 5.49789 136.397 11.9526 108.496C12.9484 104.191 17.4442 101.807 21.6721 103.091L127.644 135.255L233.615 167.419Z" fill="#A7A8F8" fill-opacity="0.44"/>
<path d="M233.615 167.419C237.843 168.702 240.256 173.182 238.691 177.314C228.548 204.096 209.021 226.407 183.604 239.987C155.827 254.829 123.292 258.028 93.1562 248.882C63.0205 239.735 37.7526 218.991 22.9111 191.215C9.33048 165.798 5.49789 136.397 11.9526 108.496C12.9484 104.191 17.4442 101.807 21.6721 103.091L127.644 135.255L233.615 167.419Z" stroke="url(#paint0_linear_743_8907)" stroke-width="2.72978" mask="url(#path-3-inside-1_743_8907)"/>
</g>
<path d="M38.8899 17.8704C39.1735 14.9203 43.1078 14.1243 44.5159 16.7322L54.5462 35.309C55.0213 36.1889 55.9035 36.7742 56.8989 36.8699L77.9138 38.8901C80.8639 39.1737 81.6599 43.108 79.052 44.5161L60.4752 54.5464C59.5953 55.0215 59.01 55.9037 58.9143 56.8991L56.8941 77.914C56.6106 80.8641 52.6762 81.6601 51.2681 79.0522L41.2378 60.4754C40.7627 59.5955 39.8805 59.0102 38.8851 58.9145L17.8702 56.8943C14.9201 56.6107 14.1241 52.6764 16.732 51.2683L35.3088 41.238C36.1887 40.7629 36.774 39.8807 36.8697 38.8853L38.8899 17.8704Z" fill="#898BF8"/>
<defs>
<filter id="filter0_b_743_8907" x="0.70911" y="94.5548" width="246.652" height="167.635" filterUnits="userSpaceOnUse" color-interpolation-filters="sRGB">
<feFlood flood-opacity="0" result="BackgroundImageFix"/>
<feGaussianBlur in="BackgroundImageFix" stdDeviation="4.09466"/>
<feComposite in2="SourceAlpha" operator="in" result="effect1_backgroundBlur_743_8907"/>
<feBlend mode="normal" in="SourceGraphic" in2="effect1_backgroundBlur_743_8907" result="shape"/>
</filter>
<linearGradient id="paint0_linear_743_8907" x1="219.278" y1="254" x2="33.6854" y2="254" gradientUnits="userSpaceOnUse">
<stop stop-color="#B1B4FC"/>
<stop offset="0.546875" stop-color="#DADCFE" stop-opacity="0.703125"/>
<stop offset="1" stop-color="#DBDDFF" stop-opacity="0"/>
</linearGradient>
</defs>
</svg>
