<svg width="28" height="24" viewBox="0 0 28 24" fill="none" xmlns="http://www.w3.org/2000/svg">
<path d="M27.0607 10.9393C27.6464 11.5251 27.6464 12.4749 27.0607 13.0607L17.5147 22.6066C16.9289 23.1924 15.9792 23.1924 15.3934 22.6066C14.8076 22.0208 14.8076 21.0711 15.3934 20.4853L23.8787 12L15.3934 3.51472C14.8076 2.92893 14.8076 1.97919 15.3934 1.3934C15.9792 0.807611 16.9289 0.807611 17.5147 1.3934L27.0607 10.9393ZM2 13.5C1.17157 13.5 0.5 12.8284 0.5 12C0.5 11.1716 1.17157 10.5 2 10.5V13.5ZM26 13.5H2V10.5H26V13.5Z" fill="white"/>
</svg>
