<svg width="27" height="22" viewBox="0 0 27 22" fill="none" xmlns="http://www.w3.org/2000/svg">
<g id="Group 39846">
<path id="Subtract" fill-rule="evenodd" clip-rule="evenodd" d="M4.36329 9.08437L0.641562 11.2331C0.287237 11.4377 0.165836 11.8908 0.370406 12.2451L1.67154 14.4987C1.75936 14.6508 1.94158 14.7173 2.11378 14.6828C3.13646 14.4776 4.21999 14.9313 4.77041 15.8846C5.32083 16.838 5.17197 18.0032 4.48296 18.7863C4.36694 18.9182 4.33341 19.1092 4.42123 19.2613L5.62959 21.3543C5.83416 21.7086 6.28724 21.83 6.64156 21.6254L10.3636 19.4765L9.96563 18.7872C9.86335 18.61 9.92405 18.3835 10.1012 18.2812C10.2784 18.1789 10.5049 18.2396 10.6072 18.4168L11.0052 19.1061L25.4502 10.7662C25.8046 10.5617 25.926 10.1086 25.7214 9.75426L24.5161 7.66659C24.4277 7.51351 24.2438 7.44725 24.0708 7.48324C23.0431 7.69694 21.9505 7.24353 21.397 6.28485C20.8435 5.32617 20.9972 4.15327 21.6961 3.37011C21.8138 3.23824 21.8483 3.04589 21.7599 2.89282L20.4622 0.645077C20.2576 0.290753 19.8046 0.169353 19.4502 0.373922L5.00485 8.71396L5.50746 9.58451C5.60975 9.76167 5.54905 9.98821 5.37189 10.0905C5.19472 10.1928 4.96819 10.1321 4.8659 9.95491L4.36329 9.08437ZM5.76416 11.5142C5.66187 11.3371 5.72257 11.1105 5.89974 11.0082C6.0769 10.906 6.30344 10.9667 6.40572 11.1438L7.60572 13.2223C7.708 13.3994 7.6473 13.626 7.47014 13.7283C7.29298 13.8306 7.06644 13.7699 6.96416 13.5927L5.76416 11.5142ZM7.99204 14.6429C7.81487 14.7452 7.75417 14.9717 7.85646 15.1489L9.05646 17.2273C9.15874 17.4045 9.38528 17.4652 9.56244 17.3629C9.73961 17.2606 9.80031 17.0341 9.69802 16.8569L8.49802 14.7785C8.39574 14.6013 8.1692 14.5406 7.99204 14.6429Z" fill="#898BF8"/>
<g id="Star 17" filter="url(#filter0_b_1820_18235)">
<path d="M12.8602 6.73779C12.742 6.29439 13.2864 5.98006 13.6113 6.30415L15.3667 8.0553C15.48 8.16834 15.6449 8.21253 15.7996 8.17129L18.1954 7.53245C18.6388 7.41422 18.9531 7.95867 18.629 8.28354L16.8778 10.0389C16.7648 10.1523 16.7206 10.3172 16.7619 10.4718L17.4007 12.8676C17.5189 13.311 16.9745 13.6254 16.6496 13.3013L14.8942 11.5501C14.7809 11.4371 14.616 11.3929 14.4613 11.4341L12.0655 12.073C11.6221 12.1912 11.3078 11.6468 11.6319 11.3219L13.383 9.56647C13.4961 9.45316 13.5403 9.28825 13.499 9.1336L12.8602 6.73779Z" fill="white"/>
</g>
</g>
<defs>
<filter id="filter0_b_1820_18235" x="8.7856" y="3.4565" width="12.6905" height="12.6925" filterUnits="userSpaceOnUse" color-interpolation-filters="sRGB">
<feFlood flood-opacity="0" result="BackgroundImageFix"/>
<feGaussianBlur in="BackgroundImageFix" stdDeviation="1.3572"/>
<feComposite in2="SourceAlpha" operator="in" result="effect1_backgroundBlur_1820_18235"/>
<feBlend mode="normal" in="SourceGraphic" in2="effect1_backgroundBlur_1820_18235" result="shape"/>
</filter>
</defs>
</svg>
