<svg width="204" height="42" viewBox="0 0 204 42" fill="none" xmlns="http://www.w3.org/2000/svg">
<path d="M22.7501 4.84762C22.795 4.63149 22.6563 4.4194 22.4393 4.37899C18.2633 3.60154 13.9427 4.24773 10.1723 6.22072C6.2837 8.25555 3.22096 11.5757 1.50592 15.6156C-0.209114 19.6554 -0.470337 24.1649 0.766762 28.3758C2.00386 32.5866 4.66274 36.2382 8.29036 38.7084C11.918 41.1787 16.2899 42.3146 20.6612 41.9228C25.0324 41.531 29.1326 39.6356 32.2631 36.5596C35.3936 33.4836 37.3606 29.4173 37.8291 25.0536C38.2834 20.8224 37.3015 16.5655 35.048 12.9648C34.9309 12.7777 34.6827 12.7264 34.4981 12.8474L32.5239 14.1416C32.3393 14.2626 32.2882 14.5102 32.4045 14.6978C34.2577 17.6866 35.0634 21.2121 34.6872 24.7162C34.2967 28.3531 32.6573 31.742 30.0483 34.3056C27.4393 36.8692 24.0222 38.4489 20.379 38.7754C16.7359 39.102 13.0923 38.1552 10.0689 36.0965C7.04561 34.0378 4.82965 30.9944 3.79862 27.485C2.7676 23.9756 2.98531 20.2173 4.41466 16.8504C5.84401 13.4835 8.39655 10.7164 11.6374 9.02055C14.76 7.38654 18.3355 6.84447 21.7955 7.47356C22.0127 7.51305 22.2243 7.37483 22.2693 7.1587L22.7501 4.84762Z" fill="#3134E9"/>
<g filter="url(#filter0_b_678_7159)">
<path d="M15.3557 13.0806C15.3567 12.2638 16.4377 11.9741 16.847 12.681L20.7895 19.4906C20.9323 19.7372 21.1955 19.8892 21.4804 19.8895L29.349 19.8991C30.1659 19.9 30.4555 20.981 29.7486 21.3903L22.939 25.3329C22.6924 25.4756 22.5404 25.7388 22.5401 26.0237L22.5306 33.8923C22.5296 34.7092 21.4486 34.9988 21.0393 34.2919L17.0967 27.4823C16.954 27.2357 16.6908 27.0837 16.4059 27.0834L8.53732 27.0739C7.72044 27.0729 7.43079 25.9919 8.13773 25.5826L14.9473 21.6401C15.1939 21.4973 15.3459 21.2341 15.3462 20.9492L15.3557 13.0806Z" fill="#3134E9"/>
</g>
<path d="M49.4582 14.2122C49.3109 13.7011 49.6945 13.1914 50.2264 13.1914H53.0993C53.4681 13.1914 53.789 13.4436 53.8761 13.802L57.1037 27.0771C57.1155 27.1255 57.1588 27.1595 57.2087 27.1595C57.2577 27.1595 57.3005 27.1266 57.3131 27.0792L60.8355 13.7861C60.9284 13.4355 61.2456 13.1914 61.6082 13.1914H64.3028C64.6656 13.1914 64.9829 13.4357 65.0757 13.7865L68.5984 27.107C68.6109 27.1543 68.6537 27.1873 68.7027 27.1873C68.7525 27.1873 68.7958 27.1532 68.8076 27.1048L72.0327 13.8025C72.1197 13.4439 72.4407 13.1914 72.8097 13.1914H75.682C76.214 13.1914 76.5975 13.7012 76.4502 14.2123L71.1492 32.5993C71.0505 32.9415 70.7373 33.1772 70.3811 33.1772H67.4921C67.1366 33.1772 66.8238 32.9425 66.7245 32.6012L63.0744 20.0618C63.0604 20.014 63.0166 19.9811 62.9668 19.9811C62.9171 19.9811 62.8733 20.0139 62.8593 20.0616L59.1821 32.6027C59.0822 32.9433 58.7698 33.1772 58.4149 33.1772H55.5248C55.1685 33.1772 54.8552 32.9415 54.7566 32.5992L49.4582 14.2122Z" fill="#3134E9"/>
<path d="M113.922 32.3778C113.922 32.8193 113.564 33.1772 113.123 33.1772H110.636C110.377 33.1772 110.134 33.0522 109.984 32.8417L101.208 20.5257C101.187 20.4959 101.153 20.4782 101.116 20.4782C101.053 20.4782 101.003 20.5289 101.003 20.5915V32.3778C101.003 32.8193 100.645 33.1772 100.203 33.1772H97.5338C97.0923 33.1772 96.7344 32.8193 96.7344 32.3778V13.9908C96.7344 13.5493 97.0923 13.1914 97.5338 13.1914H100.077C100.336 13.1914 100.579 13.3172 100.729 13.5289L109.443 25.8347C109.467 25.8697 109.508 25.8905 109.55 25.8905C109.623 25.8905 109.682 25.8313 109.682 25.7584V13.9908C109.682 13.5493 110.04 13.1914 110.482 13.1914H113.123C113.564 13.1914 113.922 13.5493 113.922 13.9908V32.3778Z" fill="#3134E9"/>
<path d="M115.922 13.9908C115.922 13.5493 116.28 13.1914 116.721 13.1914H132.31C132.752 13.1914 133.11 13.5493 133.11 13.9908V15.8155C133.11 16.257 132.752 16.6149 132.31 16.6149H127.607C127.165 16.6149 126.807 16.9728 126.807 17.4144V32.3778C126.807 32.8193 126.449 33.1772 126.008 33.1772H123.378C122.936 33.1772 122.578 32.8193 122.578 32.3778V17.4144C122.578 16.9728 122.22 16.6149 121.779 16.6149H116.721C116.28 16.6149 115.922 16.257 115.922 15.8155V13.9908Z" fill="#3134E9"/>
<path d="M135.5 13.9908C135.5 13.5493 135.858 13.1914 136.299 13.1914H148.242C148.682 13.1914 149.039 13.5469 149.041 13.9869L149.05 15.8111C149.052 16.2541 148.694 16.6145 148.251 16.6145H140.483C140.041 16.6145 139.683 16.9724 139.683 17.4139V20.6734C139.683 21.1149 140.041 21.4728 140.483 21.4728H147.595C148.041 21.4728 148.401 21.8375 148.394 22.2834L148.369 24.1075C148.363 24.5447 148.007 24.8958 147.57 24.8958H140.483C140.041 24.8958 139.683 25.2538 139.683 25.6953V28.9547C139.683 29.3963 140.041 29.7542 140.483 29.7542H148.289C148.731 29.7542 149.089 30.1133 149.088 30.5556L149.084 32.3798C149.083 32.8205 148.725 33.1772 148.284 33.1772H136.299C135.858 33.1772 135.5 32.8193 135.5 32.3778V13.9908Z" fill="#3134E9"/>
<path d="M152.616 33.1772C152.066 33.1772 151.68 32.635 151.861 32.1155L158.246 13.7286C158.358 13.407 158.661 13.1914 159.001 13.1914H163.199C163.54 13.1914 163.843 13.4075 163.955 13.7296L170.312 32.1166C170.491 32.6358 170.106 33.1772 169.556 33.1772H166.806C166.461 33.1772 166.154 32.9549 166.047 32.6262L164.9 29.1185C164.792 28.7898 164.486 28.5675 164.14 28.5675H158.056C157.71 28.5675 157.403 28.7898 157.296 29.1185L156.149 32.6262C156.042 32.9549 155.735 33.1772 155.389 33.1772H152.616ZM163.666 25.3379C163.667 25.3379 163.668 25.3365 163.668 25.3352L161.188 17.7562C161.175 17.7167 161.138 17.6901 161.097 17.6901C161.055 17.6901 161.018 17.7167 161.005 17.7562L158.867 24.2898C158.698 24.8066 159.083 25.3379 159.627 25.3379H163.666Z" fill="#3134E9"/>
<path d="M76.28 33.1772C75.728 33.1772 75.3421 32.631 75.5265 32.1107L82.0448 13.7237C82.1579 13.4046 82.4597 13.1914 82.7983 13.1914H87.1151C87.454 13.1914 87.7561 13.4051 87.869 13.7248L94.3585 32.1117C94.5421 32.6319 94.1562 33.1772 93.6046 33.1772H90.766C90.422 33.1772 90.1166 32.9572 90.0077 32.6309L88.8338 29.1138C88.7249 28.7875 88.4195 28.5675 88.0755 28.5675H81.833C81.489 28.5675 81.1836 28.7875 81.0747 29.1138L79.9009 32.6309C79.792 32.9572 79.4866 33.1772 79.1426 33.1772H76.28ZM87.5757 25.3379C87.5771 25.3379 87.5781 25.3365 87.5776 25.3352L85.0463 17.7574C85.0329 17.7172 84.9952 17.6901 84.9528 17.6901C84.9105 17.6901 84.8728 17.7172 84.8594 17.7574L82.6788 24.2851C82.5059 24.8029 82.8912 25.3379 83.4371 25.3379H87.5757Z" fill="#3134E9"/>
<path d="M177.774 13.1914C178.097 13.1914 178.388 13.3854 178.512 13.6832L183.914 26.6414C183.94 26.7046 184.002 26.7458 184.07 26.7458C184.139 26.7458 184.201 26.7046 184.227 26.6414L189.629 13.6832C189.753 13.3854 190.044 13.1914 190.367 13.1914H194.263C194.705 13.1914 195.063 13.5493 195.063 13.9908V32.3778C195.063 32.8193 194.705 33.1772 194.263 33.1772H191.759C191.317 33.1772 190.959 32.8193 190.959 32.3778V20.1937C190.959 20.1376 190.914 20.0922 190.858 20.0922C190.816 20.0922 190.779 20.1171 190.764 20.1553L185.679 32.5969C185.556 32.8975 185.264 33.0939 184.939 33.0939H183.203C182.877 33.0939 182.585 32.897 182.462 32.5958L177.377 20.0998C177.361 20.0616 177.324 20.0366 177.283 20.0366C177.227 20.0366 177.181 20.082 177.181 20.1381V32.3778C177.181 32.8193 176.824 33.1772 176.382 33.1772H173.878C173.436 33.1772 173.078 32.8193 173.078 32.3778V13.9908C173.078 13.5493 173.436 13.1914 173.878 13.1914H177.774Z" fill="#3134E9"/>
<path d="M198.258 30.9626C198.229 29.7522 199.322 28.7642 200.671 28.7775C201.948 28.7642 203.054 29.7522 203.054 30.9626C203.054 32.173 201.948 33.1742 200.671 33.1742C199.322 33.1742 198.229 32.1863 198.258 30.9626Z" fill="#3134E9"/>
<path d="M26.0616 13.4241C25.4308 13.8966 24.5692 13.2678 24.8268 12.523L28.2906 2.50849C28.7253 1.25174 30.2432 0.762069 31.3303 1.52788L34.5508 3.79644C35.6609 4.57839 35.6848 6.21592 34.598 7.02995L26.0616 13.4241Z" fill="#3134E9"/>
<defs>
<filter id="filter0_b_678_7159" x="2.90239" y="7.44926" width="32.078" height="32.0741" filterUnits="userSpaceOnUse" color-interpolation-filters="sRGB">
<feFlood flood-opacity="0" result="BackgroundImageFix"/>
<feGaussianBlur in="BackgroundImageFix" stdDeviation="2.41599"/>
<feComposite in2="SourceAlpha" operator="in" result="effect1_backgroundBlur_678_7159"/>
<feBlend mode="normal" in="SourceGraphic" in2="effect1_backgroundBlur_678_7159" result="shape"/>
</filter>
</defs>
</svg>
