<svg width="120" height="102" viewBox="0 0 120 102" fill="none" xmlns="http://www.w3.org/2000/svg">
<g id="Group 39891">
<ellipse id="Ellipse 5256" cx="56.6682" cy="74.0643" rx="54.8565" ry="14.2221" transform="rotate(15 56.6682 74.0643)" fill="#F5F5FE"/>
<path id="Union" fill-rule="evenodd" clip-rule="evenodd" d="M19.2687 7.41587C18.7895 6.93666 18.0126 6.93666 17.5333 7.41587C17.0541 7.89508 17.0541 8.67204 17.5333 9.15126L21.6561 13.274C22.1353 13.7532 22.9123 13.7532 23.3915 13.274C23.8707 12.7948 23.8707 12.0179 23.3915 11.5386L19.2687 7.41587ZM28.0342 16.3985C27.5549 15.9193 26.778 15.9193 26.2988 16.3985C25.8196 16.8777 25.8196 17.6546 26.2988 18.1339L30.4216 22.2566C30.9008 22.7358 31.6777 22.7358 32.1569 22.2566C32.6361 21.7774 32.6361 21.0005 32.1569 20.5212L28.0342 16.3985ZM23.1656 16.3985C23.6448 16.8777 23.6448 17.6546 23.1656 18.1339L19.0428 22.2566C18.5636 22.7358 17.7866 22.7358 17.3074 22.2566C16.8282 21.7774 16.8282 21.0005 17.3074 20.5212L21.4302 16.3985C21.9094 15.9193 22.6864 15.9193 23.1656 16.3985ZM32.3629 9.15126C32.8421 8.67204 32.8421 7.89509 32.3629 7.41587C31.8837 6.93666 31.1067 6.93666 30.6275 7.41587L26.5047 11.5386C26.0255 12.0179 26.0255 12.7948 26.5047 13.274C26.9839 13.7532 27.7609 13.7532 28.2401 13.274L32.3629 9.15126Z" fill="#898BF8"/>
<path id="Union_2" fill-rule="evenodd" clip-rule="evenodd" d="M102.51 54.0219C102.121 53.6334 101.492 53.6334 101.103 54.0219C100.715 54.4104 100.715 55.0403 101.103 55.4288L104.445 58.7711C104.834 59.1596 105.464 59.1596 105.852 58.7711C106.241 58.3826 106.241 57.7527 105.852 57.3642L102.51 54.0219ZM109.637 61.3044C109.249 60.9159 108.619 60.9159 108.231 61.3044C107.842 61.6929 107.842 62.3228 108.231 62.7112L111.573 66.0536C111.961 66.442 112.591 66.442 112.98 66.0536C113.368 65.6651 113.368 65.0352 112.98 64.6467L109.637 61.3044ZM105.678 61.3044C106.066 61.6929 106.066 62.3228 105.678 62.7112L102.335 66.0536C101.947 66.4421 101.317 66.442 100.929 66.0536C100.54 65.6651 100.54 65.0352 100.929 64.6467L104.271 61.3044C104.659 60.9159 105.289 60.9159 105.678 61.3044ZM113.15 55.4288C113.538 55.0403 113.538 54.4104 113.15 54.0219C112.761 53.6334 112.131 53.6334 111.743 54.0219L108.4 57.3642C108.012 57.7527 108.012 58.3826 108.4 58.7711C108.789 59.1596 109.419 59.1596 109.807 58.7711L113.15 55.4288Z" fill="#AAAFFF"/>
<circle id="Ellipse 5263" cx="60.1348" cy="50.9507" r="27.146" fill="url(#paint0_linear_1781_9134)"/>
<g id="Union_3" filter="url(#filter0_ii_1781_9134)">
<path fill-rule="evenodd" clip-rule="evenodd" d="M70.5731 32.0789C70.0582 33.5675 71.7802 34.8242 73.0409 33.8799L85.5666 24.4976C87.7386 22.8707 87.6908 19.598 85.4722 18.0352L81.7377 15.4045C79.5649 13.874 76.5313 14.8526 75.6625 17.3643L70.5731 32.0789ZM66.8332 20.4615C66.9231 20.0295 66.6458 19.6054 66.2117 19.5267C59.3856 18.2878 52.3322 19.3582 46.1718 22.5818C39.7752 25.9291 34.737 31.3907 31.9158 38.0361C29.0946 44.6816 28.6649 52.0997 30.6999 59.0264C32.7349 65.9531 37.1087 71.96 43.0761 76.0234C49.0434 80.0869 56.2351 81.9555 63.4258 81.311C70.6165 80.6664 77.3612 77.5485 82.5107 72.4886C87.6603 67.4286 90.896 60.7397 91.6667 53.5614C92.4089 46.6483 90.8205 39.6933 87.1666 33.7958C86.9342 33.4207 86.438 33.3182 86.069 33.56L83.058 35.534C82.689 35.7759 82.5871 36.2705 82.8176 36.6468C85.8132 41.5375 87.1121 47.2892 86.4983 53.0066C85.856 58.9891 83.1592 64.5638 78.8675 68.7808C74.5757 72.9979 68.9546 75.5964 62.9617 76.1336C56.9689 76.6708 50.9752 75.1134 46.0018 71.7269C41.0285 68.3403 37.3833 63.3341 35.6873 57.5612C33.9913 51.7883 34.3494 45.6059 36.7006 40.0675C39.0519 34.529 43.2508 29.9772 48.5819 27.1875C53.6767 24.5215 59.5043 23.6225 65.1525 24.6178C65.587 24.6944 66.01 24.4184 66.0999 23.9864L66.8332 20.4615ZM54.684 34.9139C54.686 33.2813 56.8465 32.7024 57.6645 34.1153L63.5423 44.2675C63.8276 44.7603 64.3536 45.064 64.923 45.0647L76.6541 45.0789C78.2866 45.0809 78.8655 47.2413 77.4527 48.0593L67.3004 53.9371C66.8076 54.2224 66.5039 54.7485 66.5032 55.3179L66.489 67.0489C66.487 68.6815 64.3266 69.2604 63.5086 67.8475L57.6308 57.6953C57.3455 57.2025 56.8194 56.8988 56.25 56.8981L44.519 56.8839C42.8864 56.8819 42.3075 54.7214 43.7204 53.9034L53.8727 48.0256C54.3654 47.7403 54.6691 47.2143 54.6698 46.6449L54.684 34.9139Z" fill="#5C5FFA"/>
</g>
</g>
<defs>
<filter id="filter0_ii_1781_9134" x="24.4954" y="9.73468" width="75.0329" height="77.1888" filterUnits="userSpaceOnUse" color-interpolation-filters="sRGB">
<feFlood flood-opacity="0" result="BackgroundImageFix"/>
<feBlend mode="normal" in="SourceGraphic" in2="BackgroundImageFix" result="shape"/>
<feColorMatrix in="SourceAlpha" type="matrix" values="0 0 0 0 0 0 0 0 0 0 0 0 0 0 0 0 0 0 127 0" result="hardAlpha"/>
<feOffset dx="-4.93915" dy="5.48794"/>
<feGaussianBlur stdDeviation="4.93915"/>
<feComposite in2="hardAlpha" operator="arithmetic" k2="-1" k3="1"/>
<feColorMatrix type="matrix" values="0 0 0 0 0.794463 0 0 0 0 0.799084 0 0 0 0 0.990873 0 0 0 0.71 0"/>
<feBlend mode="normal" in2="shape" result="effect1_innerShadow_1781_9134"/>
<feColorMatrix in="SourceAlpha" type="matrix" values="0 0 0 0 0 0 0 0 0 0 0 0 0 0 0 0 0 0 127 0" result="hardAlpha"/>
<feOffset dx="7.68312" dy="-4.93915"/>
<feGaussianBlur stdDeviation="4.66475"/>
<feComposite in2="hardAlpha" operator="arithmetic" k2="-1" k3="1"/>
<feColorMatrix type="matrix" values="0 0 0 0 0.301961 0 0 0 0 0.313726 0 0 0 0 0.968627 0 0 0 0.56 0"/>
<feBlend mode="normal" in2="effect1_innerShadow_1781_9134" result="effect2_innerShadow_1781_9134"/>
</filter>
<linearGradient id="paint0_linear_1781_9134" x1="63.6866" y1="58.308" x2="77.3865" y2="27.8639" gradientUnits="userSpaceOnUse">
<stop stop-color="#C9CAFF"/>
<stop offset="1" stop-color="white"/>
</linearGradient>
</defs>
</svg>
